<svg width="24" height="24" viewBox="0 0 24 24" fill="none" xmlns="http://www.w3.org/2000/svg">
<path d="M20.5236 5.06979L15.6605 9.93193H18.4315C18.6364 9.93193 18.833 10.0133 18.9779 10.1583C19.1228 10.3032 19.2042 10.4997 19.2042 10.7046C19.2042 10.9096 19.1228 11.1061 18.9779 11.251C18.833 11.3959 18.6364 11.4773 18.4315 11.4773H13.7954C13.5904 11.4773 13.3939 11.3959 13.249 11.251C13.1041 11.1061 13.0227 10.9096 13.0227 10.7046V6.06849C13.0227 5.86356 13.1041 5.66703 13.249 5.52212C13.3939 5.37721 13.5904 5.29581 13.7954 5.29581C14.0003 5.29581 14.1968 5.37721 14.3417 5.52212C14.4867 5.66703 14.5681 5.86356 14.5681 6.06849V8.83955L19.4302 3.97644C19.5752 3.83145 19.7718 3.75 19.9769 3.75C20.1819 3.75 20.3786 3.83145 20.5236 3.97644C20.6685 4.12143 20.75 4.31807 20.75 4.52312C20.75 4.72816 20.6685 4.92481 20.5236 5.06979ZM10.7046 13.0227H6.06849C5.86356 13.0227 5.66703 13.1041 5.52212 13.249C5.37721 13.3939 5.29581 13.5904 5.29581 13.7954C5.29581 14.0003 5.37721 14.1968 5.52212 14.3417C5.66703 14.4867 5.86356 14.5681 6.06849 14.5681H8.83955L3.97644 19.4302C3.83145 19.5752 3.75 19.7718 3.75 19.9769C3.75 20.1819 3.83145 20.3786 3.97644 20.5236C4.12143 20.6685 4.31807 20.75 4.52312 20.75C4.72816 20.75 4.92481 20.6685 5.06979 20.5236L9.93193 15.6605V18.4315C9.93193 18.6364 10.0133 18.833 10.1583 18.9779C10.3032 19.1228 10.4997 19.2042 10.7046 19.2042C10.9096 19.2042 11.1061 19.1228 11.251 18.9779C11.3959 18.833 11.4773 18.6364 11.4773 18.4315V13.7954C11.4773 13.5904 11.3959 13.3939 11.251 13.249C11.1061 13.1041 10.9096 13.0227 10.7046 13.0227Z" fill="#9691A5"/>
</svg>
