<svg width="30" height="30" viewBox="0 0 30 30" fill="none" xmlns="http://www.w3.org/2000/svg">
<path d="M24 11.8125H6.5C6.03587 11.8125 5.59075 11.9969 5.26256 12.3251C4.93437 12.6533 4.75 13.0984 4.75 13.5625V24.0625C4.75 24.5266 4.93437 24.9717 5.26256 25.2999C5.59075 25.6281 6.03587 25.8125 6.5 25.8125H24C24.4641 25.8125 24.9092 25.6281 25.2374 25.2999C25.5656 24.9717 25.75 24.5266 25.75 24.0625V13.5625C25.75 13.0984 25.5656 12.6533 25.2374 12.3251C24.9092 11.9969 24.4641 11.8125 24 11.8125ZM24 24.0625H6.5V13.5625H24V24.0625ZM6.5 9.1875C6.5 8.95544 6.59219 8.73288 6.75628 8.56878C6.92038 8.40469 7.14294 8.3125 7.375 8.3125H23.125C23.3571 8.3125 23.5796 8.40469 23.7437 8.56878C23.9078 8.73288 24 8.95544 24 9.1875C24 9.41956 23.9078 9.64212 23.7437 9.80622C23.5796 9.97031 23.3571 10.0625 23.125 10.0625H7.375C7.14294 10.0625 6.92038 9.97031 6.75628 9.80622C6.59219 9.64212 6.5 9.41956 6.5 9.1875ZM8.25 5.6875C8.25 5.45544 8.34219 5.23288 8.50628 5.06878C8.67038 4.90469 8.89294 4.8125 9.125 4.8125H21.375C21.6071 4.8125 21.8296 4.90469 21.9937 5.06878C22.1578 5.23288 22.25 5.45544 22.25 5.6875C22.25 5.91956 22.1578 6.14212 21.9937 6.30622C21.8296 6.47031 21.6071 6.5625 21.375 6.5625H9.125C8.89294 6.5625 8.67038 6.47031 8.50628 6.30622C8.34219 6.14212 8.25 5.91956 8.25 5.6875Z" />
</svg>
