<svg width="30" height="30" viewBox="0 0 30 30" fill="none" xmlns="http://www.w3.org/2000/svg">
<path d="M12.1875 4.6875H6.5625C6.06522 4.6875 5.58831 4.88504 5.23667 5.23667C4.88504 5.58831 4.6875 6.06522 4.6875 6.5625V12.1875C4.6875 12.6848 4.88504 13.1617 5.23667 13.5133C5.58831 13.865 6.06522 14.0625 6.5625 14.0625H12.1875C12.6848 14.0625 13.1617 13.865 13.5133 13.5133C13.865 13.1617 14.0625 12.6848 14.0625 12.1875V6.5625C14.0625 6.06522 13.865 5.58831 13.5133 5.23667C13.1617 4.88504 12.6848 4.6875 12.1875 4.6875ZM12.1875 12.1875H6.5625V6.5625H12.1875V12.1875ZM23.4375 4.6875H17.8125C17.3152 4.6875 16.8383 4.88504 16.4867 5.23667C16.135 5.58831 15.9375 6.06522 15.9375 6.5625V12.1875C15.9375 12.6848 16.135 13.1617 16.4867 13.5133C16.8383 13.865 17.3152 14.0625 17.8125 14.0625H23.4375C23.9348 14.0625 24.4117 13.865 24.7633 13.5133C25.115 13.1617 25.3125 12.6848 25.3125 12.1875V6.5625C25.3125 6.06522 25.115 5.58831 24.7633 5.23667C24.4117 4.88504 23.9348 4.6875 23.4375 4.6875ZM23.4375 12.1875H17.8125V6.5625H23.4375V12.1875ZM12.1875 15.9375H6.5625C6.06522 15.9375 5.58831 16.135 5.23667 16.4867C4.88504 16.8383 4.6875 17.3152 4.6875 17.8125V23.4375C4.6875 23.9348 4.88504 24.4117 5.23667 24.7633C5.58831 25.115 6.06522 25.3125 6.5625 25.3125H12.1875C12.6848 25.3125 13.1617 25.115 13.5133 24.7633C13.865 24.4117 14.0625 23.9348 14.0625 23.4375V17.8125C14.0625 17.3152 13.865 16.8383 13.5133 16.4867C13.1617 16.135 12.6848 15.9375 12.1875 15.9375ZM12.1875 23.4375H6.5625V17.8125H12.1875V23.4375ZM23.4375 15.9375H17.8125C17.3152 15.9375 16.8383 16.135 16.4867 16.4867C16.135 16.8383 15.9375 17.3152 15.9375 17.8125V23.4375C15.9375 23.9348 16.135 24.4117 16.4867 24.7633C16.8383 25.115 17.3152 25.3125 17.8125 25.3125H23.4375C23.9348 25.3125 24.4117 25.115 24.7633 24.7633C25.115 24.4117 25.3125 23.9348 25.3125 23.4375V17.8125C25.3125 17.3152 25.115 16.8383 24.7633 16.4867C24.4117 16.135 23.9348 15.9375 23.4375 15.9375ZM23.4375 23.4375H17.8125V17.8125H23.4375V23.4375Z"  />
</svg>