<svg width="234" height="239" viewBox="0 0 234 239" fill="none" xmlns="http://www.w3.org/2000/svg">
<ellipse cx="113.311" cy="140.106" rx="24" ry="30" transform="rotate(20.5713 113.311 140.106)" fill="url(#paint0_linear_1035_3876)"/>
<circle cx="153.485" cy="167.721" r="64" transform="rotate(6.44859 153.485 167.721)" fill="url(#paint1_linear_1035_3876)"/>
<circle cx="127.87" cy="140.209" r="3.35897" transform="rotate(14.8546 127.87 140.209)" fill="#1D1D1D"/>
<circle cx="140.042" cy="143.436" r="3.35897" transform="rotate(14.8546 140.042 143.436)" fill="#1D1D1D"/>
<path d="M125.188 149C125.188 149 126.637 151.497 131.078 152.674C135.518 153.852 138.014 152.402 138.014 152.402" stroke="#1D1D1D" stroke-width="3" stroke-linecap="round"/>
<ellipse cx="192.856" cy="160.482" rx="30" ry="37" transform="rotate(20 192.856 160.482)" fill="url(#paint2_linear_1035_3876)"/>
<path fill-rule="evenodd" clip-rule="evenodd" d="M166.696 100.539C148.415 96.0176 135.553 101.87 128.069 108.363C124.849 109.738 122.161 110.964 117.163 114.22C114.821 115.746 110.667 119.26 110.667 119.26C110.667 119.26 111.158 113.911 112.489 111.495C118.298 100.949 137.557 83.0645 169.13 90.8731C187.226 95.3483 197.431 104.336 202.911 114.291C208.27 124.025 208.784 134.105 208.733 140.308C208.711 143.061 206.421 145.264 203.618 145.229C200.815 145.194 198.561 142.934 198.583 140.181C198.63 134.509 198.108 126.484 193.988 118.999C189.989 111.736 182.274 104.392 166.696 100.539Z" fill="url(#paint3_linear_1035_3876)"/>
<ellipse cx="198.222" cy="159.151" rx="21" ry="25" transform="rotate(20 198.222 159.151)" fill="url(#paint4_linear_1035_3876)"/>
<g filter="url(#filter0_d_1035_3876)">
<rect x="8" y="4" width="198" height="64" rx="6" fill="#7850F8"/>
<path d="M68.6345 20.8377V22.0656H65.9757V26.2617H64.4529V22.0656H61.5765V26.2617H60.0489V22.0656H57.3368V20.8377H68.6345ZM58.7146 19.4019V14.4807H67.2471V19.4019H58.7146ZM60.2036 18.1837H65.7339V15.6941H60.2036V18.1837ZM79.1291 13.8619V18.5463H81.0338V19.7935H79.1291V26.2376H77.6063V13.8619H79.1291ZM69.9585 23.2065V15.0269H75.7403V16.2597H71.4717V21.9448C73.4005 21.9302 74.9185 21.8432 76.6201 21.5387L76.7942 22.8198C74.875 23.1533 73.212 23.2113 70.9737 23.2065H69.9585ZM91.5623 17.3522V18.5559H82.996V14.3066H84.5091V17.3522H91.5623ZM81.5361 21.1954V19.9965H92.8337V21.1954H81.5361ZM82.8945 25.9282V22.288H84.4124V24.6954H91.6396V25.9282H82.8945ZM101.386 16.8301C101.376 19.0297 102.483 21.2631 104.393 22.1865L103.47 23.4047C102.126 22.7279 101.169 21.4227 100.642 19.8515C100.095 21.529 99.085 22.9261 97.6734 23.6367L96.7356 22.4088C98.7273 21.471 99.8585 19.107 99.8682 16.8301V14.8529H101.386V16.8301ZM105.128 26.2086V13.8619H106.651V18.7058H108.555V19.9965H106.651V26.2086H105.128ZM120.331 19.8032V21.0214H109.072V19.8032H111.692V18.232C110.764 17.8356 110.237 17.2169 110.242 16.4095C110.237 14.9351 111.963 14.0649 114.694 14.0601C117.416 14.0649 119.142 14.9351 119.142 16.4095C119.142 17.2217 118.61 17.8453 117.667 18.2417V19.8032H120.331ZM110.382 23.9703C110.382 22.549 111.992 21.761 114.685 21.7659C117.348 21.761 118.963 22.549 118.968 23.9703C118.963 25.4109 117.348 26.1941 114.685 26.1892C111.992 26.1941 110.382 25.4109 110.382 23.9703ZM111.818 16.4095C111.808 17.1685 112.867 17.5698 114.694 17.5698C116.512 17.5698 117.58 17.1685 117.58 16.4095C117.58 15.6554 116.512 15.2348 114.694 15.2348C112.867 15.2348 111.808 15.6554 111.818 16.4095ZM111.929 23.9703C111.919 24.6713 112.891 25.0483 114.685 25.0387C116.459 25.0483 117.44 24.6713 117.45 23.9703C117.44 23.2838 116.459 22.9261 114.685 22.9164C112.891 22.9261 111.919 23.2838 111.929 23.9703ZM113.225 19.8032H116.154V18.6285C115.709 18.6865 115.221 18.7203 114.694 18.7203C114.163 18.7203 113.674 18.6865 113.225 18.6285V19.8032ZM125.605 17.3667C125.595 19.2811 126.741 21.4517 128.689 22.3605L127.838 23.5594C126.446 22.9116 125.416 21.5822 124.86 20.0352C124.299 21.732 123.221 23.1823 121.805 23.8688L120.911 22.6699C122.878 21.7417 124.077 19.4261 124.082 17.3667V16.3273H121.389V15.0801H128.186V16.3273H125.605V17.3667ZM129.327 26.2086V13.8619H130.85V18.6671H132.755V19.9434H130.85V26.2086H129.327ZM143.539 13.8619V20.8135H142.036V13.8619H143.539ZM134.001 20.1029V14.5773H135.529V18.8267C137.463 18.8073 139.126 18.672 140.876 18.2949L141.069 19.5373C139.092 19.9482 137.235 20.0932 135.05 20.1029H134.001ZM135.374 26.049V21.3453H143.539V26.049H135.374ZM136.873 24.8501H142.055V22.5442H136.873V24.8501ZM149.378 14.7127C151.336 14.7127 152.767 15.9454 152.772 17.7003C152.767 19.4599 151.336 20.6878 149.378 20.6878C147.435 20.6878 145.98 19.4599 145.985 17.7003C145.98 15.9454 147.435 14.7127 149.378 14.7127ZM145.429 22.3943C147.657 22.3992 150.737 22.375 153.41 21.9931L153.526 23.0953C150.761 23.6271 147.798 23.6464 145.613 23.6464L145.429 22.3943ZM147.493 17.7003C147.483 18.7348 148.296 19.3681 149.378 19.3681C150.471 19.3681 151.288 18.7348 151.288 17.7003C151.288 16.6754 150.476 16.0325 149.378 16.0325C148.296 16.0325 147.483 16.6754 147.493 17.7003ZM154.145 26.2376V13.8619H155.663V26.2376H154.145ZM24.1591 30.1036C26.8905 30.1036 28.6066 31.0028 28.6066 32.5014C28.6066 33.9855 26.8905 34.8702 24.1591 34.8653C21.4471 34.8702 19.7019 33.9855 19.7068 32.5014C19.7019 31.0028 21.4471 30.1036 24.1591 30.1036ZM18.5369 36.9199V35.6968H29.7959V36.9199H18.5369ZM19.8663 42.0635V37.9012H28.4326V42.0635H19.8663ZM21.2827 32.5014C21.2731 33.2555 22.3463 33.6761 24.1591 33.6809C25.9575 33.6761 27.0452 33.2555 27.0452 32.5014C27.0452 31.7231 25.9575 31.2977 24.1591 31.2977C22.3463 31.2977 21.2731 31.7231 21.2827 32.5014ZM21.3649 40.8356H26.9533V39.1098H21.3649V40.8356ZM34.1075 30.5628C36.0122 30.558 37.4286 31.7956 37.4383 33.5359C37.4286 35.2956 36.0122 36.5235 34.1075 36.5235C32.198 36.5235 30.7622 35.2956 30.7719 33.5359C30.7622 31.7956 32.198 30.558 34.1075 30.5628ZM32.1496 38.8874V37.6595H40.3872V42.2279H38.8596V38.8874H32.1496ZM32.2656 33.5359C32.256 34.5898 33.044 35.2376 34.1075 35.2327C35.1614 35.2376 35.9493 34.5898 35.9542 33.5359C35.9493 32.5014 35.1614 31.8633 34.1075 31.8584C33.044 31.8633 32.256 32.5014 32.2656 33.5359ZM38.8596 37.0988V29.8619H40.3872V32.864H42.113V34.1112H40.3872V37.0988H38.8596ZM53.479 31.1623V32.3419H50.9265C50.9506 33.4151 51.9368 34.3674 53.7545 34.7203L53.1502 35.895C51.7386 35.605 50.7379 34.9378 50.1917 34.058C49.6502 35.0249 48.6302 35.7548 47.1751 36.0691L46.5418 34.8847C48.3933 34.5173 49.3747 33.4827 49.3988 32.3419H46.8464V31.1623H49.4085V29.8909H50.9265V31.1623H53.479ZM46.068 36.712C48.374 36.712 51.4437 36.6975 54.0881 36.3591L54.1944 37.4613C53.1212 37.6402 52.019 37.7562 50.9361 37.8287V41.8363H49.4133V37.9109C48.2821 37.9544 47.2041 37.9593 46.2566 37.9593L46.068 36.712ZM54.8857 42.2086V29.8715H56.394V42.2086H54.8857ZM69.5813 31.7811V33.0235H67.9087V34.4302H69.5813V35.6775H67.9087V37.7465H66.381V29.8619H67.9087V31.7811H69.5813ZM58.1677 32.3128V31.114H61.0827V29.7797H62.5958V31.114H65.5012V32.3128H58.1677ZM58.8058 35.0104C58.8009 33.6858 60.0288 32.8011 61.8417 32.8011C63.6207 32.8011 64.8486 33.6858 64.8534 35.0104C64.8486 36.3349 63.6207 37.2099 61.8417 37.2099C60.0288 37.2099 58.8009 36.3349 58.8058 35.0104ZM59.7823 40.0331C59.7726 38.6602 61.3486 37.8481 63.9156 37.8481C66.4487 37.8481 68.0392 38.6602 68.044 40.0331C68.0392 41.3867 66.4487 42.2037 63.9156 42.1989C61.3486 42.2037 59.7726 41.3867 59.7823 40.0331ZM60.2802 35.0104C60.2706 35.6823 60.899 36.0691 61.8417 36.0642C62.7747 36.0691 63.4031 35.6823 63.4128 35.0104C63.4031 34.3239 62.7747 33.9227 61.8417 33.9178C60.899 33.9227 60.2706 34.3239 60.2802 35.0104ZM61.2857 40.0331C61.2809 40.6858 62.2236 41.058 63.9156 41.0532C65.5786 41.058 66.5212 40.6858 66.5212 40.0331C66.5212 39.3515 65.5786 39.018 63.9156 39.018C62.2236 39.018 61.2809 39.3515 61.2857 40.0331ZM72.6699 40.0138L71.529 43.8474H70.2286L70.9296 40.0138H72.6699ZM86.9126 29.8619V32.6706H88.6384V33.9227H86.9126V36.799H85.385V29.8619H86.9126ZM77.0652 35.8128C79.9271 35.0877 81.5611 33.6229 81.8221 31.8343H77.655V30.6112H83.4754C83.4706 33.826 81.3629 36.0449 77.6743 37.0311L77.0652 35.8128ZM78.9167 42.049V37.297H86.9126V42.049H78.9167ZM80.4298 40.8501H85.4091V38.5345H80.4298V40.8501ZM99.6116 29.8619V37.2051H98.0937V34.1837H95.9811V32.9413H98.0937V29.8619H99.6116ZM89.2228 35.9627C91.2097 35.2859 92.2539 33.6229 92.2539 31.9841V31.8923H89.6772V30.6644H96.3582V31.8923H93.8009V31.9696C93.8009 33.4827 94.7967 35.0007 96.7062 35.6388L95.9473 36.8425C94.5743 36.3785 93.5978 35.4358 93.0564 34.2707C92.515 35.5856 91.4853 36.6492 90.0156 37.1664L89.2228 35.9627ZM91.2242 39.864C91.2194 38.3798 92.8195 37.5145 95.43 37.5097C98.0453 37.5145 99.6455 38.3798 99.6455 39.864C99.6455 41.3481 98.0453 42.2134 95.43 42.2182C92.8195 42.2134 91.2194 41.3481 91.2242 39.864ZM92.7373 39.864C92.7277 40.6326 93.709 41.0483 95.43 41.0387C97.1558 41.0483 98.1324 40.6326 98.1372 39.864C98.1324 39.0905 97.1558 38.6796 95.43 38.6796C93.709 38.6796 92.7277 39.0905 92.7373 39.864ZM103.773 40.0138L102.633 43.8474H101.332L102.033 40.0138H103.773ZM118.582 29.8619V42.2086H117.049V29.8619H118.582ZM108.348 38.8101C111.582 37.2728 113.08 35.1892 113.351 32.3757H108.976V31.172H114.898C114.893 34.8508 113.467 37.9738 109.145 40.0283L108.348 38.8101ZM131.648 36.5428V37.7707H120.351V36.5428H125.248V35.5131H121.781V32.2403H128.733V31.317H121.752V30.1278H130.251V33.3474H123.29V34.3336H130.493V35.5131H126.751V36.5428H131.648ZM121.612 39.7576V38.549H130.319V42.136H128.791V39.7576H121.612ZM138.087 30.0504C140.9 30.0504 142.534 30.7997 142.534 32.163C142.534 33.5456 140.9 34.2949 138.087 34.2997C135.273 34.2949 133.63 33.5456 133.635 32.163C133.63 30.7997 135.273 30.0504 138.087 30.0504ZM132.465 36.1754V34.962H143.724V36.1754H132.465ZM133.789 38.1333V37.0021H142.322V40.0283H135.293V40.9468H142.66V42.107H133.804V38.9503H140.823V38.1333H133.789ZM135.225 32.163C135.215 32.8494 136.202 33.1637 138.087 33.1685C139.992 33.1637 140.973 32.8494 140.973 32.163C140.973 31.5297 139.992 31.172 138.087 31.172C136.202 31.172 135.215 31.5297 135.225 32.163ZM157.565 29.8619V34.5608H159.469V35.8419H157.565V42.2086H156.042V29.8619H157.565ZM148.317 39.3177V30.8674H149.83V33.9565H152.745V30.8674H154.253V39.3177H148.317ZM149.83 38.0704H152.745V35.1457H149.83V38.0704ZM169.737 29.8619V32.8833H171.463V34.1209H169.737V37.3936H168.209V29.8619H169.737ZM160.484 36.7023V30.6837H166.271V31.8923H162.016V33.0863H166.024V34.2707H162.016V35.4744C164.148 35.4744 165.473 35.4164 166.981 35.1602L167.155 36.3591C165.473 36.6588 163.999 36.7072 161.48 36.7023H160.484ZM161.538 39.9268C161.533 38.4765 163.148 37.6499 165.724 37.6499C168.287 37.6499 169.877 38.4765 169.877 39.9268C169.877 41.3674 168.287 42.2037 165.724 42.1989C163.148 42.2037 161.533 41.3674 161.538 39.9268ZM163.061 39.9268C163.056 40.6519 164.003 41.0483 165.724 41.0387C167.412 41.0483 168.354 40.6519 168.354 39.9268C168.354 39.2113 167.412 38.8198 165.724 38.8246C164.003 38.8198 163.056 39.2113 163.061 39.9268ZM177.708 30.5483C180.309 30.5532 182.315 31.9406 182.315 34.0483C182.315 36.1706 180.309 37.558 177.708 37.5483C175.112 37.558 173.115 36.1706 173.12 34.0483C173.115 31.9406 175.112 30.5532 177.708 30.5483ZM172.086 40.6568V39.4192H183.383V40.6568H172.086ZM174.59 34.0483C174.58 35.4406 175.91 36.3059 177.708 36.3059C179.506 36.3059 180.821 35.4406 180.821 34.0483C180.821 32.6706 179.506 31.7762 177.708 31.7811C175.91 31.7762 174.58 32.6706 174.59 34.0483ZM195.483 39.5256V40.7825H184.185V39.5256H189.053V37.5097H185.524V33.4682H192.64V31.9309H185.505V30.703H194.144V34.672H187.042V36.2673H194.429V37.5097H190.562V39.5256H195.483ZM26.9083 46.7562C28.5809 46.761 29.8185 48.1533 30.036 50.4061H32.3855V45.8619H33.8938V58.2376H32.3855V51.634H30.0505C29.891 54.0221 28.6293 55.5014 26.9083 55.4965C25.0519 55.5014 23.7322 53.8094 23.7418 51.1215C23.7322 48.453 25.0519 46.761 26.9083 46.7562ZM25.1969 51.1215C25.1921 53.0214 25.8931 54.1236 26.9083 54.1236C27.9331 54.1236 28.6244 53.0214 28.6293 51.1215C28.6244 49.2362 27.9331 48.1291 26.9083 48.1291C25.8931 48.1291 25.1921 49.2362 25.1969 51.1215ZM41.2558 45.9827C44.0693 45.9876 45.7033 46.7369 45.7033 48.105C45.7033 49.4779 44.0693 50.2224 41.2558 50.232C38.4423 50.2224 36.7986 49.4779 36.8035 48.105C36.7986 46.7369 38.4423 45.9876 41.2558 45.9827ZM35.6336 52.0642V50.8702H46.8925V52.0642H42.0099V53.0021H45.4906V56.0283H38.4616V56.9468H45.829V58.107H36.9727V54.9503H43.992V54.1333H36.9582V53.0021H40.4823V52.0642H35.6336ZM38.3939 48.105C38.3843 48.7818 39.3704 49.1008 41.2558 49.1057C43.1605 49.1008 44.1419 48.7818 44.1419 48.105C44.1419 47.462 43.1605 47.1188 41.2558 47.114C39.3704 47.1188 38.3843 47.462 38.3939 48.105ZM58.0301 45.8619V58.2376H56.517V45.8619H58.0301ZM48.4051 48.1678V46.9351H54.2256V51.5711H49.9811V54.0559C51.9245 54.0463 53.602 53.9496 55.5308 53.6257L55.6662 54.8681C53.5633 55.2307 51.7166 55.308 49.4977 55.308H48.4148V50.3626H52.6786V48.1678H48.4051ZM69.8445 49.3522V50.5559H61.2782V46.3066H62.7914V49.3522H69.8445ZM59.8183 53.1954V51.9965H71.1159V53.1954H59.8183ZM61.1767 57.9282V54.288H62.6947V56.6954H69.9219V57.9282H61.1767ZM85.3002 51.2859V52.5186H81.6504V55.5062H86.5523V56.7341H75.2547V55.5062H80.1228V52.5186H76.5599V46.8432H78.1117V51.2859H85.3002ZM92.3867 47.114V51.7162H89.1913V54.1285C90.4434 54.1188 91.6374 54.0656 93.0103 53.8432L93.1215 55.0663C91.4586 55.3515 90.105 55.395 88.5677 55.4047H87.7217V50.4979H90.922V48.3515H87.7072V47.114H92.3867ZM93.7548 57.5946V46.0939H95.1519V50.6043H96.5442V45.8619H97.9848V58.2086H96.5442V51.8322H95.1519V57.5946H93.7548ZM110.737 51.4648V52.6057H99.4394V51.4648H110.737ZM100.754 54.4185V53.3453H109.364V56.1637H102.282V57.0242H109.741V58.078H100.769V55.1775H107.856V54.4185H100.754ZM100.841 47.1816V46.1374H109.34V48.922H102.379V49.7196H109.553V50.7686H100.87V47.9358H107.822V47.1816H100.841ZM126.135 53.2776V54.5249H121.247V58.2279H119.739V54.5249H114.876V53.2776H126.135ZM115.49 51.3246C117.955 51.0249 119.575 49.7631 119.729 48.5304H115.92V47.3218H119.739V45.8667H121.247V47.3218H125.086V48.5304H121.271C121.421 49.7486 123.031 51.0249 125.492 51.3246L124.941 52.5235C122.896 52.2673 121.31 51.3681 120.503 50.1789C119.7 51.3826 118.1 52.2673 116.041 52.5235L115.49 51.3246ZM131.413 48.7818C131.413 50.2562 132.443 51.6823 134.401 52.2818L133.661 53.471C132.259 53.0504 131.244 52.1561 130.683 51.02C130.137 52.2479 129.117 53.2099 127.671 53.6692L126.932 52.4848C128.88 51.8757 129.9 50.3674 129.9 48.7818V48.5932H127.314V47.3847H129.9V45.9392H131.433V47.3847H133.995V48.5932H131.413V48.7818ZM129.218 57.9765V54.2493H130.736V56.7438H137.635V57.9765H129.218ZM133.589 50.7686V49.5407H135.808V45.8715H137.326V55.0518H135.808V50.7686H133.589ZM145.103 47.8246V49.0477H139.051V47.8246H141.342V46.2148H142.846V47.8246H145.103ZM139.399 52.5767C139.394 50.8895 140.53 49.6954 142.096 49.6906C143.668 49.6954 144.789 50.8895 144.794 52.5767C144.789 54.2831 143.668 55.482 142.096 55.482C140.53 55.482 139.394 54.2831 139.399 52.5767ZM140.738 52.5767C140.733 53.5725 141.294 54.1913 142.096 54.1865C142.884 54.1913 143.45 53.5725 143.455 52.5767C143.45 51.6001 142.884 50.9572 142.096 50.9572C141.294 50.9572 140.733 51.6001 140.738 52.5767ZM145.616 57.6526V46.1229H147.042V50.9475H148.255V45.8619H149.701V58.2086H148.255V52.1754H147.042V57.6526H145.616ZM161.206 51.6485V52.8764H152.543V46.9351H161.109V48.1678H154.046V51.6485H161.206ZM151.175 56.6471V55.3902H162.472V56.6471H151.175ZM173.619 45.8619V58.2376H172.106V53.1616H169.844V51.9095H172.106V49.7921H169.897V48.5497H172.106V45.8619H173.619ZM163.685 48.1436V46.9206H169.196V51.5518H165.232V54.1768C166.866 54.1623 168.278 54.0849 169.941 53.8384L170.066 55.0905C168.176 55.3854 166.6 55.4289 164.676 55.4289H163.724V50.3577H167.707V48.1436H163.685ZM186.671 55.4675V56.7148H175.374V55.4675H177.984V52.3398C176.998 51.7742 176.403 50.8895 176.408 49.7921C176.403 47.8246 178.332 46.5242 180.996 46.5193C183.66 46.5242 185.603 47.8246 185.603 49.7921C185.603 50.8702 185.023 51.7403 184.066 52.3108V55.4675H186.671ZM177.897 49.7921C177.897 51.0587 179.145 51.866 180.996 51.866C182.833 51.866 184.109 51.0587 184.109 49.7921C184.109 48.5062 182.833 47.7279 180.996 47.7327C179.145 47.7279 177.897 48.5062 177.897 49.7921ZM179.488 55.4675H182.528V52.8957C182.055 52.9972 181.542 53.0504 180.996 53.0504C180.459 53.0504 179.957 52.9972 179.488 52.8957V55.4675ZM188.972 57.1064C188.387 57.1064 187.904 56.6326 187.913 56.0477C187.904 55.4675 188.387 54.9986 188.972 54.9986C189.542 54.9986 190.026 55.4675 190.031 56.0477C190.026 56.6326 189.542 57.1064 188.972 57.1064Z" fill="white"/>
<path d="M107.866 75.5C107.481 76.1667 106.519 76.1667 106.134 75.5L101.804 68C101.419 67.3333 101.9 66.5 102.67 66.5L111.33 66.5C112.1 66.5 112.581 67.3333 112.196 68L107.866 75.5Z" fill="#7850F8"/>
</g>
<rect x="73" y="56" width="68" height="4" rx="2" fill="#FAFAFA" fill-opacity="0.2"/>
<rect x="17" y="40" width="116" height="4" rx="2" fill="#FAFAFA" fill-opacity="0.2"/>
<defs>
<filter id="filter0_d_1035_3876" x="0.7" y="0.7" width="212.6" height="87.6" filterUnits="userSpaceOnUse" color-interpolation-filters="sRGB">
<feFlood flood-opacity="0" result="BackgroundImageFix"/>
<feColorMatrix in="SourceAlpha" type="matrix" values="0 0 0 0 0 0 0 0 0 0 0 0 0 0 0 0 0 0 127 0" result="hardAlpha"/>
<feOffset dy="4"/>
<feGaussianBlur stdDeviation="3.65"/>
<feComposite in2="hardAlpha" operator="out"/>
<feColorMatrix type="matrix" values="0 0 0 0 0 0 0 0 0 0 0 0 0 0 0 0 0 0 0.15 0"/>
<feBlend mode="normal" in2="BackgroundImageFix" result="effect1_dropShadow_1035_3876"/>
<feBlend mode="normal" in="SourceGraphic" in2="effect1_dropShadow_1035_3876" result="shape"/>
</filter>
<linearGradient id="paint0_linear_1035_3876" x1="98.2049" y1="117.383" x2="122.411" y2="168.01" gradientUnits="userSpaceOnUse">
<stop stop-color="#504E4E"/>
<stop offset="1" stop-color="#240D0D"/>
</linearGradient>
<linearGradient id="paint1_linear_1035_3876" x1="129.956" y1="131.956" x2="184.544" y2="211.956" gradientUnits="userSpaceOnUse">
<stop stop-color="#CEBCE4"/>
<stop offset="1" stop-color="#7850F8"/>
</linearGradient>
<linearGradient id="paint2_linear_1035_3876" x1="173.973" y1="132.457" x2="203.576" y2="195.206" gradientUnits="userSpaceOnUse">
<stop stop-color="#504E4E"/>
<stop offset="1" stop-color="#240D0D"/>
</linearGradient>
<linearGradient id="paint3_linear_1035_3876" x1="202.051" y1="126.235" x2="115.654" y2="112.445" gradientUnits="userSpaceOnUse">
<stop/>
<stop offset="0.485" stop-color="#7A7A7A"/>
<stop offset="1" stop-color="#222222"/>
</linearGradient>
<linearGradient id="paint4_linear_1035_3876" x1="185.004" y1="140.215" x2="204.554" y2="183.147" gradientUnits="userSpaceOnUse">
<stop stop-color="#B8B0B0"/>
<stop offset="1" stop-color="#EDEDED"/>
</linearGradient>
</defs>
</svg>
