<svg width="196" height="134" viewBox="0 0 196 134" fill="none" xmlns="http://www.w3.org/2000/svg">
<g filter="url(#filter0_d_1035_3689)">
<rect x="8" y="4" width="180" height="48" rx="6" fill="#7850F8"/>
<path d="M37.1621 13.8619V26.2376H35.6297V13.8619H37.1621ZM27.2761 19.1215C27.2712 16.453 28.6297 14.761 30.5054 14.7562C32.3569 14.761 33.7201 16.453 33.7201 19.1215C33.7201 21.8094 32.3569 23.5014 30.5054 23.4965C28.6297 23.5014 27.2712 21.8094 27.2761 19.1215ZM28.7408 19.1215C28.7408 21.0214 29.4515 22.1236 30.5054 22.1236C31.5399 22.1236 32.2505 21.0214 32.2505 19.1215C32.2505 17.2362 31.5399 16.1291 30.5054 16.1291C29.4515 16.1291 28.7408 17.2362 28.7408 19.1215ZM49.6098 13.8619V26.2086H48.1692V13.8619H49.6098ZM38.7617 22.7086C40.5456 21.616 41.3287 19.3874 41.3287 17.2362V16.4144H39.1823V15.1865H44.79V16.4144H42.7935V17.2362C42.7887 19.3198 43.538 21.413 45.3073 22.4282L44.413 23.5449C43.2673 22.8681 42.5034 21.6934 42.078 20.2866C41.6429 21.8094 40.855 23.1098 39.6899 23.8301L38.7617 22.7086ZM43.8909 19.3971V18.1692H45.6699V14.0939H47.096V25.614H45.6699V19.3971H43.8909ZM60.0234 14.5532C62.6726 14.558 64.6304 15.8826 64.6304 17.884C64.6304 19.7452 63.04 20.9779 60.7775 21.2003V23.4675H65.6988V24.7148H54.4011V23.4675H59.2692V21.2003C57.0213 20.9779 55.4308 19.7403 55.4357 17.884C55.4308 15.8826 57.3887 14.558 60.0234 14.5532ZM56.9246 17.884C56.9246 19.2279 58.2105 20.0207 60.0234 20.0256C61.8507 20.0207 63.1366 19.2279 63.1366 17.884C63.1366 16.5981 61.8507 15.7762 60.0234 15.7811C58.2105 15.7762 56.9246 16.5981 56.9246 17.884ZM76.4787 16.5159V17.7341H67.9462V14.0262H69.4448V16.5159H76.4787ZM66.4863 19.8999V18.6913H77.7839V19.8999H66.4863ZM67.8205 21.9448V20.77H76.3965V23.922H69.3723V24.8791H76.8026V26.0635H67.8398V22.8149H74.893V21.9448H67.8205ZM82.608 14.7127C84.5658 14.7127 85.9968 15.9454 86.0016 17.7003C85.9968 19.4599 84.5658 20.6878 82.608 20.6878C80.6646 20.6878 79.2095 19.4599 79.2143 17.7003C79.2095 15.9454 80.6646 14.7127 82.608 14.7127ZM78.6584 22.3943C80.887 22.3992 83.9664 22.375 86.6397 21.9931L86.7558 23.0953C83.9906 23.6271 81.0272 23.6464 78.8421 23.6464L78.6584 22.3943ZM80.7226 17.7003C80.7129 18.7348 81.5251 19.3681 82.608 19.3681C83.7005 19.3681 84.5175 18.7348 84.5175 17.7003C84.5175 16.6754 83.7053 16.0325 82.608 16.0325C81.5251 16.0325 80.7129 16.6754 80.7226 17.7003ZM87.3745 26.2376V13.8619H88.8925V26.2376H87.3745ZM104.339 13.8619V26.2086H102.806V13.8619H104.339ZM94.1044 22.8101C97.3385 21.2728 98.8372 19.1892 99.1079 16.3757H94.7329V15.172H100.655C100.65 18.8508 99.2239 21.9738 94.9021 24.0283L94.1044 22.8101ZM117.405 20.5428V21.7707H106.107V20.5428H111.004V19.5131H107.538V16.2403H114.49V15.317H107.509V14.1278H116.008V17.3474H109.047V18.3336H116.25V19.5131H112.508V20.5428H117.405ZM107.369 23.7576V22.549H116.076V26.136H114.548V23.7576H107.369ZM123.844 14.0504C126.657 14.0504 128.291 14.7997 128.291 16.163C128.291 17.5456 126.657 18.2949 123.844 18.2997C121.03 18.2949 119.387 17.5456 119.391 16.163C119.387 14.7997 121.03 14.0504 123.844 14.0504ZM118.221 20.1754V18.962H129.48V20.1754H118.221ZM119.546 22.1333V21.0021H128.079V24.0283H121.049V24.9468H128.417V26.107H119.561V22.9503H126.58V22.1333H119.546ZM120.982 16.163C120.972 16.8494 121.958 17.1637 123.844 17.1685C125.748 17.1637 126.73 16.8494 126.73 16.163C126.73 15.5297 125.748 15.172 123.844 15.172C121.958 15.172 120.972 15.5297 120.982 16.163ZM143.394 13.8715V16.5497H145.13V17.8018H143.394V20.8377H141.866V13.8715H143.394ZM134.175 20.0836V14.4662H135.703V18.8267C137.284 18.8025 138.961 18.6575 140.764 18.3094L140.948 19.5566C138.893 19.9675 136.989 20.0787 135.205 20.0836H134.175ZM135.393 26.049V21.4372H143.394V26.049H135.393ZM136.882 24.8501H141.905V22.6215H136.882V24.8501ZM156.059 13.8619V26.2086H154.527V13.8619H156.059ZM145.825 22.8101C149.059 21.2728 150.558 19.1892 150.829 16.3757H146.454V15.172H152.376C152.371 18.8508 150.945 21.9738 146.623 24.0283L145.825 22.8101ZM167.927 14.9883V16.1775C167.922 17.7148 167.922 19.4358 167.443 22.0173L165.906 21.8529C166.39 19.4551 166.394 17.7003 166.399 16.2113H159.017V14.9883H167.927ZM157.843 24.6229V23.3757H162V19.078H163.508V23.3757H169.102V24.6229H157.843ZM24.4833 30.1036C27.2147 30.1036 28.9309 31.0028 28.9309 32.5014C28.9309 33.9855 27.2147 34.8702 24.4833 34.8653C21.7713 34.8702 20.0262 33.9855 20.031 32.5014C20.0262 31.0028 21.7713 30.1036 24.4833 30.1036ZM18.8611 36.9199V35.6968H30.1201V36.9199H18.8611ZM20.1905 42.0635V37.9012H28.7568V42.0635H20.1905ZM21.607 32.5014C21.5973 33.2555 22.6705 33.6761 24.4833 33.6809C26.2817 33.6761 27.3694 33.2555 27.3694 32.5014C27.3694 31.7231 26.2817 31.2977 24.4833 31.2977C22.6705 31.2977 21.5973 31.7231 21.607 32.5014ZM21.6891 40.8356H27.2775V39.1098H21.6891V40.8356ZM34.4317 30.5628C36.3364 30.558 37.7528 31.7956 37.7625 33.5359C37.7528 35.2956 36.3364 36.5235 34.4317 36.5235C32.5222 36.5235 31.0864 35.2956 31.0961 33.5359C31.0864 31.7956 32.5222 30.558 34.4317 30.5628ZM32.4738 38.8874V37.6595H40.7114V42.2279H39.1838V38.8874H32.4738ZM32.5899 33.5359C32.5802 34.5898 33.3682 35.2376 34.4317 35.2327C35.4856 35.2376 36.2736 34.5898 36.2784 33.5359C36.2736 32.5014 35.4856 31.8633 34.4317 31.8584C33.3682 31.8633 32.5802 32.5014 32.5899 33.5359ZM39.1838 37.0988V29.8619H40.7114V32.864H42.4372V34.1112H40.7114V37.0988H39.1838ZM48.6826 30.0504C51.4961 30.0504 53.1301 30.7997 53.1301 32.163C53.1301 33.5456 51.4961 34.2949 48.6826 34.2997C45.869 34.2949 44.2254 33.5456 44.2302 32.163C44.2254 30.7997 45.869 30.0504 48.6826 30.0504ZM43.0603 36.1754V34.962H54.3193V36.1754H43.0603ZM44.3849 38.1333V37.0021H52.9174V40.0283H45.8884V40.9468H53.2558V42.107H44.3994V38.9503H51.4188V38.1333H44.3849ZM45.8207 32.163C45.811 32.8494 46.7972 33.1637 48.6826 33.1685C50.5873 33.1637 51.5686 32.8494 51.5686 32.163C51.5686 31.5297 50.5873 31.172 48.6826 31.172C46.7972 31.172 45.811 31.5297 45.8207 32.163ZM69.7412 37.2776V38.5249H64.8537V42.2279H63.3455V38.5249H58.4822V37.2776H69.7412ZM59.0962 35.3246C61.5616 35.0249 63.1811 33.7631 63.3358 32.5304H59.5264V31.3218H63.3455V29.8667H64.8537V31.3218H68.6921V32.5304H64.8779C65.0278 33.7486 66.6376 35.0249 69.0982 35.3246L68.5471 36.5235C66.5022 36.2673 64.9166 35.3681 64.1093 34.1789C63.3068 35.3826 61.7066 36.2673 59.6473 36.5235L59.0962 35.3246ZM75.0197 32.7818C75.0197 34.2562 76.0494 35.6823 78.0072 36.2818L77.2676 37.471C75.8656 37.0504 74.8505 36.1561 74.2897 35.02C73.7434 36.2479 72.7234 37.2099 71.2779 37.6692L70.5383 36.4848C72.4865 35.8757 73.5065 34.3674 73.5065 32.7818V32.5932H70.9202V31.3847H73.5065V29.9392H75.039V31.3847H77.6011V32.5932H75.0197V32.7818ZM72.8249 41.9765V38.2493H74.3429V40.7438H81.2413V41.9765H72.8249ZM77.1951 34.7686V33.5407H79.414V29.8715H80.9319V39.0518H79.414V34.7686H77.1951ZM92.4321 29.8619V32.7334H94.1579V33.9807H92.4321V37.0698H90.9045V29.8619H92.4321ZM83.102 36.4123V30.5773H84.6055V32.2597H87.4867V30.5773H89.0046V36.4123H83.102ZM84.4604 42.0442V37.6692H92.5046V38.8778H85.9784V40.8356H92.7367V42.0442H84.4604ZM84.6055 35.2086H87.4867V33.4441H84.6055V35.2086ZM100.403 30.5483C103.004 30.5532 105.01 31.9406 105.01 34.0483C105.01 36.1706 103.004 37.558 100.403 37.5483C97.8073 37.558 95.8107 36.1706 95.8156 34.0483C95.8107 31.9406 97.8073 30.5532 100.403 30.5483ZM94.781 40.6568V39.4192H106.079V40.6568H94.781ZM97.2852 34.0483C97.2755 35.4406 98.6049 36.3059 100.403 36.3059C102.202 36.3059 103.517 35.4406 103.517 34.0483C103.517 32.6706 102.202 31.7762 100.403 31.7811C98.6049 31.7762 97.2755 32.6706 97.2852 34.0483ZM117.226 29.8619V42.2376H115.713V35.6581H113.586V34.4109H115.713V29.8619H117.226ZM107.292 32.1678V30.9351H112.88V35.4599H108.839V38.0608C110.676 38.0511 112.15 37.9883 113.813 37.6934L113.939 38.9406C112.097 39.2597 110.443 39.3273 108.316 39.3322H107.33V34.2369H111.391V32.1678H107.292ZM131.981 29.8619V34.6865H133.813V35.9482H131.981V42.1892H130.458V29.8619H131.981ZM122.24 38.8149C125.247 37.3066 126.871 35.2086 127.171 32.395H122.897V31.143H128.718C128.708 34.7735 127.204 37.9641 123.095 39.9848L122.24 38.8149ZM137.361 30.0552V31.0173H142.698V30.0552H144.211V34.1644H140.754V35.107H145.661V36.3108H134.402V35.107H139.251V34.1644H135.857V30.0552H137.361ZM135.727 38.2106V37.0843H144.259V40.0815H137.23V40.9468H144.598V42.107H135.741V39.018H142.761V38.2106H135.727ZM137.361 33.0283H142.698V32.1243H137.361V33.0283ZM156.354 29.8619V34.7928H158.07V36.0449H156.354V42.2086H154.826V29.8619H156.354ZM146.318 38.6796C148.063 36.8329 148.634 34.875 148.754 32.4047H146.816V31.1575H150.205C150.195 34.3964 149.746 37.1229 147.517 39.5352L146.318 38.6796ZM149.828 39.4917C151.583 37.3936 152.085 35.0829 152.187 32.4047H150.616V31.1575H153.623C153.613 34.4786 153.265 37.6547 151.041 40.3377L149.828 39.4917ZM169.899 39.4675V40.7148H158.601V39.4675H161.212V36.3398C160.226 35.7742 159.631 34.8895 159.636 33.7921C159.631 31.8246 161.56 30.5242 164.224 30.5193C166.887 30.5242 168.831 31.8246 168.831 33.7921C168.831 34.8702 168.251 35.7403 167.293 36.3108V39.4675H169.899ZM161.125 33.7921C161.125 35.0587 162.372 35.866 164.224 35.866C166.061 35.866 167.337 35.0587 167.337 33.7921C167.337 32.5062 166.061 31.7279 164.224 31.7327C162.372 31.7279 161.125 32.5062 161.125 33.7921ZM162.715 39.4675H165.756V36.8957C165.282 36.9972 164.77 37.0504 164.224 37.0504C163.687 37.0504 163.184 36.9972 162.715 36.8957V39.4675ZM172.794 37.9689C172.804 36.2238 173.297 35.692 174.153 35.1554C174.742 34.788 175.187 34.3287 175.187 33.6471C175.187 32.8785 174.593 32.3902 173.848 32.3902C173.166 32.3902 172.509 32.8253 172.461 33.7341H170.749C170.802 31.9019 172.171 30.9641 173.858 30.9641C175.7 30.9641 176.971 31.9938 176.971 33.6181C176.971 34.73 176.415 35.4551 175.53 35.9869C174.738 36.4655 174.409 36.9392 174.394 37.9689V38.0946H172.794V37.9689ZM172.577 40.0477C172.567 39.4675 173.05 38.9986 173.635 38.9986C174.206 38.9986 174.689 39.4675 174.694 40.0477C174.689 40.6326 174.206 41.1064 173.635 41.1064C173.05 41.1064 172.567 40.6326 172.577 40.0477Z" fill="white"/>
<path d="M98.866 59.5C98.4811 60.1667 97.5189 60.1667 97.134 59.5L92.8038 52C92.4189 51.3333 92.9001 50.5 93.6699 50.5L102.33 50.5C103.1 50.5 103.581 51.3333 103.196 52L98.866 59.5Z" fill="#7850F8"/>
</g>
<circle cx="98" cy="104" r="30" fill="#7850F8"/>
<path d="M86.7969 115.2L102.734 112.544C102.892 112.518 103.041 112.45 103.164 112.348C103.288 112.246 103.383 112.114 103.439 111.963L105.997 105.143L96.854 96L90.0334 98.5577C89.8833 98.614 89.7507 98.7088 89.6488 98.8326C89.5469 98.9564 89.4793 99.1047 89.4529 99.2629L86.7969 115.2Z" stroke="white" stroke-linecap="round" stroke-linejoin="round"/>
<path d="M105.541 105.597L108.931 102.207C109.102 102.036 109.198 101.803 109.198 101.561C109.198 101.319 109.102 101.086 108.931 100.915L101.084 93.0644C100.913 92.8931 100.68 92.7969 100.438 92.7969C100.195 92.7969 99.963 92.8931 99.7915 93.0644L96.3984 96.4541" stroke="white" stroke-linecap="round" stroke-linejoin="round"/>
<path d="M97.1969 107.198C98.5224 107.198 99.5969 106.124 99.5969 104.798C99.5969 103.473 98.5224 102.398 97.1969 102.398C95.8714 102.398 94.7969 103.473 94.7969 104.798C94.7969 106.124 95.8714 107.198 97.1969 107.198Z" stroke="white" stroke-linecap="round" stroke-linejoin="round"/>
<path d="M86.7969 115.203L94.7969 107.203" stroke="white" stroke-linecap="round" stroke-linejoin="round"/>
<defs>
<filter id="filter0_d_1035_3689" x="0.7" y="0.7" width="194.6" height="71.6" filterUnits="userSpaceOnUse" color-interpolation-filters="sRGB">
<feFlood flood-opacity="0" result="BackgroundImageFix"/>
<feColorMatrix in="SourceAlpha" type="matrix" values="0 0 0 0 0 0 0 0 0 0 0 0 0 0 0 0 0 0 127 0" result="hardAlpha"/>
<feOffset dy="4"/>
<feGaussianBlur stdDeviation="3.65"/>
<feComposite in2="hardAlpha" operator="out"/>
<feColorMatrix type="matrix" values="0 0 0 0 0 0 0 0 0 0 0 0 0 0 0 0 0 0 0.15 0"/>
<feBlend mode="normal" in2="BackgroundImageFix" result="effect1_dropShadow_1035_3689"/>
<feBlend mode="normal" in="SourceGraphic" in2="effect1_dropShadow_1035_3689" result="shape"/>
</filter>
</defs>
</svg>
