<svg width="318" height="70" viewBox="0 0 318 70" fill="none" xmlns="http://www.w3.org/2000/svg">
<rect width="68" height="68" rx="6" fill="#7850F8"/>
<path fill-rule="evenodd" clip-rule="evenodd" d="M50.3257 16.4651C50.3257 17.3614 50.1864 18.2252 49.9282 19.036C50.4484 18.936 50.9855 18.8837 51.5349 18.8837C56.21 18.8837 60 22.6737 60 27.3488C60 30.4281 58.3558 33.1234 55.8975 34.6046C58.3558 36.0859 59.9999 38.7812 59.9999 41.8605C59.9999 46.5356 56.21 50.3256 51.5348 50.3256C50.9855 50.3256 50.4484 50.2732 49.9282 50.1733C50.1864 50.9841 50.3257 51.8479 50.3257 52.7442C50.3257 57.4194 46.5357 61.2093 41.8606 61.2093C38.2978 61.2093 35.2491 59.0084 34 55.892C32.7509 59.0084 29.7022 61.2093 26.1395 61.2093C21.4643 61.2093 17.6744 57.4194 17.6744 52.7442C17.6744 51.8479 17.8137 50.9841 18.0718 50.1733C17.5516 50.2732 17.0145 50.3256 16.4651 50.3256C11.79 50.3256 8.00002 46.5356 8.00002 41.8605C8.00002 38.7812 9.64417 36.0859 12.1025 34.6046C9.64415 33.1234 8 30.4281 8 27.3488C8 22.6737 11.79 18.8837 16.4651 18.8837C17.0146 18.8837 17.5518 18.936 18.072 19.036C17.8139 18.2252 17.6746 17.3614 17.6746 16.4651C17.6746 11.79 21.4645 8 26.1397 8C29.7023 8 32.7509 10.2008 34.0001 13.3171C35.2493 10.2008 38.2979 8 41.8605 8C46.5357 8 50.3257 11.79 50.3257 16.4651ZM33.0064 22.3768C30.9127 22.0116 29.1245 20.7771 28.105 19.758L29.2753 18.5874C30.1299 19.4418 31.6251 20.4557 33.2909 20.7462C34.8886 21.0249 36.7078 20.6562 38.4016 18.6403L39.6688 19.7051C37.5845 22.1858 35.1681 22.7539 33.0064 22.3768Z" fill="#2AED15"/>
<g filter="url(#filter0_d_1035_3658)">
<path d="M83.5 34.866C82.8333 34.4811 82.8333 33.5189 83.5 33.134L91 28.8038C91.6667 28.4189 92.5 28.9001 92.5 29.6699L92.5 38.3301C92.5 39.0999 91.6667 39.5811 91 39.1962L83.5 34.866Z" fill="#7850F8"/>
<rect x="91" y="10" width="219" height="48" rx="6" fill="#7850F8"/>
<path d="M112.141 19.8619V32.2376H110.608V19.8619H112.141ZM102.255 25.1215C102.25 22.453 103.608 20.761 105.484 20.7562C107.335 20.761 108.699 22.453 108.699 25.1215C108.699 27.8094 107.335 29.5014 105.484 29.4965C103.608 29.5014 102.25 27.8094 102.255 25.1215ZM103.719 25.1215C103.719 27.0214 104.43 28.1236 105.484 28.1236C106.518 28.1236 107.229 27.0214 107.229 25.1215C107.229 23.2362 106.518 22.1291 105.484 22.1291C104.43 22.1291 103.719 23.2362 103.719 25.1215ZM124.308 19.8715V28.989H122.79V24.4399H120.305V26.9876H114.514V20.6837H116.041V22.6754H118.802V20.6837H120.305V23.212H122.79V19.8715H124.308ZM116.041 25.779H118.802V23.8453H116.041V25.779ZM116.162 31.9765V28.0898H117.699V30.7438H124.579V31.9765H116.162ZM135.389 20.529V21.7376H131.367V24.4883C133.61 24.4786 134.958 24.3867 136.481 24.0773L136.65 25.2617C134.992 25.634 133.484 25.6872 130.864 25.6823H129.858V20.529H135.389ZM131.043 27.7852V26.5718H139.13V29.8543H132.561V30.8356H139.517V32.0635H131.062V28.7086H137.612V27.7852H131.043ZM137.603 26.0352V19.8619H139.13V22.2887H140.856V23.5359H139.13V26.0352H137.603ZM154.48 19.8619V24.6865H156.312V25.9482H154.48V32.1892H152.957V19.8619H154.48ZM144.739 28.8149C147.746 27.3066 149.37 25.2086 149.67 22.395H145.396V21.143H151.217C151.207 24.7735 149.703 27.9641 145.594 29.9848L144.739 28.8149ZM161.334 22.0905C161.334 23.5988 162.311 25.02 164.24 25.6098L163.519 26.8039C162.132 26.3688 161.15 25.489 160.604 24.3771C160.058 25.6727 159.019 26.6975 157.534 27.1954L156.761 25.9917C158.753 25.3488 159.797 23.7438 159.807 22.1001V21.9454H157.186V20.7175H163.896V21.9454H161.334V22.0905ZM158.448 29.8398C158.443 28.3605 160.043 27.5 162.63 27.5C165.192 27.5 166.763 28.3605 166.763 29.8398C166.763 31.3287 165.192 32.2037 162.63 32.1989C160.043 32.2037 158.443 31.3287 158.448 29.8398ZM159.966 29.8398C159.961 30.6036 160.933 31.0097 162.63 31.0048C164.322 31.0097 165.269 30.6036 165.269 29.8398C165.269 29.0905 164.322 28.6941 162.63 28.6941C160.933 28.6941 159.961 29.0905 159.966 29.8398ZM165.124 27.2293V19.8619H166.652V22.8253H168.378V24.0725H166.652V27.2293H165.124ZM182.074 19.8619V22.5207H183.8V23.7728H182.074V26.0787H180.546V19.8619H182.074ZM172.744 25.7548V20.6499H178.598V25.7548H172.744ZM173.498 31.8798V27.1326H174.982V30.6374C175.692 30.5939 176.427 30.4924 177.133 30.2604L177.36 31.4496C176.263 31.8315 175.209 31.8798 174.155 31.8798H173.498ZM174.242 24.5559H177.104V21.8488H174.242V24.5559ZM176.925 28.3653V27.2631H179.313V26.3011H180.797V27.2631H183.152V28.3653H176.925ZM177.679 30.4634C177.67 29.3854 178.627 28.7279 180.034 28.7279C181.421 28.7279 182.393 29.3854 182.402 30.4634C182.393 31.5221 181.421 32.1941 180.034 32.1892C178.627 32.1941 177.67 31.5221 177.679 30.4634ZM179.028 30.4634C179.023 30.913 179.449 31.1644 180.034 31.1644C180.614 31.1644 181.034 30.913 181.034 30.4634C181.034 30.0186 180.614 29.7721 180.034 29.7624C179.449 29.7721 179.023 30.0186 179.028 30.4634ZM194.705 19.8619V32.2376H193.173V19.8619H194.705ZM184.819 25.1215C184.814 22.453 186.173 20.761 188.048 20.7562C189.9 20.761 191.263 22.453 191.263 25.1215C191.263 27.8094 189.9 29.5014 188.048 29.4965C186.173 29.5014 184.814 27.8094 184.819 25.1215ZM186.284 25.1215C186.284 27.0214 186.994 28.1236 188.048 28.1236C189.083 28.1236 189.793 27.0214 189.793 25.1215C189.793 23.2362 189.083 22.1291 188.048 22.1291C186.994 22.1291 186.284 23.2362 186.284 25.1215ZM204.278 22.0083C204.278 23.5262 205.254 25.0249 207.202 25.663L206.429 26.8377C205.046 26.3785 204.07 25.4551 203.528 24.3046C202.982 25.5711 201.957 26.5718 200.512 27.0649L199.704 25.8902C201.696 25.2279 202.74 23.6229 202.75 21.9986V21.8536H200.13V20.6305H206.84V21.8536H204.278V22.0083ZM201.358 29.0953V27.8771H209.595V32.2086H208.068V29.0953H201.358ZM208.068 27.3066V19.8619H209.595V22.9461H211.321V24.2175H209.595V27.3066H208.068ZM216.469 21.6264C216.459 23.3184 217.445 24.8508 219.374 25.4648L218.557 26.654C217.213 26.1754 216.266 25.2762 215.739 24.1015C215.198 25.4503 214.168 26.509 212.674 27.0311L211.862 25.808C213.907 25.136 214.932 23.4827 214.941 21.6941V20.529H216.469V21.6264ZM213.907 29.8349C213.902 28.3315 215.502 27.4565 218.113 27.4565C220.728 27.4565 222.328 28.3315 222.328 29.8349C222.328 31.3432 220.728 32.2037 218.113 32.1989C215.502 32.2037 213.902 31.3432 213.907 29.8349ZM215.42 29.8349C215.41 30.5891 216.392 31.0097 218.113 31.0048C219.838 31.0097 220.815 30.5891 220.82 29.8349C220.815 29.0566 219.838 28.6409 218.113 28.6409C216.392 28.6409 215.41 29.0566 215.42 29.8349ZM218.316 23.4972V22.25H220.776V19.8619H222.294V27.1229H220.776V23.4972H218.316ZM233.794 19.8715V23.7535H235.52V25.0055H233.794V29.105H232.267V19.8715H233.794ZM224.053 22.4482V21.2396H226.968V19.8619H228.482V21.2396H231.387V22.4482H224.053ZM224.692 25.3294C224.687 23.9081 225.924 22.9655 227.727 22.9655C229.502 22.9655 230.734 23.9081 230.739 25.3294C230.734 26.7362 229.502 27.6644 227.727 27.6595C225.924 27.6644 224.687 26.7362 224.692 25.3294ZM225.876 31.9765V28.3798H227.389V30.7438H234.278V31.9765H225.876ZM226.166 25.3294C226.156 26.0691 226.785 26.4993 227.727 26.4945C228.66 26.4993 229.289 26.0691 229.299 25.3294C229.289 24.5753 228.66 24.1354 227.727 24.1354C226.785 24.1354 226.156 24.5753 226.166 25.3294ZM245.088 20.1036C247.819 20.1036 249.535 21.0028 249.535 22.5014C249.535 23.9855 247.819 24.8702 245.088 24.8653C242.376 24.8702 240.631 23.9855 240.635 22.5014C240.631 21.0028 242.376 20.1036 245.088 20.1036ZM239.466 26.9199V25.6968H250.725V26.9199H239.466ZM240.795 32.0635V27.9012H249.361V32.0635H240.795ZM242.211 22.5014C242.202 23.2555 243.275 23.6761 245.088 23.6809C246.886 23.6761 247.974 23.2555 247.974 22.5014C247.974 21.7231 246.886 21.2977 245.088 21.2977C243.275 21.2977 242.202 21.7231 242.211 22.5014ZM242.294 30.8356H247.882V29.1098H242.294V30.8356ZM255.036 20.5628C256.941 20.558 258.357 21.7956 258.367 23.5359C258.357 25.2956 256.941 26.5235 255.036 26.5235C253.127 26.5235 251.691 25.2956 251.701 23.5359C251.691 21.7956 253.127 20.558 255.036 20.5628ZM253.078 28.8874V27.6595H261.316V32.2279H259.788V28.8874H253.078ZM253.194 23.5359C253.185 24.5898 253.973 25.2376 255.036 25.2327C256.09 25.2376 256.878 24.5898 256.883 23.5359C256.878 22.5014 256.09 21.8633 255.036 21.8584C253.973 21.8633 253.185 22.5014 253.194 23.5359ZM259.788 27.0988V19.8619H261.316V22.864H263.042V24.1112H261.316V27.0988H259.788ZM267.17 20.2535C269.041 20.2583 270.433 21.4185 270.438 23.0477C270.433 24.6768 269.041 25.8273 267.17 25.8322C265.279 25.8273 263.882 24.6768 263.887 23.0477C263.882 21.4185 265.279 20.2583 267.17 20.2535ZM265.366 23.0477C265.357 24 266.125 24.5994 267.17 24.5994C268.204 24.5994 268.963 24 268.963 23.0477C268.963 22.105 268.204 21.5055 267.17 21.5104C266.125 21.5055 265.357 22.105 265.366 23.0477ZM265.748 27.8239V26.6395H273.952V29.8688H267.266V30.8598H274.324V32.0635H265.787V28.7472H272.439V27.8239H265.748ZM272.429 26.0981V19.8619H273.952V26.0981H272.429ZM286.081 19.8619V32.2086H284.548V19.8619H286.081ZM275.847 28.8101C279.081 27.2728 280.579 25.1892 280.85 22.3757H276.475V21.172H282.397C282.392 24.8508 280.966 27.9738 276.644 30.0283L275.847 28.8101ZM291.872 20.7127C293.83 20.7127 295.26 21.9454 295.265 23.7003C295.26 25.4599 293.83 26.6878 291.872 26.6878C289.928 26.6878 288.473 25.4599 288.478 23.7003C288.473 21.9454 289.928 20.7127 291.872 20.7127ZM287.922 28.3943C290.151 28.3992 293.23 28.375 295.903 27.9931L296.019 29.0953C293.254 29.6271 290.291 29.6464 288.106 29.6464L287.922 28.3943ZM289.986 23.7003C289.977 24.7348 290.789 25.3681 291.872 25.3681C292.964 25.3681 293.781 24.7348 293.781 23.7003C293.781 22.6754 292.969 22.0325 291.872 22.0325C290.789 22.0325 289.977 22.6754 289.986 23.7003ZM296.638 32.2376V19.8619H298.156V32.2376H296.638ZM120.828 42.7459V43.9738H115.921V48.2086H114.418V43.9738H109.569V42.7459H120.828ZM110.159 40.7251C112.581 40.4109 114.205 39.1105 114.326 37.7521H110.599V36.5532H119.794V37.7521H116.081C116.182 39.1105 117.802 40.4109 120.253 40.7251L119.692 41.9192C117.594 41.6146 115.95 40.6526 115.201 39.3135C114.442 40.6526 112.813 41.6146 110.729 41.9192L110.159 40.7251ZM132.299 35.8619V48.2086H130.859V35.8619H132.299ZM121.451 44.7086C123.235 43.616 124.018 41.3874 124.018 39.2362V38.4144H121.872V37.1865H127.479V38.4144H125.483V39.2362C125.478 41.3198 126.227 43.413 127.997 44.4282L127.102 45.5449C125.957 44.8681 125.193 43.6934 124.767 42.2866C124.332 43.8094 123.544 45.1098 122.379 45.8301L121.451 44.7086ZM126.58 41.3971V40.1692H128.359V36.0939H129.785V47.614H128.359V41.3971H126.58ZM144.428 35.8619V48.2086H142.968V35.8619H144.428ZM133.894 41.1989C133.889 38.482 134.943 36.7949 136.563 36.7997C138.056 36.7949 139.076 38.2017 139.25 40.5124H140.444V36.0746H141.89V47.6188H140.444V41.7355H139.26C139.12 44.1526 138.085 45.6271 136.563 45.6271C134.943 45.6271 133.889 43.9302 133.894 41.1989ZM135.301 41.1989C135.291 43.1326 135.77 44.1768 136.563 44.172C137.375 44.1768 137.868 43.1326 137.868 41.1989C137.868 39.2749 137.375 38.2258 136.563 38.2307C135.77 38.2258 135.291 39.2749 135.301 41.1989ZM159.105 35.8329V40.5559H160.701V41.8322H159.105V48.2086H157.582V35.8329H159.105ZM149.48 45.105V37.114H152.666V38.3467H150.998V43.8432C151.549 43.8191 152.115 43.761 152.753 43.6354L152.884 44.8874C151.815 45.0905 150.974 45.1098 150.075 45.105H149.48ZM153.333 45.105V37.114H156.649V38.3467H154.827V43.8481C155.663 43.8287 156.253 43.7659 156.906 43.6064L157.027 44.8584C156.108 45.0905 155.359 45.1098 153.957 45.105H153.333ZM170.968 35.8619V40.6091H172.873V41.8709H170.968V48.2376H169.465V35.8619H170.968ZM161.783 38.1678V36.9351H167.463V41.5953H163.315V44.0559C165.268 44.0463 166.791 43.9641 168.517 43.6644L168.657 44.8874C166.753 45.2355 165.065 45.3177 162.822 45.3225H161.807V40.3819H165.945V38.1678H161.783ZM187.279 35.8715V42.2528H185.834V39.6423H184.596V42.1271H183.185V36.0988H184.596V38.4192H185.834V35.8715H187.279ZM176.794 39.1685C176.784 37.5152 177.964 36.4323 179.622 36.4372C181.275 36.4323 182.469 37.5152 182.469 39.1685C182.469 40.7686 181.275 41.895 179.622 41.8902C177.964 41.895 176.784 40.7686 176.794 39.1685ZM178.157 39.1685C178.147 40.0919 178.761 40.6768 179.622 40.6816C180.473 40.6768 181.082 40.0919 181.087 39.1685C181.082 38.2258 180.473 37.6119 179.622 37.6119C178.761 37.6119 178.147 38.2258 178.157 39.1685ZM178.911 43.9206V42.7169H187.279V45.8978H180.463V46.8598H187.719V48.0635H178.931V44.7617H185.761V43.9206H178.911ZM190.895 36.5628V38.3177H193.655V36.5628H195.159V38.8591H197.643V35.8619H199.161V43.0166H197.643V40.1064H195.159V42.4365H189.367V36.5628H190.895ZM190.895 41.2182H193.655V39.5117H190.895V41.2182ZM190.938 48.0635V43.5483H199.161V48.0635H190.938ZM192.456 46.8356H197.672V44.7617H192.456V46.8356ZM210.547 37.0801C210.537 40.8025 209.435 44.0124 205.011 46.2845L204.175 45.134C206.235 44.0656 207.511 42.8329 208.241 41.3633L204.456 41.7162L204.228 40.4157L208.715 40.145C208.879 39.5698 208.985 38.9558 209.038 38.308H204.881V37.0801H210.547ZM210.523 41.9289V40.6816H213.065V35.8619H214.578V48.2086H213.065V41.9289H210.523ZM226.693 35.8619V48.2376H225.184V41.5325H222.67V45.2403H216.802V36.8191H218.324V39.8888H221.186V36.8191H222.67V40.2949H225.184V35.8619H226.693ZM218.324 44.0124H221.186V41.0829H218.324V44.0124ZM238.111 35.8619V40.6865H239.943V41.9482H238.111V48.1892H236.588V35.8619H238.111ZM228.37 44.8149C231.376 43.3066 233.001 41.2086 233.3 38.395H229.027V37.143H234.847C234.838 40.7735 233.334 43.9641 229.225 45.9848L228.37 44.8149ZM254.204 35.8619V42.1126H252.686V41.0442H249.709V39.8791H252.686V38.6657H249.858C249.09 40.5511 247.277 41.7742 244.546 42.3881L244.023 41.1457C246.924 40.5414 248.374 39.2652 248.587 37.6167H244.695V36.3888H250.274C250.274 36.7756 250.245 37.143 250.187 37.4959H252.686V35.8619H254.204ZM246.064 43.7997V42.596H254.204V45.8543H247.601V46.8743H254.523V48.0925H246.083V44.7182H252.677V43.7997H246.064ZM266.304 35.8619V43.2051H264.786V40.1837H262.673V38.9413H264.786V35.8619H266.304ZM255.915 41.9627C257.902 41.2859 258.946 39.6229 258.946 37.9841V37.8923H256.37V36.6644H263.051V37.8923H260.493V37.9696C260.493 39.4827 261.489 41.0007 263.399 41.6388L262.64 42.8425C261.267 42.3785 260.29 41.4358 259.749 40.2707C259.207 41.5856 258.178 42.6492 256.708 43.1664L255.915 41.9627ZM257.917 45.864C257.912 44.3798 259.512 43.5145 262.122 43.5097C264.738 43.5145 266.338 44.3798 266.338 45.864C266.338 47.3481 264.738 48.2134 262.122 48.2182C259.512 48.2134 257.912 47.3481 257.917 45.864ZM259.43 45.864C259.42 46.6326 260.401 47.0483 262.122 47.0387C263.848 47.0483 264.825 46.6326 264.83 45.864C264.825 45.0905 263.848 44.6796 262.122 44.6796C260.401 44.6796 259.42 45.0905 259.43 45.864ZM267.894 44.4475C268.624 44.4475 269.528 44.4378 270.475 44.4137V42.2044H268.479V37.0269H273.772V38.2548H269.968V40.9814H273.879V42.2044H271.926V44.3605C272.733 44.3218 273.521 44.2638 274.217 44.1816L274.299 45.279C272.293 45.6367 269.721 45.6948 268.107 45.6996L267.894 44.4475ZM274.744 47.614V36.0939H276.161V40.8508H277.316V35.8619H278.776V48.2086H277.316V42.0884H276.161V47.614H274.744ZM291.451 45.4675V46.7148H280.153V45.4675H282.764V42.3398C281.777 41.7742 281.183 40.8895 281.188 39.7921C281.183 37.8246 283.112 36.5242 285.775 36.5193C288.439 36.5242 290.382 37.8246 290.382 39.7921C290.382 40.8702 289.802 41.7403 288.845 42.3108V45.4675H291.451ZM282.677 39.7921C282.677 41.0587 283.924 41.866 285.775 41.866C287.612 41.866 288.889 41.0587 288.889 39.7921C288.889 38.5062 287.612 37.7279 285.775 37.7327C283.924 37.7279 282.677 38.5062 282.677 39.7921ZM284.267 45.4675H287.308V42.8957C286.834 42.9972 286.322 43.0504 285.775 43.0504C285.239 43.0504 284.736 42.9972 284.267 42.8957V45.4675Z" fill="white"/>
</g>
<defs>
<filter id="filter0_d_1035_3658" x="74.7" y="6.7" width="242.6" height="62.6" filterUnits="userSpaceOnUse" color-interpolation-filters="sRGB">
<feFlood flood-opacity="0" result="BackgroundImageFix"/>
<feColorMatrix in="SourceAlpha" type="matrix" values="0 0 0 0 0 0 0 0 0 0 0 0 0 0 0 0 0 0 127 0" result="hardAlpha"/>
<feOffset dy="4"/>
<feGaussianBlur stdDeviation="3.65"/>
<feComposite in2="hardAlpha" operator="out"/>
<feColorMatrix type="matrix" values="0 0 0 0 0 0 0 0 0 0 0 0 0 0 0 0 0 0 0.15 0"/>
<feBlend mode="normal" in2="BackgroundImageFix" result="effect1_dropShadow_1035_3658"/>
<feBlend mode="normal" in="SourceGraphic" in2="effect1_dropShadow_1035_3658" result="shape"/>
</filter>
</defs>
</svg>
