<svg width="234" height="207" viewBox="0 0 234 207" fill="none" xmlns="http://www.w3.org/2000/svg">
<ellipse cx="113.311" cy="108.106" rx="24" ry="30" transform="rotate(20.5713 113.311 108.106)" fill="url(#paint0_linear_1035_3860)"/>
<circle cx="153.485" cy="135.721" r="64" transform="rotate(6.44859 153.485 135.721)" fill="url(#paint1_linear_1035_3860)"/>
<circle cx="127.87" cy="108.209" r="3.35897" transform="rotate(14.8546 127.87 108.209)" fill="#1D1D1D"/>
<circle cx="140.042" cy="111.436" r="3.35897" transform="rotate(14.8546 140.042 111.436)" fill="#1D1D1D"/>
<path d="M125.188 117C125.188 117 126.637 119.497 131.078 120.674C135.518 121.852 138.014 120.402 138.014 120.402" stroke="#1D1D1D" stroke-width="3" stroke-linecap="round"/>
<ellipse cx="192.856" cy="128.482" rx="30" ry="37" transform="rotate(20 192.856 128.482)" fill="url(#paint2_linear_1035_3860)"/>
<path fill-rule="evenodd" clip-rule="evenodd" d="M166.696 68.5387C148.415 64.0176 135.553 69.87 128.069 76.3627C124.849 77.7383 122.161 78.9637 117.163 82.2201C114.821 83.7463 110.667 87.2603 110.667 87.2603C110.667 87.2603 111.158 81.9107 112.489 79.4945C118.298 68.9494 137.557 51.0645 169.13 58.8731C187.226 63.3483 197.431 72.3358 202.911 82.291C208.27 92.0246 208.784 102.105 208.733 108.308C208.711 111.061 206.421 113.264 203.618 113.229C200.815 113.194 198.561 110.934 198.583 108.181C198.63 102.509 198.108 94.4841 193.988 86.9992C189.989 79.7358 182.274 72.3917 166.696 68.5387Z" fill="url(#paint3_linear_1035_3860)"/>
<ellipse cx="198.222" cy="127.151" rx="21" ry="25" transform="rotate(20 198.222 127.151)" fill="url(#paint4_linear_1035_3860)"/>
<g filter="url(#filter0_d_1035_3860)">
<rect x="8" y="4" width="192" height="32" rx="6" fill="#7850F8"/>
<path d="M28.5005 13.8619V17.4779H30.2263V18.7396H28.5005V22.8971H26.9728V13.8619H28.5005ZM18.8851 17.7873C18.8755 15.9696 20.3402 14.6837 22.2208 14.6837C24.1013 14.6837 25.5419 15.9696 25.5516 17.7873C25.5419 19.5905 24.1013 20.8957 22.2208 20.8957C20.3402 20.8957 18.8755 19.5905 18.8851 17.7873ZM20.3789 17.7873C20.3693 18.8653 21.1862 19.5663 22.2208 19.5663C23.265 19.5663 24.0626 18.8653 24.0675 17.7873C24.0626 16.6996 23.265 16.0083 22.2208 16.0083C21.1862 16.0083 20.3693 16.6996 20.3789 17.7873ZM20.582 25.9765V21.9496H22.0951V24.7438H28.9839V25.9765H20.582ZM33.107 14.5435V19.4503C34.9875 19.4454 36.3701 19.3488 37.9267 19.0442L38.0959 20.2769C36.3508 20.6153 34.7893 20.7072 32.5559 20.7023H31.5697V14.5435H33.107ZM32.8121 23.8446C32.8073 22.346 34.4074 21.4613 37.0179 21.4662C39.6332 21.4613 41.2334 22.346 41.2334 23.8446C41.2334 25.3432 39.6332 26.2134 37.0179 26.2182C34.4074 26.2134 32.8073 25.3432 32.8121 23.8446ZM34.3252 23.8446C34.3155 24.6036 35.2969 25.0193 37.0179 25.0193C38.7437 25.0193 39.7202 24.6036 39.7251 23.8446C39.7202 23.076 38.7437 22.6602 37.0179 22.6554C35.2969 22.6602 34.3155 23.076 34.3252 23.8446ZM36.4861 18.4157V17.2555H39.6816V16.2742H36.4861V15.0994H39.6816V13.8619H41.1995V21.3405H39.6816V18.4157H36.4861ZM52.6272 13.8619V18.7831H54.5319V20.0352H52.6272V26.2086H51.1237V13.8619H52.6272ZM42.8813 16.98V15.7521H45.8012V14.0359H47.3192V15.7521H50.1714V16.98H42.8813ZM43.4518 20.6878C43.4421 18.9814 44.7667 17.7776 46.5699 17.7776C48.3489 17.7776 49.6686 18.9814 49.6783 20.6878C49.6686 22.3943 48.3489 23.5932 46.5699 23.5932C44.7667 23.5932 43.4421 22.3943 43.4518 20.6878ZM44.9069 20.6878C44.8972 21.703 45.603 22.346 46.5699 22.3363C47.5222 22.346 48.2135 21.703 48.2232 20.6878C48.2135 19.6872 47.5222 19.0249 46.5699 19.0249C45.603 19.0249 44.8972 19.6872 44.9069 20.6878ZM58.9063 17.1008C58.9063 19.0925 59.5976 21.1713 61.2751 22.2203L60.434 23.3902C59.3173 22.7231 58.5969 21.5677 58.186 20.2189C57.7413 21.703 56.9485 22.9599 55.7882 23.6657L54.8504 22.5394C56.6391 21.4468 57.4367 19.2714 57.4367 17.1685V14.9544H58.9063V17.1008ZM59.9457 19.3681V18.116H61.7102V14.0746H63.1363V25.6188H61.7102V19.3681H59.9457ZM64.2482 26.2086V13.8619H65.7081V26.2086H64.2482ZM78.4459 23.4675V24.7148H67.1482V23.4675H69.7587V20.3398C68.7725 19.7742 68.1779 18.8895 68.1827 17.7921C68.1779 15.8246 70.1068 14.5242 72.7705 14.5193C75.4341 14.5242 77.3775 15.8246 77.3775 17.7921C77.3775 18.8702 76.7974 19.7403 75.8402 20.3108V23.4675H78.4459ZM69.6717 17.7921C69.6717 19.0587 70.9189 19.866 72.7705 19.866C74.6075 19.866 75.8837 19.0587 75.8837 17.7921C75.8837 16.5062 74.6075 15.7279 72.7705 15.7327C70.9189 15.7279 69.6717 16.5062 69.6717 17.7921ZM71.2622 23.4675H74.3029V20.8957C73.8292 20.9972 73.3167 21.0504 72.7705 21.0504C72.2339 21.0504 71.7311 20.9972 71.2622 20.8957V23.4675ZM81.7955 15.0994L81.6408 22.0946H80.0938L79.9343 15.0994H81.7955ZM79.8086 24.0477C79.7989 23.4675 80.2824 22.9986 80.8673 22.9986C81.4377 22.9986 81.9212 23.4675 81.926 24.0477C81.9212 24.6326 81.4377 25.1064 80.8673 25.1064C80.2824 25.1064 79.7989 24.6326 79.8086 24.0477ZM97.0001 13.8619V26.2376H95.4725V19.4744H93.0989V18.232H95.4725V13.8619H97.0001ZM86.4663 22.6699C88.4435 21.7417 89.6134 19.4019 89.6182 17.1443V16.3128H86.9739V15.0801H93.824V16.3128H91.17V17.1443C91.1652 19.2762 92.3254 21.5338 94.3123 22.4088L93.4131 23.6126C91.9773 22.9309 90.9525 21.5628 90.411 19.9289C89.8696 21.674 88.8157 23.1436 87.3751 23.8688L86.4663 22.6699ZM108.742 17.3522V18.5559H100.176V14.3066H101.689V17.3522H108.742ZM98.7157 21.1954V19.9965H110.013V21.1954H98.7157ZM100.074 25.9282V22.288H101.592V24.6954H108.819V25.9282H100.074ZM125.435 20.8377V22.0656H122.776V26.2617H121.254V22.0656H118.377V26.2617H116.85V22.0656H114.138V20.8377H125.435ZM115.515 19.4019V14.4807H124.048V19.4019H115.515ZM117.004 18.1837H122.535V15.6941H117.004V18.1837ZM135.93 13.8619V18.5463H137.835V19.7935H135.93V26.2376H134.407V13.8619H135.93ZM126.759 23.2065V15.0269H132.541V16.2597H128.272V21.9448C130.201 21.9302 131.719 21.8432 133.421 21.5387L133.595 22.8198C131.676 23.1533 130.013 23.2113 127.775 23.2065H126.759ZM148.03 13.8619V18.6091H149.934V19.8709H148.03V26.2376H146.526V13.8619H148.03ZM138.844 16.1678V14.9351H144.525V19.5953H140.377V22.0559C142.33 22.0463 143.853 21.9641 145.579 21.6644L145.719 22.8874C143.814 23.2355 142.127 23.3177 139.884 23.3225H138.869V18.3819H143.007V16.1678H138.844ZM160.535 14.9883V16.1775C160.53 17.7148 160.53 19.4358 160.052 22.0173L158.514 21.8529C158.998 19.4551 159.003 17.7003 159.008 16.2113H151.626V14.9883H160.535ZM150.451 24.6229V23.3757H154.608V19.078H156.117V23.3757H161.71V24.6229H150.451ZM171.901 15.8246V17.0477H165.849V15.8246H168.14V14.2148H169.644V15.8246H171.901ZM166.197 20.5767C166.192 18.8895 167.328 17.6954 168.894 17.6906C170.465 17.6954 171.587 18.8895 171.592 20.5767C171.587 22.2831 170.465 23.482 168.894 23.482C167.328 23.482 166.192 22.2831 166.197 20.5767ZM167.536 20.5767C167.531 21.5725 168.092 22.1913 168.894 22.1865C169.682 22.1913 170.248 21.5725 170.253 20.5767C170.248 19.6001 169.682 18.9572 168.894 18.9572C168.092 18.9572 167.531 19.6001 167.536 20.5767ZM172.414 25.6526V14.1229H173.84V18.9475H175.053V13.8619H176.499V26.2086H175.053V20.1754H173.84V25.6526H172.414ZM189.27 23.4675V24.7148H177.972V23.4675H180.583V20.3398C179.597 19.7742 179.002 18.8895 179.007 17.7921C179.002 15.8246 180.931 14.5242 183.595 14.5193C186.258 14.5242 188.202 15.8246 188.202 17.7921C188.202 18.8702 187.622 19.7403 186.664 20.3108V23.4675H189.27ZM180.496 17.7921C180.496 19.0587 181.743 19.866 183.595 19.866C185.432 19.866 186.708 19.0587 186.708 17.7921C186.708 16.5062 185.432 15.7279 183.595 15.7327C181.743 15.7279 180.496 16.5062 180.496 17.7921ZM182.086 23.4675H185.127V20.8957C184.653 20.9972 184.141 21.0504 183.595 21.0504C183.058 21.0504 182.555 20.9972 182.086 20.8957V23.4675Z" fill="white"/>
<path d="M104.866 43.5C104.481 44.1667 103.519 44.1667 103.134 43.5L98.8038 36C98.4189 35.3333 98.9001 34.5 99.6699 34.5L108.33 34.5C109.1 34.5 109.581 35.3333 109.196 36L104.866 43.5Z" fill="#7850F8"/>
</g>
<rect x="113" y="24" width="26" height="4" rx="2" fill="#FAFAFA" fill-opacity="0.2"/>
<defs>
<filter id="filter0_d_1035_3860" x="0.7" y="0.7" width="206.6" height="55.6" filterUnits="userSpaceOnUse" color-interpolation-filters="sRGB">
<feFlood flood-opacity="0" result="BackgroundImageFix"/>
<feColorMatrix in="SourceAlpha" type="matrix" values="0 0 0 0 0 0 0 0 0 0 0 0 0 0 0 0 0 0 127 0" result="hardAlpha"/>
<feOffset dy="4"/>
<feGaussianBlur stdDeviation="3.65"/>
<feComposite in2="hardAlpha" operator="out"/>
<feColorMatrix type="matrix" values="0 0 0 0 0 0 0 0 0 0 0 0 0 0 0 0 0 0 0.15 0"/>
<feBlend mode="normal" in2="BackgroundImageFix" result="effect1_dropShadow_1035_3860"/>
<feBlend mode="normal" in="SourceGraphic" in2="effect1_dropShadow_1035_3860" result="shape"/>
</filter>
<linearGradient id="paint0_linear_1035_3860" x1="98.2049" y1="85.3828" x2="122.411" y2="136.01" gradientUnits="userSpaceOnUse">
<stop stop-color="#504E4E"/>
<stop offset="1" stop-color="#240D0D"/>
</linearGradient>
<linearGradient id="paint1_linear_1035_3860" x1="129.956" y1="99.9558" x2="184.544" y2="179.956" gradientUnits="userSpaceOnUse">
<stop stop-color="#CEBCE4"/>
<stop offset="1" stop-color="#7850F8"/>
</linearGradient>
<linearGradient id="paint2_linear_1035_3860" x1="173.973" y1="100.457" x2="203.576" y2="163.206" gradientUnits="userSpaceOnUse">
<stop stop-color="#504E4E"/>
<stop offset="1" stop-color="#240D0D"/>
</linearGradient>
<linearGradient id="paint3_linear_1035_3860" x1="202.051" y1="94.2348" x2="115.654" y2="80.4446" gradientUnits="userSpaceOnUse">
<stop/>
<stop offset="0.485" stop-color="#7A7A7A"/>
<stop offset="1" stop-color="#222222"/>
</linearGradient>
<linearGradient id="paint4_linear_1035_3860" x1="185.004" y1="108.215" x2="204.554" y2="151.147" gradientUnits="userSpaceOnUse">
<stop stop-color="#B8B0B0"/>
<stop offset="1" stop-color="#EDEDED"/>
</linearGradient>
</defs>
</svg>
