<svg width="21" height="21" viewBox="0 0 22 21" fill="none" xmlns="http://www.w3.org/2000/svg">
<rect width="20.8958" height="20.8958" transform="translate(0.53125 0.0522461)" fill="white"/>
<path fill-rule="evenodd" clip-rule="evenodd" d="M21.4271 10.797C21.4271 10.0549 21.3619 9.3413 21.2408 8.65625H11.5938V12.7047H17.1064C16.8689 14.013 16.1473 15.1214 15.0624 15.8636V18.4896H18.3728C20.3097 16.6675 21.4271 13.9844 21.4271 10.797Z" fill="#4285F4"/>
<path fill-rule="evenodd" clip-rule="evenodd" d="M10.9408 20.9479C13.7145 20.9479 16.04 19.9967 17.7397 18.3744L14.4196 15.7091C13.4997 16.3465 12.323 16.7231 10.9408 16.7231C8.26517 16.7231 6.00044 14.8545 5.19261 12.3438H1.7605V15.0959C3.45087 18.5675 6.92501 20.9479 10.9408 20.9479Z" fill="#34A853"/>
<path fill-rule="evenodd" clip-rule="evenodd" d="M5.44792 13.195C5.22466 12.5382 5.09781 11.8365 5.09781 11.1149C5.09781 10.3933 5.22466 9.69166 5.44792 9.03478V6.19824H1.71856C0.962536 7.67623 0.53125 9.34829 0.53125 11.1149C0.53125 12.8815 0.962536 14.5536 1.71856 16.0316L5.44792 13.195Z" fill="#FBBC05"/>
<path fill-rule="evenodd" clip-rule="evenodd" d="M10.8981 4.27708C12.3993 4.27708 13.7472 4.81303 14.8069 5.86561L17.7397 2.81891C15.9689 1.10483 13.6542 0.0522461 10.8981 0.0522461C6.90097 0.0522461 3.443 2.43264 1.7605 5.90424L5.17664 8.65641C5.98071 6.14566 8.2349 4.27708 10.8981 4.27708Z" fill="#EA4335"/>
</svg>
