<svg width="144" height="154" viewBox="0 0 144 154" fill="none" xmlns="http://www.w3.org/2000/svg">
<path d="M102.195 93.0778C104.917 88.3556 111.721 88.3556 114.443 93.0778L143.021 142.661C145.743 147.383 142.341 153.286 136.898 153.286H79.7408C74.2973 153.286 70.8951 147.383 73.6169 142.661L102.195 93.0778Z" fill="white"/>
<path fill-rule="evenodd" clip-rule="evenodd" d="M139.843 46.0301V22.1997C139.843 17.7987 136.275 14.231 131.874 14.231L108.044 14.231L84.2136 14.231C79.8126 14.231 76.2449 17.7987 76.2449 22.1997L76.2449 46.0301C76.2449 46.0301 76.2449 46.0301 76.2449 46.0301C76.2449 46.0301 76.2449 46.0301 76.2449 46.0301C76.2449 63.5923 90.4819 77.8292 108.044 77.8292C125.606 77.8292 139.843 63.5922 139.843 46.0301Z" fill="white"/>
<path fill-rule="evenodd" clip-rule="evenodd" d="M32.7784 89.6879L8.94801 89.6879C4.54698 89.6879 0.979248 93.2556 0.979248 97.6567L0.979248 121.477C0.979247 121.481 0.979247 121.484 0.979247 121.487C0.979247 121.49 0.979247 121.493 0.979248 121.496L0.979248 145.317C0.979248 149.718 4.54698 153.286 8.94801 153.286L32.7783 153.286C32.7784 153.286 32.7784 153.286 32.7784 153.286C32.7784 153.286 32.7784 153.286 32.7784 153.286C50.3405 153.286 64.5775 139.049 64.5775 121.487C64.5775 103.925 50.3405 89.6879 32.7784 89.6879Z" fill="white"/>
<path fill-rule="evenodd" clip-rule="evenodd" d="M38.949 31.3636C35.7605 35.2655 29.7962 35.2655 26.6078 31.3636L15.1186 17.3034C10.3784 11.5025 0.979248 14.8543 0.979248 22.3457V69.8612C0.979248 74.2622 4.54699 77.83 8.94801 77.83H56.6087C61.0097 77.83 64.5775 74.2622 64.5775 69.8612L64.5775 22.3457C64.5775 14.8543 55.1783 11.5025 50.4381 17.3034L38.949 31.3636Z" fill="white"/>
</svg>
