<svg width="75" height="20" viewBox="0 0 75 20" fill="none" xmlns="http://www.w3.org/2000/svg">
<path d="M63.6451 3.93989C64.3445 2.72642 66.0931 2.72642 66.7925 3.93989L74.1363 16.6814C74.8357 17.8948 73.9614 19.4117 72.5626 19.4117H57.875C56.4762 19.4117 55.6019 17.8948 56.3013 16.6814L63.6451 3.93989Z" fill="white"/>
<path fill-rule="evenodd" clip-rule="evenodd" d="M35.6837 11.8282V5.70447C35.6837 4.57354 34.7669 3.65674 33.6359 3.65674H27.5123H21.3886C20.2576 3.65674 19.3408 4.57354 19.3408 5.70447V11.8282C19.3408 11.8282 19.3408 11.8282 19.3408 11.8282V11.8282C19.3408 11.8282 19.3408 11.8282 19.3408 11.8282C19.3408 16.3411 22.9993 19.9996 27.5123 19.9996C32.0252 19.9996 35.6837 16.3411 35.6837 11.8282Z" fill="white"/>
<path fill-rule="evenodd" clip-rule="evenodd" d="M46.9546 3.06916C46.9546 3.06911 46.9546 3.06907 46.9545 3.06907L40.8309 3.06907C39.7 3.06907 38.7832 3.98587 38.7832 5.11681L38.7832 11.2407L38.7832 17.3642C38.7832 18.4951 39.7 19.4119 40.8309 19.4119L46.9005 19.4119C46.9185 19.4121 46.9366 19.4121 46.9546 19.4121C51.4676 19.4121 55.1261 15.7536 55.1261 11.2407C55.1261 6.72776 51.4676 3.06931 46.9547 3.06926C46.9547 3.06926 46.9546 3.06921 46.9546 3.06916V3.06916Z" fill="white"/>
<path fill-rule="evenodd" clip-rule="evenodd" d="M9.75711 8.0595C8.93776 9.06219 7.40511 9.06219 6.58577 8.0595L3.6334 4.44647C2.41531 2.95579 0 3.81712 0 5.74219V17.9523C0 19.0832 0.916803 20 2.04774 20H14.2951C15.4261 20 16.3429 19.0832 16.3429 17.9523L16.3429 5.74219C16.3429 3.81712 13.9276 2.95579 12.7095 4.44647L9.75711 8.0595Z" fill="white"/>
</svg>
