<svg width="19" height="18" viewBox="0 0 19 18" fill="none" xmlns="http://www.w3.org/2000/svg">
<path d="M9.8125 2C8.36623 2 6.95243 2.42887 5.7499 3.23238C4.54736 4.03589 3.6101 5.17794 3.05663 6.51413C2.50317 7.85031 2.35836 9.32061 2.64051 10.7391C2.92267 12.1576 3.61911 13.4605 4.64178 14.4832C5.66446 15.5059 6.96742 16.2023 8.38591 16.4845C9.80439 16.7666 11.2747 16.6218 12.6109 16.0684C13.9471 15.5149 15.0891 14.5776 15.8926 13.3751C16.6961 12.1726 17.125 10.7588 17.125 9.3125C17.123 7.37373 16.3519 5.51496 14.981 4.14404C13.61 2.77313 11.7513 2.00205 9.8125 2ZM9.8125 15.5C8.58873 15.5 7.39244 15.1371 6.37491 14.4572C5.35738 13.7773 4.56432 12.811 4.096 11.6804C3.62768 10.5497 3.50515 9.30564 3.74389 8.10538C3.98264 6.90512 4.57194 5.80261 5.43728 4.93728C6.30262 4.07194 7.40512 3.48264 8.60538 3.24389C9.80564 3.00514 11.0497 3.12768 12.1804 3.596C13.311 4.06431 14.2773 4.85738 14.9572 5.87491C15.6371 6.89244 16 8.08873 16 9.3125C15.9981 10.953 15.3456 12.5257 14.1857 13.6857C13.0257 14.8456 11.453 15.4981 9.8125 15.5ZM10.9375 12.6875C10.9375 12.8367 10.8782 12.9798 10.7728 13.0852C10.6673 13.1907 10.5242 13.25 10.375 13.25C10.0766 13.25 9.79049 13.1315 9.57951 12.9205C9.36853 12.7095 9.25 12.4234 9.25 12.125V9.3125C9.10082 9.3125 8.95775 9.25324 8.85226 9.14775C8.74677 9.04226 8.6875 8.89918 8.6875 8.75C8.6875 8.60082 8.74677 8.45774 8.85226 8.35225C8.95775 8.24676 9.10082 8.1875 9.25 8.1875C9.54837 8.1875 9.83452 8.30603 10.0455 8.517C10.2565 8.72798 10.375 9.01413 10.375 9.3125V12.125C10.5242 12.125 10.6673 12.1843 10.7728 12.2898C10.8782 12.3952 10.9375 12.5383 10.9375 12.6875ZM8.6875 6.21875C8.6875 6.05187 8.73699 5.88874 8.8297 5.74999C8.92241 5.61123 9.05419 5.50309 9.20836 5.43923C9.36254 5.37537 9.53219 5.35866 9.69586 5.39121C9.85953 5.42377 10.0099 5.50413 10.1279 5.62213C10.2459 5.74013 10.3262 5.89047 10.3588 6.05414C10.3913 6.21781 10.3746 6.38746 10.3108 6.54164C10.2469 6.69581 10.1388 6.82759 10 6.9203C9.86126 7.01302 9.69813 7.0625 9.53125 7.0625C9.30748 7.0625 9.09287 6.97361 8.93463 6.81537C8.7764 6.65714 8.6875 6.44253 8.6875 6.21875Z" fill="#9691A5"/>
</svg>
