<svg width="154" height="156" viewBox="0 0 154 156" fill="none" xmlns="http://www.w3.org/2000/svg">
<ellipse cx="33.3103" cy="57.1091" rx="24" ry="30" transform="rotate(20.5713 33.3103 57.1091)" fill="url(#paint0_linear_2990_331)"/>
<circle cx="73.4843" cy="84.7219" r="64" transform="rotate(6.44859 73.4843 84.7219)" fill="url(#paint1_linear_2990_331)"/>
<circle cx="47.87" cy="57.2125" r="3.35897" transform="rotate(14.8546 47.87 57.2125)" fill="#1D1D1D"/>
<circle cx="60.0457" cy="60.442" r="3.35897" transform="rotate(14.8546 60.0457 60.442)" fill="#1D1D1D"/>
<path d="M45.1895 66.0065C45.1895 66.0065 46.6394 68.5033 51.0795 69.6809C55.5195 70.8586 58.0163 69.4086 58.0163 69.4086" stroke="#1D1D1D" stroke-width="3" stroke-linecap="round"/>
<ellipse cx="112.855" cy="77.4864" rx="30" ry="37" transform="rotate(20 112.855 77.4864)" fill="url(#paint2_linear_2990_331)"/>
<path fill-rule="evenodd" clip-rule="evenodd" d="M86.6946 17.5416C68.414 13.0205 55.5522 18.8729 48.068 25.3656C44.8479 26.7411 42.1596 27.9666 37.1623 31.2229C34.8202 32.7491 30.6659 36.2631 30.6659 36.2631C30.6659 36.2631 31.1569 30.9136 32.4879 28.4974C38.2971 17.9523 57.5564 0.06741 89.1295 7.87597C107.225 12.3512 117.43 21.3387 122.911 31.2938C128.269 41.0275 128.783 51.1075 128.732 57.3111C128.71 60.0635 126.42 62.2664 123.617 62.2314C120.814 62.1964 118.56 59.9367 118.582 57.1843C118.629 51.5123 118.107 43.487 113.987 36.0021C109.988 28.7387 102.273 21.3945 86.6946 17.5416Z" fill="url(#paint3_linear_2990_331)"/>
<ellipse cx="118.223" cy="76.1542" rx="21" ry="25" transform="rotate(20 118.223 76.1542)" fill="url(#paint4_linear_2990_331)"/>
<defs>
<linearGradient id="paint0_linear_2990_331" x1="18.2039" y1="34.3859" x2="42.4103" y2="85.013" gradientUnits="userSpaceOnUse">
<stop stop-color="#504E4E"/>
<stop offset="1" stop-color="#240D0D"/>
</linearGradient>
<linearGradient id="paint1_linear_2990_331" x1="49.9549" y1="48.9572" x2="104.543" y2="128.957" gradientUnits="userSpaceOnUse">
<stop stop-color="#CEBCE4"/>
<stop offset="1" stop-color="#7850F8"/>
</linearGradient>
<linearGradient id="paint2_linear_2990_331" x1="93.9724" y1="49.4612" x2="123.575" y2="112.211" gradientUnits="userSpaceOnUse">
<stop stop-color="#504E4E"/>
<stop offset="1" stop-color="#240D0D"/>
</linearGradient>
<linearGradient id="paint3_linear_2990_331" x1="122.05" y1="43.2377" x2="35.6531" y2="29.4475" gradientUnits="userSpaceOnUse">
<stop/>
<stop offset="0.485" stop-color="#7A7A7A"/>
<stop offset="1" stop-color="#222222"/>
</linearGradient>
<linearGradient id="paint4_linear_2990_331" x1="105.005" y1="57.2182" x2="124.555" y2="100.15" gradientUnits="userSpaceOnUse">
<stop stop-color="#B8B0B0"/>
<stop offset="1" stop-color="#EDEDED"/>
</linearGradient>
</defs>
</svg>
