<svg width="12" height="12" viewBox="0 0 12 12" fill="none" xmlns="http://www.w3.org/2000/svg">
<path d="M10.875 2.25H7.5C7.20892 2.25 6.92183 2.31777 6.66147 2.44795C6.40112 2.57813 6.17465 2.76713 6 3C5.82535 2.76713 5.59888 2.57813 5.33853 2.44795C5.07817 2.31777 4.79108 2.25 4.5 2.25H1.125C1.02554 2.25 0.930161 2.28951 0.859835 2.35984C0.789509 2.43016 0.75 2.52554 0.75 2.625V9.375C0.75 9.47446 0.789509 9.56984 0.859835 9.64017C0.930161 9.71049 1.02554 9.75 1.125 9.75H4.5C4.79837 9.75 5.08452 9.86853 5.2955 10.0795C5.50647 10.2905 5.625 10.5766 5.625 10.875C5.625 10.9745 5.66451 11.0698 5.73484 11.1402C5.80516 11.2105 5.90054 11.25 6 11.25C6.09946 11.25 6.19484 11.2105 6.26517 11.1402C6.33549 11.0698 6.375 10.9745 6.375 10.875C6.375 10.5766 6.49353 10.2905 6.7045 10.0795C6.91548 9.86853 7.20163 9.75 7.5 9.75H10.875C10.9745 9.75 11.0698 9.71049 11.1402 9.64017C11.2105 9.56984 11.25 9.47446 11.25 9.375V2.625C11.25 2.52554 11.2105 2.43016 11.1402 2.35984C11.0698 2.28951 10.9745 2.25 10.875 2.25ZM4.5 9H1.5V3H4.5C4.79837 3 5.08452 3.11853 5.2955 3.3295C5.50647 3.54048 5.625 3.82663 5.625 4.125V9.375C5.30075 9.131 4.9058 8.99935 4.5 9ZM10.5 9H7.5C7.0942 8.99935 6.69925 9.131 6.375 9.375V4.125C6.375 3.82663 6.49353 3.54048 6.7045 3.3295C6.91548 3.11853 7.20163 3 7.5 3H10.5V9Z" fill="#9878FF"/>
</svg>
