<svg width="13" height="12" viewBox="0 0 13 12" fill="none" xmlns="http://www.w3.org/2000/svg">
<g clip-path="url(#clip0_3155_15422)">
<path d="M5.72552 2.46703C5.63744 2.37919 5.52866 2.31494 5.40921 2.28022C5.28976 2.24551 5.16349 2.24143 5.04205 2.26839C4.92061 2.29534 4.80791 2.35244 4.71436 2.43443C4.62081 2.51641 4.54942 2.62065 4.50677 2.7375L2.0463 9.50531C2.00588 9.61692 1.99282 9.73659 2.00823 9.85428C2.02363 9.97198 2.06704 10.0843 2.13482 10.1817C2.2026 10.2791 2.29277 10.3589 2.39775 10.4143C2.50274 10.4697 2.61948 10.4991 2.73817 10.5C2.82557 10.4994 2.91218 10.4835 2.99411 10.4531L9.76146 7.99219C9.87835 7.94959 9.98262 7.87824 10.0647 7.78471C10.1467 7.69118 10.2039 7.57849 10.2309 7.45705C10.2579 7.3356 10.2538 7.20931 10.2191 7.08984C10.1845 6.97036 10.1202 6.86155 10.0324 6.77344L5.72552 2.46703ZM5.33505 8.805L3.69442 7.16437L4.3113 5.46703L7.03239 8.18812L5.33505 8.805ZM2.75692 9.7425L3.41317 7.94203L4.55927 9.08813L2.75692 9.7425ZM7.81192 7.905L4.59442 4.6875L5.2038 3.00609L9.48958 7.29187L7.81192 7.905ZM7.99942 3.375C8.00647 3.12149 8.06785 2.87244 8.17942 2.64469C8.42786 2.14828 8.89661 1.875 9.49942 1.875C9.81349 1.875 10.015 1.76766 10.1393 1.53703C10.2047 1.40801 10.2422 1.26666 10.2494 1.12219C10.2498 1.02273 10.2897 0.927497 10.3603 0.857434C10.4308 0.787372 10.5264 0.748221 10.6258 0.748594C10.7253 0.748967 10.8205 0.788833 10.8906 0.859423C10.9606 0.930013 10.9998 1.02554 10.9994 1.125C10.9994 1.72781 10.6 2.625 9.49942 2.625C9.18536 2.625 8.9838 2.73234 8.85958 2.96297C8.79417 3.09199 8.75664 3.23334 8.74942 3.37781C8.74924 3.42706 8.73936 3.47579 8.72034 3.52121C8.70132 3.56664 8.67355 3.60787 8.63859 3.64257C8.60364 3.67726 8.5622 3.70472 8.51663 3.7234C8.47106 3.74207 8.42226 3.75159 8.37302 3.75141C8.32377 3.75122 8.27504 3.74134 8.22962 3.72232C8.18419 3.70331 8.14296 3.67553 8.10826 3.64058C8.07357 3.60562 8.04611 3.56418 8.02743 3.51861C8.00876 3.47305 7.99924 3.42425 7.99942 3.375ZM6.87442 1.875V0.75C6.87442 0.650544 6.91393 0.555161 6.98426 0.484835C7.05459 0.414509 7.14997 0.375 7.24942 0.375C7.34888 0.375 7.44426 0.414509 7.51459 0.484835C7.58492 0.555161 7.62442 0.650544 7.62442 0.75V1.875C7.62442 1.97446 7.58492 2.06984 7.51459 2.14016C7.44426 2.21049 7.34888 2.25 7.24942 2.25C7.14997 2.25 7.05459 2.21049 6.98426 2.14016C6.91393 2.06984 6.87442 1.97446 6.87442 1.875ZM11.6397 5.73469C11.6745 5.76953 11.7022 5.81089 11.721 5.8564C11.7398 5.90191 11.7495 5.95068 11.7495 5.99993C11.7494 6.04918 11.7397 6.09795 11.7209 6.14344C11.702 6.18894 11.6743 6.23027 11.6395 6.26508C11.6047 6.29989 11.5633 6.3275 11.5178 6.34632C11.4723 6.36515 11.4235 6.37483 11.3743 6.37481C11.325 6.37479 11.2762 6.36506 11.2307 6.3462C11.1853 6.32733 11.1439 6.29969 11.1091 6.26484L10.3591 5.51484C10.2887 5.44448 10.2492 5.34904 10.2492 5.24953C10.2492 5.15002 10.2887 5.05458 10.3591 4.98422C10.4295 4.91385 10.5249 4.87432 10.6244 4.87432C10.7239 4.87432 10.8194 4.91385 10.8897 4.98422L11.6397 5.73469ZM11.868 3.73078L10.743 4.10578C10.6487 4.13723 10.5457 4.12992 10.4567 4.08543C10.3677 4.04095 10.3001 3.96295 10.2686 3.86859C10.2372 3.77423 10.2445 3.67125 10.289 3.58228C10.3335 3.49332 10.4115 3.42567 10.5058 3.39422L11.6308 3.01922C11.7252 2.98777 11.8282 2.99508 11.9171 3.03957C12.0061 3.08405 12.0738 3.16205 12.1052 3.25641C12.1367 3.35077 12.1293 3.45375 12.0849 3.54272C12.0404 3.63168 11.9624 3.69933 11.868 3.73078Z" fill="#9878FF"/>
</g>
<defs>
<clipPath id="clip0_3155_15422">
<rect width="12" height="12" fill="white" transform="translate(0.5)"/>
</clipPath>
</defs>
</svg>
