<svg width="24" height="24" viewBox="0 0 24 24" fill="none" xmlns="http://www.w3.org/2000/svg">
<path d="M5 9.36336C5 9.12367 5 9.00383 5.01023 8.90288C5.10892 7.92929 5.89689 7.1591 6.89295 7.06263C6.99622 7.05263 7.12545 7.05263 7.38391 7.05263C7.4835 7.05263 7.53329 7.05263 7.57557 7.05013C8.11543 7.01817 8.58817 6.68513 8.7899 6.19463C8.8057 6.15622 8.82047 6.11292 8.85 6.02632C8.87953 5.93971 8.8943 5.89641 8.9101 5.858C9.11183 5.36751 9.58457 5.03446 10.1244 5.0025C10.1667 5 10.2134 5 10.3068 5H13.6932C13.7866 5 13.8333 5 13.8756 5.0025C14.4154 5.03446 14.8882 5.36751 15.0899 5.858C15.1057 5.89641 15.1205 5.93971 15.15 6.02632C15.1795 6.11292 15.1943 6.15622 15.2101 6.19463C15.4118 6.68513 15.8846 7.01817 16.4244 7.05013C16.4667 7.05263 16.5165 7.05263 16.6161 7.05263C16.8745 7.05263 17.0038 7.05263 17.1071 7.06263C18.1031 7.1591 18.8911 7.92929 18.9898 8.90288C19 9.00383 19 9.12367 19 9.36336V14.7158C19 15.8654 19 16.4402 18.7711 16.8792C18.5698 17.2655 18.2485 17.5795 17.8534 17.7763C17.4042 18 16.8161 18 15.64 18H8.36C7.18389 18 6.59583 18 6.14662 17.7763C5.75148 17.5795 5.43022 17.2655 5.22889 16.8792C5 16.4402 5 15.8654 5 14.7158V9.36336Z" stroke="#1D1D1D" stroke-linecap="round" stroke-linejoin="round"/>
<path d="M12 14.9211C13.5464 14.9211 14.8 13.6957 14.8 12.1842C14.8 10.6727 13.5464 9.44737 12 9.44737C10.4536 9.44737 9.2 10.6727 9.2 12.1842C9.2 13.6957 10.4536 14.9211 12 14.9211Z" stroke="#1D1D1D" stroke-linecap="round" stroke-linejoin="round"/>
</svg>
