<svg width="12" height="12" viewBox="0 0 12 12" fill="none" xmlns="http://www.w3.org/2000/svg">
<path d="M6 1.125C5.03582 1.125 4.09329 1.41091 3.2916 1.94659C2.48991 2.48226 1.86507 3.24363 1.49609 4.13442C1.12711 5.02521 1.03057 6.00541 1.21867 6.95107C1.40678 7.89672 1.87108 8.76537 2.55286 9.44715C3.23464 10.1289 4.10328 10.5932 5.04894 10.7813C5.99459 10.9694 6.97479 10.8729 7.86558 10.5039C8.75637 10.1349 9.51775 9.51009 10.0534 8.70841C10.5891 7.90672 10.875 6.96418 10.875 6C10.8736 4.70749 10.3596 3.46831 9.44564 2.55436C8.5317 1.64042 7.29251 1.12636 6 1.125ZM6 10.125C5.18415 10.125 4.38663 9.88307 3.70828 9.42981C3.02992 8.97655 2.50121 8.33231 2.189 7.57857C1.87679 6.82482 1.7951 5.99542 1.95426 5.19525C2.11343 4.39508 2.5063 3.66008 3.08319 3.08318C3.66008 2.50629 4.39508 2.11342 5.19525 1.95426C5.99543 1.7951 6.82483 1.87679 7.57857 2.189C8.33232 2.50121 8.97655 3.02992 9.42982 3.70827C9.88308 4.38663 10.125 5.18415 10.125 6C10.1238 7.09364 9.68877 8.14213 8.91545 8.91545C8.14213 9.68876 7.09364 10.1238 6 10.125ZM3.75 5.0625C3.75 4.95125 3.78299 4.84249 3.8448 4.74999C3.90661 4.65749 3.99446 4.58539 4.09724 4.54282C4.20003 4.50024 4.31313 4.4891 4.42224 4.51081C4.53136 4.53251 4.63158 4.58609 4.71025 4.66475C4.78892 4.74342 4.84249 4.84365 4.86419 4.95276C4.8859 5.06188 4.87476 5.17498 4.83218 5.27776C4.78961 5.38054 4.71751 5.46839 4.62501 5.5302C4.53251 5.59201 4.42375 5.625 4.3125 5.625C4.16332 5.625 4.02024 5.56574 3.91475 5.46025C3.80927 5.35476 3.75 5.21168 3.75 5.0625ZM8.25 5.0625C8.25 5.17375 8.21701 5.28251 8.1552 5.37501C8.0934 5.46751 8.00555 5.53961 7.90276 5.58218C7.79998 5.62476 7.68688 5.6359 7.57776 5.61419C7.46865 5.59249 7.36842 5.53892 7.28976 5.46025C7.21109 5.38158 7.15752 5.28135 7.13581 5.17224C7.11411 5.06312 7.12525 4.95002 7.16782 4.84724C7.21039 4.74446 7.28249 4.65661 7.37499 4.5948C7.4675 4.53299 7.57625 4.5 7.6875 4.5C7.83669 4.5 7.97976 4.55926 8.08525 4.66475C8.19074 4.77024 8.25 4.91332 8.25 5.0625ZM8.19985 7.3125C7.7175 8.14641 6.91547 8.625 6 8.625C5.08453 8.625 4.28297 8.14688 3.80063 7.3125C3.77349 7.26982 3.75528 7.22209 3.74707 7.17218C3.73886 7.12228 3.74083 7.07123 3.75286 7.02211C3.7649 6.97298 3.78674 6.9268 3.81708 6.88634C3.84743 6.84588 3.88564 6.81197 3.92943 6.78666C3.97322 6.76135 4.02167 6.74516 4.07188 6.73906C4.12208 6.73296 4.17301 6.73708 4.22158 6.75117C4.27015 6.76526 4.31537 6.78903 4.35452 6.82106C4.39367 6.85308 4.42593 6.89269 4.44938 6.9375C4.79953 7.54266 5.34985 7.875 6 7.875C6.65016 7.875 7.20047 7.54219 7.55016 6.9375C7.59989 6.85135 7.6818 6.78848 7.77789 6.76272C7.87397 6.73696 7.97635 6.75043 8.0625 6.80016C8.14866 6.84988 8.21153 6.9318 8.23728 7.02788C8.26304 7.12397 8.24957 7.22635 8.19985 7.3125Z" fill="#9878FF"/>
</svg>
