<svg width="26" height="25" viewBox="0 0 26 25" fill="none" xmlns="http://www.w3.org/2000/svg">
<circle cx="13" cy="12.5" r="12.5" fill="#7850F8"/>
<circle cx="13" cy="12.5" r="11.9565" stroke="#FAFAFA" stroke-opacity="0.2" stroke-width="1.08696"/>
<path d="M19.4508 9.00436C19.403 8.855 19.3116 8.72333 19.1884 8.62622C19.0653 8.52912 18.9159 8.47099 18.7595 8.45929L16.5898 8.28779L15.7552 6.31076C15.6942 6.16759 15.5925 6.0455 15.4627 5.95969C15.3329 5.87388 15.1807 5.82812 15.0251 5.82812C14.8695 5.82812 14.7173 5.87388 14.5875 5.95969C14.4577 6.0455 14.356 6.16759 14.295 6.31076L13.4604 8.28779L11.2907 8.45929C11.1349 8.47077 10.9861 8.52839 10.8631 8.62481C10.7402 8.72122 10.6488 8.85207 10.6005 9.00065C10.5523 9.14923 10.5493 9.30882 10.5921 9.45907C10.6349 9.60932 10.7215 9.74342 10.8408 9.84427L12.4889 11.2351L11.9862 13.3138C11.9496 13.4643 11.9585 13.6223 12.0119 13.7678C12.0652 13.9132 12.1605 14.0395 12.2857 14.1308C12.4121 14.2239 12.5632 14.2775 12.7201 14.2847C12.8769 14.2919 13.0323 14.2525 13.1667 14.1713L15.0251 13.0524L16.8841 14.1719C17.0186 14.2528 17.174 14.2922 17.3307 14.2849C17.4875 14.2777 17.6386 14.2243 17.7651 14.1314C17.8901 14.04 17.9852 13.9136 18.0384 13.7682C18.0916 13.6228 18.1006 13.4648 18.0641 13.3144L17.5613 11.2357L19.2094 9.84486C19.3288 9.74472 19.4155 9.61123 19.4585 9.46148C19.5015 9.31174 19.4988 9.15257 19.4508 9.00436ZM16.7331 10.703C16.6665 10.7593 16.6168 10.8331 16.5897 10.9161C16.5626 10.9991 16.5592 11.088 16.5798 11.1729L17.0662 13.1822L15.2677 12.1009C15.1945 12.0569 15.1108 12.0336 15.0254 12.0336C14.94 12.0336 14.8563 12.0569 14.7831 12.1009L12.9847 13.1834L13.471 11.1729C13.4915 11.088 13.488 10.999 13.4608 10.916C13.4337 10.833 13.3839 10.7593 13.3171 10.703L11.7359 9.36734L13.8222 9.20229C13.9081 9.19548 13.9904 9.1652 14.0602 9.11475C14.1301 9.0643 14.1847 8.99564 14.2181 8.91625L15.0251 6.99737L15.8351 8.91625C15.8685 8.99564 15.9231 9.0643 15.9929 9.11475C16.0627 9.1652 16.1451 9.19548 16.2309 9.20229L18.3178 9.36734L16.7331 10.703ZM10.5659 12.1232L7.13462 15.558C7.04645 15.6462 6.92686 15.6957 6.80217 15.6957C6.67748 15.6957 6.5579 15.6462 6.46973 15.558C6.38156 15.4699 6.33203 15.3503 6.33203 15.2256C6.33203 15.1009 6.38156 14.9813 6.46973 14.8932L9.90281 11.4601C9.99098 11.3719 10.1106 11.3224 10.2353 11.3224C10.3599 11.3224 10.4795 11.3719 10.5677 11.4601C10.6559 11.5482 10.7054 11.6678 10.7054 11.7925C10.7054 11.9172 10.6559 12.0368 10.5677 12.125L10.5659 12.1232ZM11.2009 15.0523C11.2889 15.1404 11.3384 15.2599 11.3384 15.3845C11.3384 15.509 11.2889 15.6285 11.2009 15.7166L8.07438 18.8472C8.03072 18.8909 7.9789 18.9255 7.92186 18.9491C7.86481 18.9728 7.80368 18.9849 7.74194 18.9849C7.6802 18.9849 7.61906 18.9728 7.56202 18.9491C7.50498 18.9255 7.45315 18.8909 7.4095 18.8472C7.36584 18.8036 7.33121 18.7517 7.30758 18.6947C7.28396 18.6376 7.2718 18.5765 7.2718 18.5148C7.2718 18.453 7.28396 18.3919 7.30758 18.3349C7.33121 18.2778 7.36584 18.226 7.4095 18.1823L10.5383 15.0541C10.6264 14.966 10.7459 14.9166 10.8705 14.9166C10.995 14.9166 11.1145 14.966 11.2026 15.0541L11.2009 15.0523ZM15.4885 14.9936C15.5322 15.0372 15.5669 15.0891 15.5905 15.1461C15.6142 15.2031 15.6263 15.2643 15.6263 15.326C15.6263 15.3878 15.6142 15.4489 15.5905 15.506C15.5669 15.563 15.5322 15.6148 15.4885 15.6585L12.3004 18.8466C12.2122 18.9348 12.0926 18.9843 11.9679 18.9843C11.8433 18.9843 11.7237 18.9348 11.6355 18.8466C11.5473 18.7585 11.4978 18.6389 11.4978 18.5142C11.4978 18.3895 11.5473 18.2699 11.6355 18.1817L14.8242 14.9936C14.868 14.9496 14.92 14.9147 14.9772 14.8909C15.0345 14.8671 15.0959 14.8548 15.158 14.8549C15.22 14.855 15.2814 14.8673 15.3387 14.8912C15.3959 14.9151 15.4478 14.9501 15.4915 14.9942L15.4885 14.9936Z" fill="white"/>
</svg>
