<svg width="271" height="226" viewBox="0 0 271 226" fill="none" xmlns="http://www.w3.org/2000/svg">
<circle cx="135.5" cy="15.5" r="15.5" fill="#2AED15"/>
<path d="M132.039 10.6875V22H129.992V12.6719H129.93L127.289 14.3594V12.5L130.086 10.6875H132.039ZM134.789 22V20.5312L138.789 16.6719C139.93 15.5312 140.523 14.8594 140.523 13.9062C140.523 12.8594 139.695 12.1875 138.586 12.1875C137.414 12.1875 136.664 12.9219 136.68 14.0625H134.742C134.727 11.9219 136.336 10.5312 138.602 10.5312C140.914 10.5312 142.477 11.9062 142.477 13.8125C142.477 15.0937 141.852 16.125 139.633 18.2187L137.617 20.2187V20.2969H142.648V22H134.789Z" fill="#1D1D1D"/>
<path d="M199.859 25.6851V37H197.814V27.6685H197.748L195.102 29.3591V27.4972L197.908 25.6851H199.859Z" fill="white"/>
<path d="M236.124 69L236.119 67.5249L240.113 63.674C241.257 62.5304 241.854 61.8564 241.859 60.9116C241.854 59.8508 241.019 59.1878 239.909 59.1878C238.749 59.1878 237.997 59.9171 238.003 61.0663H236.069C236.058 58.9227 237.666 57.5304 239.937 57.5304C242.24 57.5304 243.798 58.9116 243.804 60.8066C243.798 62.0884 243.185 63.1215 240.959 65.221L238.953 67.2155V67.2983H243.975V69H236.124Z" fill="white"/>
<path d="M240.016 223.156C237.75 223.156 236.094 221.812 236.031 219.937H238.016C238.078 220.859 238.938 221.516 240.016 221.516C241.281 221.516 242.188 220.594 242.188 219.344C242.188 218.047 241.25 217.125 239.953 217.125C239.078 217.109 238.438 217.422 238.078 218.094H236.188L236.875 211.687H243.563V213.391H238.547L238.203 216.391H238.313C238.75 215.891 239.578 215.531 240.5 215.531C242.609 215.531 244.156 217.109 244.156 219.281C244.156 221.547 242.453 223.156 240.016 223.156Z" fill="#FAFAFA" fill-opacity="0.2"/>
<path d="M259.992 120.156C257.57 120.156 255.852 118.844 255.805 116.937H257.852C257.914 117.844 258.82 118.437 259.992 118.437C261.242 118.437 262.133 117.75 262.133 116.75C262.133 115.734 261.258 115 259.789 115H258.773V113.437H259.789C260.992 113.437 261.836 112.766 261.82 111.781C261.836 110.828 261.117 110.187 260.008 110.187C258.945 110.187 258.023 110.781 257.992 111.734H256.039C256.086 109.828 257.805 108.531 260.023 108.531C262.32 108.531 263.805 109.937 263.789 111.672C263.805 112.937 262.961 113.859 261.727 114.109V114.203C263.32 114.422 264.227 115.437 264.211 116.859C264.227 118.766 262.445 120.156 259.992 120.156Z" fill="#FAFAFA" fill-opacity="0.8"/>
<path d="M252.57 168.891V167.266L257.461 159.687H259.992V167.219H261.477V168.891H259.992V171H258.055V168.891H252.57ZM254.648 167.219H258.086V162H257.961L254.648 167.141V167.219Z" fill="#FAFAFA" fill-opacity="0.4"/>
<path d="M10.8906 108.531C13.1094 108.547 15.2969 109.859 15.3125 114C15.3125 117.906 13.5469 120.156 10.7656 120.156C8.57813 120.156 7.07813 118.797 6.82813 116.922H8.84375C9.04688 117.812 9.73438 118.391 10.7656 118.391C12.4063 118.391 13.3281 116.937 13.3438 114.516H13.2188C12.6406 115.5 11.5625 116.078 10.3125 116.078C8.29688 116.078 6.73438 114.547 6.71875 112.406C6.71875 110.187 8.375 108.516 10.8906 108.531ZM10.9063 110.172C9.64063 110.172 8.6875 111.156 8.70313 112.359C8.70313 113.578 9.60938 114.531 10.875 114.531C12.125 114.531 13.1094 113.516 13.0938 112.344C13.0938 111.187 12.1719 110.172 10.9063 110.172Z" fill="#FAFAFA" fill-opacity="0.8"/>
<path d="M14 171.156C11.4844 171.156 9.70313 169.812 9.70313 167.969C9.70313 166.531 10.7656 165.359 12.125 165.141V165.078C10.9375 164.828 10.125 163.797 10.125 162.562C10.125 160.812 11.7656 159.531 14 159.531C16.2188 159.531 17.8594 160.812 17.8594 162.562C17.8594 163.797 17.0313 164.828 15.8594 165.078V165.141C17.2188 165.359 18.2969 166.531 18.2969 167.969C18.2969 169.812 16.5 171.156 14 171.156ZM14 169.547C15.3281 169.547 16.2031 168.828 16.2031 167.781C16.2031 166.719 15.2656 165.937 14 165.937C12.7188 165.937 11.7813 166.719 11.7969 167.781C11.7813 168.828 12.6563 169.547 14 169.547ZM14 164.422C15.0938 164.422 15.875 163.734 15.875 162.75C15.875 161.797 15.1094 161.125 14 161.125C12.875 161.125 12.1094 161.781 12.1094 162.75C12.1094 163.734 12.8906 164.422 14 164.422Z" fill="#FAFAFA" fill-opacity="0.4"/>
<path d="M28.7491 57.6851V69H26.7049V59.6685H26.6386L23.9922 61.3591V59.4972L26.7989 57.6851H28.7491ZM35.673 69.2155C32.9437 69.2099 31.3194 67.0608 31.3249 63.3536C31.3249 59.6575 32.9603 57.5304 35.673 57.5304C38.3802 57.5304 40.0211 59.663 40.0211 63.3536C40.0155 67.0718 38.3968 69.2155 35.673 69.2155ZM33.3747 63.3536C33.3747 66.0718 34.2531 67.4917 35.673 67.4917C37.0874 67.4917 37.9658 66.0718 37.9658 63.3536C37.9603 60.6519 37.0818 59.2265 35.673 59.2265C34.2586 59.2265 33.3802 60.6519 33.3747 63.3536Z" fill="white"/>
<path d="M28.8203 223L33.7266 213.469V213.391H28.0391V211.687H35.8359V213.422L30.9297 223H28.8203Z" fill="#FAFAFA" fill-opacity="0.2"/>
<path d="M70.1866 25.6851V37H68.1424V27.6685H68.0761L65.4297 29.3591V27.4972L68.2364 25.6851H70.1866ZM77.5304 25.6851V37H75.4862V27.6685H75.4199L72.7735 29.3591V27.4972L75.5801 25.6851H77.5304Z" fill="white"/>
<path fill-rule="evenodd" clip-rule="evenodd" d="M180.839 87.7675C180.839 90.2839 180.448 92.709 179.723 94.9853C181.183 94.7049 182.69 94.558 184.232 94.558C197.359 94.558 208 105.199 208 118.325C208 126.971 203.384 134.538 196.482 138.697C203.384 142.856 208 150.424 208 159.07C208 172.196 197.359 182.837 184.233 182.837C182.691 182.837 181.183 182.69 179.722 182.41C180.447 184.686 180.838 187.111 180.838 189.628C180.838 202.754 170.197 213.395 157.071 213.395C147.067 213.395 138.507 207.215 135 198.465C131.494 207.215 122.934 213.395 112.93 213.395C99.8038 213.395 89.1627 202.754 89.1627 189.628C89.1627 187.111 89.5538 184.686 90.2786 182.41C88.8182 182.69 87.3103 182.837 85.768 182.837C72.6416 182.837 62.0006 172.196 62.0006 159.07C62.0006 150.424 66.6167 142.857 73.5188 138.698C66.6164 134.539 62 126.971 62 118.325C62 105.199 72.6411 94.558 85.7675 94.558C87.3101 94.558 88.8183 94.705 90.279 94.9857C89.5543 92.7093 89.1631 90.284 89.1631 87.7675C89.1631 74.6411 99.8042 64 112.931 64C122.934 64 131.494 70.18 135.001 78.9303C138.508 70.18 147.068 64 157.071 64C170.198 64 180.839 74.6411 180.839 87.7675ZM132.208 104.375C126.327 103.349 121.305 99.8821 118.442 97.0196L121.741 93.7197C124.139 96.1177 128.336 98.963 133.01 99.7784C137.493 100.56 142.597 99.5263 147.351 93.8688L150.923 96.8705C145.069 103.838 138.281 105.434 132.208 104.375Z" fill="#2AED15"/>
</svg>
