<svg width="146" height="224" viewBox="0 0 146 224" fill="none" xmlns="http://www.w3.org/2000/svg">
<path fill-rule="evenodd" clip-rule="evenodd" d="M73 0C65.268 0 59 6.26801 59 14C59 19.182 61.8154 23.7064 66 26.127V37H80V26.1271C84.1846 23.7064 87 19.182 87 14C87 6.26801 80.732 0 73 0Z" fill="#FFCD22"/>
<path fill-rule="evenodd" clip-rule="evenodd" d="M80 32H66V41H70C70 42.6569 71.3431 44 73 44C74.6569 44 76 42.6569 76 41H80V32Z" fill="#FAFAFA"/>
<path fill-rule="evenodd" clip-rule="evenodd" d="M118.839 97.7675C118.839 100.284 118.448 102.709 117.723 104.985C119.183 104.705 120.69 104.558 122.232 104.558C135.359 104.558 146 115.199 146 128.325C146 136.971 141.384 144.538 134.482 148.697C141.384 152.856 146 160.424 146 169.07C146 182.196 135.359 192.837 122.233 192.837C120.691 192.837 119.183 192.69 117.722 192.41C118.447 194.686 118.838 197.111 118.838 199.628C118.838 212.754 108.197 223.395 95.0708 223.395C85.0674 223.395 76.5074 217.215 73.0005 208.465C69.4936 217.215 60.9336 223.395 50.9302 223.395C37.8038 223.395 27.1627 212.754 27.1627 199.628C27.1627 197.111 27.5538 194.686 28.2786 192.41C26.8182 192.69 25.3103 192.837 23.768 192.837C10.6416 192.837 0.00056932 182.196 0.000570468 169.07C0.000571223 160.424 4.61674 152.857 11.5188 148.698C4.61642 144.539 0 136.971 0 128.325C0 115.199 10.6411 104.558 23.7675 104.558C25.3101 104.558 26.8183 104.705 28.279 104.986C27.5543 102.709 27.1631 100.284 27.1631 97.7675C27.1631 84.6411 37.8042 74 50.9306 74C60.934 74 69.494 80.18 73.0009 88.9303C76.5078 80.18 85.0677 74 95.0712 74C108.198 74 118.839 84.6411 118.839 97.7675ZM70.2083 114.375C64.3274 113.349 59.3048 109.882 56.4416 107.02L59.7406 103.72C62.1393 106.118 66.3356 108.963 71.0101 109.778C75.4929 110.56 80.5971 109.526 85.3506 103.869L88.9231 106.871C83.0686 113.838 76.2809 115.434 70.2083 114.375Z" fill="#2AED15"/>
</svg>
