<svg width="148" height="248" viewBox="0 0 148 248" fill="none" xmlns="http://www.w3.org/2000/svg">
<path fill-rule="evenodd" clip-rule="evenodd" d="M136.257 170.029L127.591 161.363L138 150.953L113.047 126L102.638 136.409L94.9971 128.769L78.493 145.273L86.1332 152.913L77 162.046L101.953 187L111.087 177.867L119.753 186.533L136.257 170.029ZM106.6 141.819C108.938 142.227 110.92 143.599 112.05 144.728L110.325 146.454C109.438 145.567 107.888 144.52 106.181 144.222C104.574 143.942 102.735 144.299 100.99 146.376L99.1222 144.806C101.443 142.044 104.162 141.393 106.6 141.819Z" fill="#0099FF"/>
<path fill-rule="evenodd" clip-rule="evenodd" d="M60.3415 118.068C60.3415 119.028 60.1923 119.954 59.9157 120.822C60.4728 120.715 61.048 120.659 61.6363 120.659C66.6445 120.659 70.7045 124.719 70.7045 129.727C70.7045 133.026 68.9432 135.913 66.3098 137.5C68.9433 139.087 70.7046 141.974 70.7046 145.273C70.7046 150.281 66.6446 154.341 61.6364 154.341C61.048 154.341 60.4726 154.285 59.9154 154.178C60.192 155.046 60.3412 155.972 60.3412 156.932C60.3412 161.94 56.2812 166 51.273 166C47.4563 166 44.1903 163.642 42.8523 160.303C41.5143 163.642 38.2484 166 34.4317 166C29.4234 166 25.3635 161.94 25.3635 156.932C25.3635 155.972 25.5127 155.046 25.7892 154.178C25.232 154.285 24.6567 154.341 24.0683 154.341C19.0601 154.341 15.0001 150.281 15.0001 145.273C15.0001 141.974 16.7613 139.087 19.3948 137.5C16.7613 135.913 15 133.026 15 129.727C15 124.719 19.06 120.659 24.0682 120.659C24.6567 120.659 25.2322 120.715 25.7895 120.822C25.513 119.954 25.3638 119.028 25.3638 118.068C25.3638 113.06 29.4237 109 34.4319 109C38.2486 109 41.5146 111.358 42.8526 114.697C44.1906 111.358 47.4566 109 51.2733 109C56.2815 109 60.3415 113.06 60.3415 118.068ZM41.7867 124.405C39.5429 124.013 37.6266 122.69 36.5341 121.598L37.7928 120.339C38.708 121.254 40.3091 122.34 42.0926 122.651C43.8029 122.949 45.7504 122.555 47.564 120.396L48.9271 121.541C46.6934 124.2 44.1036 124.809 41.7867 124.405Z" fill="#2AED15"/>
<rect x="9" y="148" width="130" height="100" fill="#7850F8"/>
<rect width="148" height="20" fill="#7850F8"/>
<rect x="56" y="161" width="37" height="5" fill="#1D1D1D"/>
<path fill-rule="evenodd" clip-rule="evenodd" d="M94.3958 50.634L77.0562 45L59.7165 50.634L49 65.384V83.616L59.7165 98.366L77.0562 104L94.3958 98.366L105.112 83.616V65.384L94.3958 50.634ZM72.2538 60.7791H81.6298V58.9496H72.2538V60.7791Z" fill="#7850F8"/>
</svg>
