<svg width="150" height="229" viewBox="0 0 150 229" fill="none" xmlns="http://www.w3.org/2000/svg">
<path fill-rule="evenodd" clip-rule="evenodd" d="M145.715 187.269L124.404 165.958L150.001 140.361L88.6397 79L63.043 104.597L44.255 85.8086L3.6709 126.393L22.4586 145.18L0 167.639L61.3611 229L83.8197 206.541L105.131 227.853L145.715 187.269ZM67.9765 129.881C62.2272 128.879 57.3522 125.504 54.5741 122.727L58.8162 118.484C60.9969 120.664 64.8095 123.238 69.0075 123.971C72.959 124.66 77.4799 123.782 81.7705 118.676L86.3642 122.535C80.658 129.327 73.9722 130.927 67.9765 129.881Z" fill="#0099FF"/>
<rect x="25" width="98.8802" height="50.9999" rx="6" fill="white"/>
<path d="M79.5 26.5V19.5H112L112.5 26.5L109.5 28V41H82V28L79.5 26.5Z" fill="#FFCD22"/>
<path fill-rule="evenodd" clip-rule="evenodd" d="M69.3181 14.2414C73.6392 17.7383 74.3074 24.0761 70.8105 28.3972L62.0148 39.2661C59.99 41.7683 57.0125 43.0456 54.0256 42.9987C51.0389 43.0455 48.0618 41.7681 46.037 39.2661L37.2414 28.3972C33.7445 24.0761 34.4127 17.7383 38.7338 14.2414C43.055 10.7445 49.3928 11.4127 52.8897 15.7338L54.0259 17.1379L55.1622 15.7338C58.6591 11.4126 64.9969 10.7445 69.3181 14.2414Z" fill="#FF3BAB"/>
<path d="M111.12 17.6625H105.069C105.136 17.6055 105.205 17.5503 105.271 17.49C105.795 17.0245 106.217 16.456 106.511 15.8199C106.805 15.1838 106.965 14.4939 106.98 13.7933C107.003 13.0268 106.869 12.2638 106.586 11.5511C106.303 10.8384 105.877 10.191 105.335 9.6487C104.793 9.10641 104.146 8.68064 103.433 8.39754C102.72 8.11444 101.958 7.97998 101.191 8.00241C100.49 8.01751 99.7999 8.17713 99.1635 8.47128C98.5271 8.76543 97.9583 9.18778 97.4926 9.71189C96.8483 10.4586 96.3245 11.3014 95.9401 12.2097C95.5557 11.3014 95.0319 10.4586 94.3876 9.71189C93.922 9.18778 93.3531 8.76543 92.7167 8.47128C92.0804 8.17713 91.3901 8.01751 90.6892 8.00241C89.9227 7.97998 89.1597 8.11444 88.4471 8.39754C87.7345 8.68064 87.0872 9.10641 86.5451 9.6487C86.003 10.191 85.5774 10.8384 85.2945 11.5511C85.0116 12.2638 84.8774 13.0268 84.9 13.7933C84.9154 14.4939 85.0751 15.1838 85.3693 15.8199C85.6634 16.456 86.0856 17.0245 86.6095 17.49C86.6751 17.5469 86.7441 17.6021 86.8114 17.6625H80.76C80.028 17.6625 79.326 17.9533 78.8084 18.4709C78.2908 18.9885 78 19.6905 78 20.4225V25.9425C78 26.6745 78.2908 27.3765 78.8084 27.8941C79.326 28.4117 80.028 28.7025 80.76 28.7025V39.7426C80.76 40.4746 81.0508 41.1766 81.5684 41.6942C82.086 42.2118 82.788 42.5026 83.52 42.5026H108.36C109.092 42.5026 109.794 42.2118 110.312 41.6942C110.829 41.1766 111.12 40.4746 111.12 39.7426V28.7025C111.852 28.7025 112.554 28.4117 113.072 27.8941C113.589 27.3765 113.88 26.6745 113.88 25.9425V20.4225C113.88 19.6905 113.589 18.9885 113.072 18.4709C112.554 17.9533 111.852 17.6625 111.12 17.6625ZM99.5626 11.5404C99.7811 11.2991 100.047 11.1056 100.344 10.972C100.641 10.8384 100.962 10.7677 101.288 10.7641H101.372C101.754 10.7665 102.131 10.845 102.482 10.9951C102.832 11.1451 103.15 11.3637 103.415 11.6379C103.68 11.9121 103.888 12.2366 104.026 12.5922C104.165 12.9477 104.23 13.3274 104.22 13.7087C104.217 14.0342 104.146 14.3555 104.012 14.6524C103.879 14.9492 103.685 15.2152 103.444 15.4338C101.807 16.8828 99.09 17.3934 97.4064 17.5728C97.6134 15.746 98.1826 13.0912 99.5626 11.5404ZM88.507 11.6025C89.0417 11.0679 89.7658 10.766 90.5219 10.7624H90.6064C90.9319 10.7659 91.2531 10.8367 91.55 10.9703C91.8469 11.1039 92.1129 11.2974 92.3314 11.5387C93.7787 13.174 94.2893 15.8857 94.4687 17.5624C92.792 17.3899 90.0802 16.8724 88.4449 15.4251C88.2036 15.2066 88.0101 14.9406 87.8765 14.6437C87.743 14.3469 87.6722 14.0256 87.6687 13.7001C87.658 13.3124 87.7262 12.9265 87.8691 12.566C88.012 12.2054 88.2267 11.8776 88.5001 11.6025H88.507ZM80.76 20.4225H94.5601V25.9425H80.76V20.4225ZM83.52 28.7025H94.5601V39.7426H83.52V28.7025ZM108.36 39.7426H97.3201V28.7025H108.36V39.7426ZM111.12 25.9425H97.3201V20.4225H111.12V25.9425Z" fill="#FF3BAB"/>
<path d="M75.3074 58.5C74.9225 59.1667 73.9603 59.1667 73.5754 58.5L69.2453 51C68.8604 50.3333 69.3415 49.5 70.1113 49.5L78.7715 49.5C79.5413 49.5 80.0225 50.3333 79.6376 51L75.3074 58.5Z" fill="white"/>
</svg>
