<svg width="177" height="150" viewBox="0 0 177 150" fill="none" xmlns="http://www.w3.org/2000/svg">
<path fill-rule="evenodd" clip-rule="evenodd" d="M166.715 108.269L145.404 86.9578L171.001 61.3611L109.64 0L84.043 25.5967L65.255 6.80859L24.6709 47.3926L43.4586 66.1804L21 88.639L82.3611 150L104.82 127.541L126.131 148.853L166.715 108.269ZM93.786 38.899C99.5353 39.9018 104.41 43.2761 107.188 46.0534L102.946 50.2966C100.766 48.1165 96.953 45.542 92.755 44.8097C88.8035 44.1205 84.2826 44.9984 79.992 50.1049L75.3982 46.2451C81.1045 39.4539 87.7902 37.8532 93.786 38.899Z" fill="#0099FF"/>
<path d="M74.5 30.5183C59.8333 20.5183 24.8 9.8183 2 47.0183" stroke="white" stroke-width="3" stroke-dasharray="7 7"/>
<path d="M175.5 12.5183C160.833 2.5183 125.8 -8.1817 103 29.0183" stroke="white" stroke-width="3" stroke-dasharray="7 7"/>
</svg>
