<svg width="150" height="150" viewBox="0 0 150 150" fill="none" xmlns="http://www.w3.org/2000/svg">
<path fill-rule="evenodd" clip-rule="evenodd" d="M125.477 83.7642L126.537 84.8248L126.525 84.8366L125.465 85.8972L124.404 86.9579L125.465 88.0186L126.18 88.7338L125.119 89.7945L124.059 90.8551L122.283 89.0792L120.161 86.9579L122.283 84.8366L124.416 82.7035L125.477 83.7642ZM129.732 92.2856L128.671 93.3463L127.611 94.407L131.162 97.9588L132.223 96.8981L133.284 95.8375L129.732 92.2856ZM136.836 99.3893L135.775 100.45L134.714 101.511L138.266 105.062L139.327 104.002L140.387 102.941L136.836 99.3893ZM143.594 106.148L141.565 108.177L141.91 108.522L141.818 108.614L143.594 110.39L143.686 110.298L144.654 109.33L145.715 108.269L144.654 107.208L143.939 106.493L143.594 106.148ZM139.627 114.356L138.567 113.296L137.506 112.235L133.448 116.294L134.508 117.354L135.569 118.415L139.627 114.356ZM131.511 122.473L130.45 121.413L129.389 120.352L125.331 124.41L126.392 125.471L127.452 126.532L131.511 122.473ZM123.394 130.59L122.333 129.529L121.273 128.469L117.214 132.527L118.275 133.588L119.335 134.649L123.394 130.59ZM115.277 138.707L114.216 137.646L113.156 136.586L109.097 140.644L110.158 141.705L111.219 142.765L115.277 138.707ZM107.252 146.732L105.476 144.956L105.384 145.048L105.039 144.702L103.01 146.732L103.355 147.077L104.07 147.792L105.131 148.853L106.192 147.792L107.16 146.824L107.252 146.732ZM99.8032 143.525L100.864 142.464L101.925 141.404L98.3726 137.852L97.312 138.913L96.2513 139.973L99.8032 143.525ZM92.6994 136.421L93.7601 135.361L94.8207 134.3L91.2689 130.748L90.2082 131.809L89.1475 132.869L92.6994 136.421ZM85.5956 129.318L86.6563 128.257L87.717 127.196L85.941 125.42L83.8197 123.299L81.6984 125.42L79.8268 127.292L80.8875 128.352L81.9482 129.413L82.759 128.602L83.8197 127.542L84.8804 128.602L85.5956 129.318ZM78.205 133.156L77.1444 132.096L76.0837 131.035L72.3406 134.778L73.4013 135.839L74.4619 136.899L78.205 133.156ZM70.7188 140.642L69.6582 139.582L68.5975 138.521L64.8544 142.264L65.9151 143.325L66.9757 144.386L70.7188 140.642ZM63.4824 147.879L61.2909 145.687L60.2303 146.748L59.1696 147.809L59.2398 147.879L60.3004 148.94L61.3611 150L62.4217 148.94L63.2326 148.129L63.4824 147.879ZM54.7867 143.426L55.8473 142.365L56.908 141.304L52.5251 136.922L51.4644 137.982L50.4037 139.043L54.7867 143.426ZM46.0208 134.66L47.0815 133.599L48.1421 132.539L43.7592 128.156L42.6985 129.216L41.6379 130.277L46.0208 134.66ZM37.2549 125.894L38.3156 124.833L39.3763 123.773L34.9933 119.39L33.9327 120.45L32.872 121.511L37.2549 125.894ZM28.4891 117.128L29.5497 116.068L30.6104 115.007L26.2275 110.624L25.1668 111.685L24.1061 112.745L28.4891 117.128ZM19.7232 108.362L20.7839 107.302L21.8445 106.241L17.4616 101.858L16.4009 102.919L15.3403 103.979L19.7232 108.362ZM10.9573 99.5965L12.018 98.5358L13.0787 97.4751L8.69573 93.0922L7.63507 94.1529L6.57441 95.2135L10.9573 99.5965ZM2.19147 90.8306L3.25213 89.7699L4.31279 88.7093L2.12132 86.5178L1.87155 86.7676L1.06066 87.5785L0 88.6391L1.06066 89.6998L2.12132 90.7604L2.19147 90.8306ZM5.61465 83.0245L6.67531 84.0851L7.73597 85.1458L11.4791 81.4027L10.4184 80.342L9.35775 79.2814L5.61465 83.0245ZM13.1009 75.5383L14.1615 76.5989L15.2222 77.6596L18.9653 73.9165L17.9046 72.8558L16.844 71.7952L13.1009 75.5383ZM20.5871 68.0521L21.6477 69.1127L22.7084 70.1734L24.5799 68.3018L26.7013 66.1805L24.5799 64.0592L22.2315 61.7107L21.1708 62.7714L20.1101 63.832L20.3373 64.0592L21.398 65.1199L22.4586 66.1805L21.398 67.2412L20.5871 68.0521ZM15.4132 59.1351L16.4739 58.0745L17.5345 57.0138L12.8376 52.3169L11.7769 53.3775L10.7163 54.4382L15.4132 59.1351ZM6.01936 49.7413L7.08002 48.6806L8.14068 47.6199L5.79222 45.2715L5.7001 45.3636L4.73156 46.3321L3.6709 47.3928L4.73156 48.4535L5.79222 49.5141L6.01936 49.7413ZM9.75851 41.3052L10.8192 42.3659L11.8798 43.4265L15.9382 39.3681L14.8776 38.3074L13.8169 37.2468L9.75851 41.3052ZM17.8753 33.1884L18.936 34.249L19.9966 35.3097L24.055 31.2513L22.9944 30.1906L21.9337 29.13L17.8753 33.1884ZM25.9921 25.0716L27.0528 26.1322L28.1134 27.1929L32.1719 23.1345L31.1112 22.0738L30.0505 21.0132L25.9921 25.0716ZM34.1089 16.9548L35.1696 18.0154L36.2303 19.0761L40.2887 15.0177L39.228 13.957L38.1673 12.8964L34.1089 16.9548ZM42.1336 8.93006L44.4821 11.2786L45.5428 10.2179L46.6035 9.15725L46.3763 8.93006L45.3156 7.8694L44.255 6.80874L43.1943 7.8694L42.2258 8.83794L42.1336 8.93006ZM51.3005 13.8543L50.2398 14.9149L49.1792 15.9756L53.8762 20.6726L54.9368 19.6119L55.9975 18.5513L51.3005 13.8543ZM60.6945 23.2483L59.6339 24.309L58.5732 25.3696L60.9217 27.7181L63.043 29.8395L65.1644 27.7181L67.2974 25.5851L66.2367 24.5244L65.1761 23.4638L65.1644 23.4755L64.1037 24.5362L63.043 25.5968L61.9824 24.5362L60.9217 23.4755L60.6945 23.2483ZM69.4422 19.1977L70.5029 20.2583L71.5635 21.319L75.8296 17.0529L74.769 15.9922L73.7083 14.9315L69.4422 19.1977ZM77.9744 10.6654L79.0351 11.7261L80.0957 12.7867L84.3619 8.52064L83.3012 7.45998L82.2405 6.39932L77.9744 10.6654ZM86.5066 2.13321L87.5673 3.19387L88.628 4.25453L88.6397 4.24279L88.7098 4.31294L89.7705 3.25228L90.8312 2.19162L90.761 2.12147L89.7004 1.06081L88.6397 0.000150584L87.579 1.06081L86.5184 2.12147L86.5066 2.13321ZM95.2141 6.57455L94.1534 7.63521L93.0928 8.69587L97.4757 13.0788L98.5364 12.0181L99.597 10.9575L95.2141 6.57455ZM103.98 15.3404L102.919 16.4011L101.859 17.4617L106.242 21.8447L107.302 20.784L108.363 19.7234L103.98 15.3404ZM112.746 24.1063L111.685 25.167L110.625 26.2276L115.007 30.6105L116.068 29.5499L117.129 28.4892L112.746 24.1063ZM121.512 32.8722L125.895 37.2551L124.834 38.3158L123.773 39.3764L119.39 34.9935L120.451 33.9328L121.512 32.8722ZM130.278 41.638L129.217 42.6987L128.156 43.7594L132.539 48.1423L133.6 47.0816L134.661 46.021L130.278 41.638ZM139.043 50.4039L137.983 51.4646L136.922 52.5252L141.305 56.9082L142.366 55.8475L143.426 54.7868L139.043 50.4039ZM147.809 59.1698L146.749 60.2304L145.688 61.2911L145.758 61.3612L145.746 61.373L146.807 62.4336L147.868 63.4943L147.879 63.4826L148.94 62.4219L150.001 61.3612L148.94 60.3006L147.879 59.2399L147.809 59.1698ZM143.602 67.7604L142.541 66.6997L141.48 65.6391L137.214 69.9052L138.275 70.9659L139.336 72.0265L143.602 67.7604ZM135.069 76.2926L134.009 75.232L132.948 74.1713L128.682 78.4374L129.743 79.4981L130.803 80.5587L135.069 76.2926ZM72.786 38.899C78.5353 39.9018 83.4103 43.2761 86.1884 46.0534L81.9463 50.2966C79.7656 48.1165 75.953 45.542 71.755 44.8097C67.8035 44.1205 63.2826 44.9984 58.992 50.1049L54.3983 46.2451C60.1045 39.4539 66.7902 37.8532 72.786 38.899Z" fill="#0099FF"/>
</svg>
