<svg width="267" height="263" viewBox="0 0 267 263" fill="none" xmlns="http://www.w3.org/2000/svg">
<path fill-rule="evenodd" clip-rule="evenodd" d="M58.2438 40.865C58.56 41.5481 58.7587 42.2555 58.8481 42.9645C59.2092 42.7047 59.6001 42.4753 60.0188 42.2815C63.5817 40.6317 67.8075 42.1827 69.4572 45.7457C70.5438 48.0924 70.2418 50.7267 68.891 52.7231C71.2872 52.9845 73.4913 54.4584 74.5778 56.8051C76.2276 60.3681 74.6766 64.5938 71.1136 66.2435C70.695 66.4374 70.2672 66.587 69.8355 66.6944C70.3183 67.2212 70.7293 67.8304 71.0456 68.5135C72.6953 72.0765 71.1443 76.3022 67.5814 77.9519C64.8662 79.2091 61.7662 78.6075 59.7145 76.6733C59.8622 79.4891 58.3155 82.2422 55.6003 83.4994C52.0373 85.1491 47.8116 83.5981 46.1619 80.0352C45.8456 79.3521 45.647 78.6446 45.5576 77.9356C45.1964 78.1953 44.8055 78.4248 44.3868 78.6186C40.8239 80.2684 36.5982 78.7174 34.9484 75.1544C33.8618 72.8077 34.1638 70.1734 35.5145 68.1771C33.1183 67.9157 30.9142 66.4418 29.8277 64.095C28.1779 60.5321 29.7289 56.3063 33.2919 54.6566C33.7106 54.4627 34.1385 54.3131 34.5703 54.2057C34.0874 53.6788 33.6764 53.0697 33.3601 52.3866C31.7104 48.8236 33.2614 44.5979 36.8244 42.9482C39.5395 41.691 42.6395 42.2925 44.6911 44.2267C44.5435 41.4109 46.0902 38.6579 48.8054 37.4008C52.3683 35.751 56.594 37.302 58.2438 40.865ZM47.1306 51.4816C45.4062 51.9421 43.6077 51.6323 42.4711 51.2153L42.9499 49.9103C43.9028 50.2599 45.4 50.5049 46.772 50.1386C48.088 49.7872 49.3443 48.8642 49.9238 46.7302L51.2653 47.0945C50.5522 49.7206 48.9112 51.0062 47.1306 51.4816Z" fill="#2AED15"/>
<ellipse cx="93.0107" cy="164.614" rx="24" ry="30" transform="rotate(20.5713 93.0107 164.614)" fill="url(#paint0_linear_5303_11669)"/>
<circle cx="133.185" cy="192.227" r="64" transform="rotate(6.44859 133.185 192.227)" fill="url(#paint1_linear_5303_11669)"/>
<path d="M104.89 173.512C104.89 173.512 106.34 176.008 110.78 177.186C115.22 178.364 117.717 176.914 117.717 176.914" stroke="#1D1D1D" stroke-width="3" stroke-linecap="round"/>
<ellipse cx="172.556" cy="184.991" rx="30" ry="37" transform="rotate(20 172.556 184.991)" fill="url(#paint2_linear_5303_11669)"/>
<path fill-rule="evenodd" clip-rule="evenodd" d="M146.395 125.047C128.114 120.525 115.253 126.378 107.768 132.871C104.548 134.246 101.86 135.472 96.8628 138.728C94.5207 140.254 90.3664 143.768 90.3664 143.768C90.3664 143.768 90.8573 138.419 92.1884 136.002C97.9975 125.457 117.257 107.572 148.83 115.381C166.925 119.856 177.131 128.844 182.611 138.799C187.969 148.532 188.483 158.612 188.433 164.816C188.41 167.568 186.12 169.771 183.317 169.736C180.514 169.701 178.261 167.442 178.283 164.689C178.329 159.017 177.807 150.992 173.687 143.507C169.689 136.244 161.974 128.899 146.395 125.047Z" fill="url(#paint3_linear_5303_11669)"/>
<ellipse cx="177.924" cy="183.659" rx="21" ry="25" transform="rotate(20 177.924 183.659)" fill="url(#paint4_linear_5303_11669)"/>
<path fill-rule="evenodd" clip-rule="evenodd" d="M104.427 162C104.304 162.242 104.204 162.501 104.131 162.775C103.579 164.855 104.819 166.989 106.899 167.541C108.98 168.093 111.114 166.854 111.666 164.773C111.674 164.744 111.681 164.716 111.688 164.687L109.785 163.983C109.775 164.075 109.758 164.168 109.733 164.26C109.464 165.273 108.425 165.877 107.412 165.608C106.399 165.339 105.796 164.3 106.064 163.287C106.121 163.073 106.212 162.877 106.33 162.704L104.427 162Z" fill="#1D1D1D"/>
<path fill-rule="evenodd" clip-rule="evenodd" d="M116.427 166C116.304 166.242 116.204 166.501 116.131 166.775C115.579 168.855 116.819 170.989 118.899 171.541C120.98 172.093 123.114 170.854 123.666 168.773C123.674 168.744 123.681 168.716 123.688 168.687L121.785 167.983C121.775 168.075 121.758 168.168 121.733 168.26C121.464 169.273 120.425 169.877 119.412 169.608C118.399 169.339 117.796 168.3 118.064 167.287C118.121 167.073 118.212 166.877 118.33 166.704L116.427 166Z" fill="#1D1D1D"/>
<circle cx="21" cy="86" r="5" fill="#FAFAFA"/>
<circle cx="109" cy="88" r="3" fill="#FAFAFA"/>
<circle opacity="0.4" cx="37" cy="140" r="5" fill="#FAFAFA"/>
<circle cx="156" cy="31" r="3" fill="#FAFAFA"/>
<circle cx="122.5" cy="77.5" r="4.5" fill="#FAFAFA"/>
<circle opacity="0.4" cx="166.5" cy="63.5" r="5.5" fill="#FAFAFA"/>
<circle cx="250.5" cy="60.5" r="2.5" fill="#FAFAFA"/>
<circle cx="247" cy="168" r="6" fill="#FAFAFA"/>
<circle opacity="0.4" cx="39" cy="233" r="6" fill="#FAFAFA"/>
<circle opacity="0.4" cx="260" cy="153" r="4" fill="#FAFAFA"/>
<circle cx="224" cy="131" r="3" fill="#FAFAFA"/>
<circle cx="16" cy="196" r="3" fill="#FAFAFA"/>
<circle cx="230" cy="233" r="3" fill="#FAFAFA"/>
<circle cx="244" cy="217" r="3" fill="#FAFAFA"/>
<circle opacity="0.4" cx="3" cy="77" r="3" fill="#FAFAFA"/>
<path fill-rule="evenodd" clip-rule="evenodd" d="M256.128 114.288L253.595 108.161L260.955 105.118L253.661 87.4753L246.302 90.5177L244.069 85.1156L232.399 89.9394L234.633 95.3414L228.175 98.0108L235.468 115.654L241.926 112.984L244.459 119.112L256.128 114.288ZM247.064 94.1929C248.108 94.8564 248.794 95.9192 249.115 96.6946L248.224 97.0628C247.956 96.4127 247.378 95.534 246.547 95.0061C245.75 94.4997 244.69 94.292 243.33 94.9979L242.886 94.1426C244.56 93.274 245.986 93.5078 247.064 94.1929Z" fill="#0099FF"/>
<path fill-rule="evenodd" clip-rule="evenodd" d="M178.065 21.1027C175.976 14.0818 179.973 6.69598 186.994 4.60611C194.015 2.51624 201.401 6.51367 203.491 13.5346L204.17 15.816L206.259 14.6761C212.69 11.168 220.747 13.5373 224.255 19.9681C227.763 26.3988 225.394 34.4559 218.963 37.9639L202.788 46.7877C199.064 48.8191 194.795 48.8797 191.18 47.3222C187.518 45.8791 184.532 42.8275 183.322 38.7623L178.065 21.1027ZM198.131 19.8391L205.509 22.881L206.061 21.5441L198.682 18.5022L198.131 19.8391Z" fill="#7850F8"/>
<defs>
<linearGradient id="paint0_linear_5303_11669" x1="77.9044" y1="141.891" x2="102.111" y2="192.518" gradientUnits="userSpaceOnUse">
<stop stop-color="#504E4E"/>
<stop offset="1" stop-color="#240D0D"/>
</linearGradient>
<linearGradient id="paint1_linear_5303_11669" x1="109.655" y1="156.462" x2="164.244" y2="236.462" gradientUnits="userSpaceOnUse">
<stop stop-color="#CEBCE4"/>
<stop offset="1" stop-color="#7850F8"/>
</linearGradient>
<linearGradient id="paint2_linear_5303_11669" x1="153.673" y1="156.966" x2="183.276" y2="219.715" gradientUnits="userSpaceOnUse">
<stop stop-color="#504E4E"/>
<stop offset="1" stop-color="#240D0D"/>
</linearGradient>
<linearGradient id="paint3_linear_5303_11669" x1="181.75" y1="150.743" x2="95.3535" y2="136.952" gradientUnits="userSpaceOnUse">
<stop/>
<stop offset="0.485" stop-color="#7A7A7A"/>
<stop offset="1" stop-color="#222222"/>
</linearGradient>
<linearGradient id="paint4_linear_5303_11669" x1="164.706" y1="164.723" x2="184.255" y2="207.655" gradientUnits="userSpaceOnUse">
<stop stop-color="#B8B0B0"/>
<stop offset="1" stop-color="#EDEDED"/>
</linearGradient>
</defs>
</svg>
