<svg width="264" height="248" viewBox="0 0 264 248" fill="none" xmlns="http://www.w3.org/2000/svg">
<path fill-rule="evenodd" clip-rule="evenodd" d="M176.839 121.767C176.839 124.284 176.448 126.709 175.723 128.985C177.183 128.705 178.69 128.558 180.232 128.558C193.359 128.558 204 139.199 204 152.325C204 160.971 199.384 168.538 192.482 172.697C199.384 176.856 204 184.424 204 193.07C204 206.196 193.359 216.837 180.233 216.837C178.691 216.837 177.183 216.69 175.722 216.41C176.447 218.686 176.838 221.111 176.838 223.628C176.838 236.754 166.197 247.395 153.071 247.395C143.067 247.395 134.507 241.215 131 232.465C127.494 241.215 118.934 247.395 108.93 247.395C95.8038 247.395 85.1627 236.754 85.1627 223.628C85.1627 221.111 85.5538 218.686 86.2786 216.41C84.8182 216.69 83.3103 216.837 81.768 216.837C68.6416 216.837 58.0006 206.196 58.0006 193.07C58.0006 184.424 62.6167 176.857 69.5188 172.698C62.6164 168.539 58 160.971 58 152.325C58 139.199 68.6411 128.558 81.7675 128.558C83.3101 128.558 84.8183 128.705 86.279 128.986C85.5543 126.709 85.1631 124.284 85.1631 121.767C85.1631 108.641 95.8042 98 108.931 98C118.934 98 127.494 104.18 131.001 112.93C134.508 104.18 143.068 98 153.071 98C166.198 98 176.839 108.641 176.839 121.767ZM128.208 138.375C122.327 137.349 117.305 133.882 114.442 131.02L117.741 127.72C120.139 130.118 124.336 132.963 129.01 133.778C133.493 134.56 138.597 133.526 143.351 127.869L146.923 130.871C141.069 137.838 134.281 139.434 128.208 138.375Z" fill="#FAFAFA" fill-opacity="0.6"/>
<path fill-rule="evenodd" clip-rule="evenodd" d="M172.318 159.241C176.639 162.738 177.307 169.076 173.811 173.397L165.015 184.266C162.99 186.768 160.012 188.046 157.026 187.999C154.039 188.045 151.062 186.768 149.037 184.266L140.241 173.397C136.744 169.076 137.413 162.738 141.734 159.241C146.055 155.744 152.393 156.413 155.89 160.734L157.026 162.138L158.162 160.734C161.659 156.413 167.997 155.744 172.318 159.241Z" fill="#7850F8"/>
<circle cx="21" cy="58" r="5" fill="white"/>
<circle cx="109" cy="60" r="3" fill="white"/>
<circle opacity="0.4" cx="37" cy="112" r="5" fill="white"/>
<circle cx="156" cy="3" r="3" fill="white"/>
<circle cx="122.5" cy="49.5" r="4.5" fill="white"/>
<circle opacity="0.4" cx="166.5" cy="35.5" r="5.5" fill="white"/>
<circle cx="250.5" cy="32.5" r="2.5" fill="white"/>
<circle cx="247" cy="140" r="6" fill="white"/>
<circle opacity="0.4" cx="260" cy="125" r="4" fill="white"/>
<circle cx="224" cy="103" r="3" fill="white"/>
<circle cx="16" cy="168" r="3" fill="white"/>
<circle cx="230" cy="205" r="3" fill="white"/>
<circle cx="244" cy="189" r="3" fill="white"/>
<circle opacity="0.4" cx="3" cy="49" r="3" fill="white"/>
</svg>
