<svg width="163" height="188" viewBox="0 0 163 188" fill="none" xmlns="http://www.w3.org/2000/svg">
<rect width="162.933" height="188" fill="white"/>
<rect x="7.16406" y="6.2666" width="149.505" height="150.4" fill="#FF3BAB"/>
<path fill-rule="evenodd" clip-rule="evenodd" d="M118.277 41.4657C118.277 43.4864 117.963 45.4338 117.381 47.2617C118.554 47.0365 119.764 46.9186 121.002 46.9186C131.543 46.9186 140.087 55.4632 140.087 66.0035C140.087 72.9458 136.38 79.0224 130.838 82.3619C136.381 85.7015 140.088 91.7781 140.088 98.7206C140.088 109.261 131.543 117.805 121.003 117.805C119.764 117.805 118.553 117.688 117.381 117.462C117.963 119.29 118.277 121.237 118.277 123.258C118.277 133.798 109.732 142.343 99.1917 142.343C91.1592 142.343 84.2857 137.38 81.4697 130.354C78.6537 137.38 71.7802 142.343 63.7476 142.343C53.2074 142.343 44.6628 133.798 44.6628 123.258C44.6628 121.237 44.9768 119.29 45.5587 117.462C44.386 117.688 43.1751 117.805 41.9367 117.805C31.3964 117.805 22.8518 109.261 22.8518 98.7206C22.8518 91.7783 26.5586 85.7017 32.101 82.3621C26.5585 79.0226 22.8516 72.9459 22.8516 66.0035C22.8516 55.4632 31.3961 46.9186 41.9364 46.9186C43.1752 46.9186 44.3865 47.0366 45.5595 47.2621C44.9775 45.4341 44.6634 43.4866 44.6634 41.4657C44.6634 30.9254 53.208 22.3809 63.7482 22.3809C71.7808 22.3809 78.6543 27.3433 81.4703 34.3696C84.2863 27.3433 91.1598 22.3809 99.1923 22.3809C109.733 22.3809 118.277 30.9254 118.277 41.4657ZM79.2275 54.8017C74.5052 53.978 70.4722 51.1938 68.173 48.8953L70.8221 46.2456C72.7482 48.1711 76.1178 50.4559 79.8713 51.1106C83.4709 51.7385 87.5695 50.9081 91.3865 46.3653L94.2551 48.7756C89.5541 54.3705 84.1037 55.6522 79.2275 54.8017Z" fill="#2AED15"/>
</svg>
