<svg width="223" height="221" viewBox="0 0 223 221" fill="none" xmlns="http://www.w3.org/2000/svg">
<path fill-rule="evenodd" clip-rule="evenodd" d="M156.839 94.7675C156.839 97.2839 156.448 99.709 155.723 101.985C157.183 101.705 158.69 101.558 160.232 101.558C173.359 101.558 184 112.199 184 125.325C184 133.971 179.384 141.538 172.482 145.697C179.384 149.856 184 157.424 184 166.07C184 179.196 173.359 189.837 160.233 189.837C158.691 189.837 157.183 189.69 155.722 189.41C156.447 191.686 156.838 194.111 156.838 196.628C156.838 209.754 146.197 220.395 133.071 220.395C123.067 220.395 114.507 214.215 111 205.465C107.494 214.215 98.9336 220.395 88.9302 220.395C75.8038 220.395 65.1627 209.754 65.1627 196.628C65.1627 194.111 65.5538 191.686 66.2786 189.41C64.8182 189.69 63.3103 189.837 61.768 189.837C48.6416 189.837 38.0006 179.196 38.0006 166.07C38.0006 157.424 42.6167 149.857 49.5188 145.698C42.6164 141.539 38 133.971 38 125.325C38 112.199 48.6411 101.558 61.7675 101.558C63.3101 101.558 64.8183 101.705 66.279 101.986C65.5543 99.7093 65.1631 97.284 65.1631 94.7675C65.1631 81.6411 75.8042 71 88.9306 71C98.934 71 107.494 77.18 111.001 85.9303C114.508 77.18 123.068 71 133.071 71C146.198 71 156.839 81.6411 156.839 94.7675ZM108.208 111.375C102.327 110.349 97.3048 106.882 94.4416 104.02L97.7406 100.72C100.139 103.118 104.336 105.963 109.01 106.778C113.493 107.56 118.597 106.526 123.351 100.869L126.923 103.871C121.069 110.838 114.281 112.434 108.208 111.375Z" fill="#2AED15"/>
<path fill-rule="evenodd" clip-rule="evenodd" d="M126.318 2.24136C130.639 5.73827 131.307 12.0761 127.811 16.3972L119.015 27.2661C116.99 29.7683 114.012 31.0456 111.026 30.9987C108.039 31.0455 105.062 29.7681 103.037 27.2661L94.2414 16.3972C90.7445 12.0761 91.4127 5.73827 95.7338 2.24137C100.055 -1.25554 106.393 -0.587347 109.89 3.73382L111.026 5.13789L112.162 3.73381C115.659 -0.58735 121.997 -1.25554 126.318 2.24136Z" fill="#FF3BAB"/>
<path fill-rule="evenodd" clip-rule="evenodd" d="M34.3181 45.2414C38.6392 48.7383 39.3074 55.0761 35.8105 59.3972L27.0148 70.2661C24.99 72.7683 22.0125 74.0456 19.0256 73.9987C16.0389 74.0455 13.0618 72.7681 11.037 70.2661L2.24136 59.3972C-1.25554 55.0761 -0.587348 48.7383 3.73381 45.2414C8.05498 41.7445 14.3928 42.4127 17.8897 46.7338L19.0259 48.1379L20.1622 46.7338C23.6591 42.4126 29.9969 41.7445 34.3181 45.2414Z" fill="#FF3BAB" fill-opacity="0.5"/>
<path fill-rule="evenodd" clip-rule="evenodd" d="M218.318 45.2414C222.639 48.7383 223.307 55.0761 219.811 59.3972L211.015 70.2661C208.99 72.7683 206.012 74.0456 203.026 73.9987C200.039 74.0455 197.062 72.7681 195.037 70.2661L186.241 59.3972C182.744 55.0761 183.413 48.7383 187.734 45.2414C192.055 41.7445 198.393 42.4127 201.89 46.7338L203.026 48.1379L204.162 46.7338C207.659 42.4126 213.997 41.7445 218.318 45.2414Z" fill="#FF3BAB" fill-opacity="0.5"/>
</svg>
