<svg width="146" height="150" viewBox="0 0 146 150" fill="none" xmlns="http://www.w3.org/2000/svg">
<path fill-rule="evenodd" clip-rule="evenodd" d="M116.75 28.876L115.29 28.5333C115.167 29.0552 115.025 29.5694 114.864 30.0752L113.333 34.8831L118.289 33.9314C118.612 33.8694 118.937 33.8149 119.266 33.768L119.053 32.283L118.923 31.3673L119.152 31.4403L120.581 31.8954C120.718 31.4654 120.845 31.0306 120.96 30.5915C120.424 30.6198 119.893 30.6658 119.367 30.729C119.191 30.7501 119.016 30.7732 118.841 30.7981C118.466 30.8518 118.093 30.9143 117.723 30.9853C117.89 30.4589 118.04 29.9245 118.171 29.3829C118.185 29.3282 118.198 29.2735 118.211 29.2187C118.3 28.8378 118.38 28.4534 118.451 28.0657L118.417 27.8283C117.994 27.8887 117.574 27.9591 117.157 28.0391L117.344 29.0155L116.75 28.876ZM118.769 25.5989L117.273 25.4849L115.778 25.3709C115.818 24.8423 115.839 24.3075 115.839 23.7675C115.839 22.8454 115.779 21.9389 115.663 21.0512L117.15 20.8572L118.638 20.6632C118.77 21.6792 118.839 22.7153 118.839 23.7675C118.839 24.3837 118.815 24.9944 118.769 25.5989ZM117.035 14.6696C116.234 12.7373 115.185 10.9337 113.928 9.2982L112.739 10.2122L111.549 11.1262C112.648 12.5562 113.564 14.132 114.264 15.8187L115.65 15.2441L117.035 14.6696ZM109.54 4.91037L108.626 6.09975L107.712 7.28913C106.282 6.19024 104.707 5.27412 103.02 4.57467L103.594 3.18908L104.169 1.80349C106.101 2.60475 107.905 3.65357 109.54 4.91037ZM98.1754 0.20089L97.9814 1.68829L97.7874 3.17569C96.8997 3.0599 95.9932 3 95.0712 3C94.022 3 92.9929 3.07755 91.9887 3.22678L91.7682 1.74307L91.5478 0.259364C92.6974 0.0885172 93.8739 0 95.0712 0C96.1233 0 97.1594 0.0683631 98.1754 0.20089ZM84.8118 2.32221L85.4601 3.67488L86.1083 5.02755C84.2388 5.92356 82.5226 7.09213 81.0117 8.48266L79.9959 7.37897L78.9801 6.27528C80.7074 4.68549 82.6708 3.34827 84.8118 2.32221ZM67.0216 6.27528C65.2943 4.68549 63.3309 3.34827 61.19 2.32221L60.5417 3.67488L59.8934 5.02755C61.763 5.92356 63.4792 7.09213 64.99 8.48266L66.0058 7.37897L67.0216 6.27528ZM54.454 0.259364L54.2335 1.74307L54.013 3.22678C53.0089 3.07755 51.9797 3 50.9306 3C50.0086 3 49.102 3.0599 48.2144 3.17569L48.0204 1.68829L47.8263 0.200889C48.8423 0.068363 49.8785 0 50.9306 0C52.1278 0 53.3043 0.0885172 54.454 0.259364ZM41.8327 1.80349L42.4073 3.18908L42.9819 4.57466C41.2951 5.27412 39.7193 6.19024 38.2893 7.28913L37.3753 6.09975L36.4613 4.91037C38.0968 3.65357 39.9005 2.60475 41.8327 1.80349ZM32.0735 9.29821L33.2629 10.2122L34.4523 11.1262C33.3534 12.5562 32.4372 14.132 31.7378 15.8187L30.3522 15.2441L28.9666 14.6696C29.7679 12.7373 30.8167 10.9337 32.0735 9.29821ZM27.364 20.6632L28.8514 20.8572L30.3388 21.0512C30.223 21.9389 30.1631 22.8454 30.1631 23.7675C30.1631 24.3076 30.1837 24.8423 30.224 25.371L28.7283 25.485L27.2327 25.599C27.1866 24.9945 27.1631 24.3837 27.1631 23.7675C27.1631 22.7153 27.2315 21.6792 27.364 20.6632ZM24.9017 30.5846L24.8313 32.083L24.7609 33.5813C24.4319 33.5659 24.1007 33.558 23.7675 33.558C22.8454 33.558 21.9389 33.6179 21.0512 33.7337L20.8572 32.2463L20.6632 30.7589C21.6792 30.6264 22.7153 30.558 23.7675 30.558C24.1477 30.558 24.5258 30.567 24.9017 30.5846ZM25.0416 30.5916C25.1571 31.0308 25.2835 31.4657 25.4204 31.8958L26.8497 31.4408L27.0787 31.3679L26.9478 32.2833L26.7356 33.7682C27.064 33.8151 27.3898 33.8697 27.7129 33.9318L32.6686 34.884L31.1376 30.0755C30.9766 29.5697 30.8344 29.0555 30.7119 28.5336L29.2516 28.8763L28.6576 29.0157L28.8451 28.0396C28.4282 27.9595 28.0079 27.889 27.5845 27.8285L27.5507 28.0652C27.6216 28.4532 27.7018 28.8378 27.7913 29.219C27.8041 29.2738 27.8172 29.3285 27.8304 29.3832C27.9617 29.9249 28.1114 30.4592 28.279 30.9857C27.909 30.9146 27.536 30.8521 27.1601 30.7983C26.9856 30.7734 26.8105 30.7504 26.6348 30.7292C26.1088 30.666 25.5775 30.6199 25.0416 30.5916ZM71.2825 11.4849C71.3374 11.5758 71.3918 11.6671 71.4456 11.7587C71.6996 12.1918 71.9404 12.6337 72.1672 13.0838C72.4704 13.6851 72.7487 14.3011 73.0009 14.9303C73.2531 14.3011 73.5314 13.6851 73.8345 13.0838C74.0614 12.6337 74.3021 12.1918 74.5562 11.7587C74.61 11.6671 74.6643 11.5758 74.7193 11.4849C74.8091 11.6586 74.8971 11.8334 74.9832 12.0092L75.85 12.5177L77.1438 13.2767C76.6252 14.1607 76.1704 15.086 75.7856 16.0464L73.0009 22.9946L70.2162 16.0464C69.8313 15.086 69.3765 14.1607 68.8579 13.2767L70.1517 12.5177L71.0186 12.0092C71.1047 11.8334 71.1926 11.6586 71.2825 11.4849ZM121.099 30.5846L121.169 32.083L121.239 33.5813C121.568 33.5659 121.899 33.558 122.232 33.558C123.154 33.558 124.061 33.6179 124.949 33.7337L125.143 32.2463L125.337 30.7589C124.321 30.6264 123.284 30.558 122.232 30.558C121.852 30.558 121.474 30.567 121.099 30.5846ZM131.33 32.3615L130.756 33.7471L130.181 35.1327C131.868 35.8322 133.444 36.7483 134.874 37.8472L135.788 36.6578L136.702 35.4684C135.066 34.2116 133.262 33.1628 131.33 32.3615ZM141.089 39.8562L139.9 40.7702L138.711 41.6842C139.81 43.1142 140.726 44.6901 141.425 46.3768L142.811 45.8022L144.196 45.2276C143.395 43.2954 142.346 41.4917 141.089 39.8562ZM145.799 51.2212L144.312 51.4153L142.824 51.6093C142.94 52.4969 143 53.4035 143 54.3255C143 55.2314 142.942 56.1223 142.83 56.9951L144.318 57.1857L145.806 57.3764C145.934 56.3775 146 55.3592 146 54.3255C146 53.2734 145.931 52.2372 145.799 51.2212ZM144.257 63.2767L142.867 62.7114L141.478 62.1461C140.801 63.8089 139.915 65.3655 138.85 66.7828L140.05 67.6836L141.249 68.5843C142.467 66.9633 143.482 65.1816 144.257 63.2767ZM137.142 72.8359C136.974 72.7231 136.805 72.6123 136.635 72.5033L136.061 71.78L135.128 70.6049C134.431 71.1579 133.698 71.667 132.933 72.1279L128.669 74.6975L132.933 77.2671C133.698 77.728 134.431 78.2371 135.129 78.7901L136.061 77.615L136.635 76.8915C136.805 76.7825 136.974 76.6717 137.142 76.559C137.093 76.5191 137.043 76.4794 136.993 76.4399C136.627 76.1494 136.252 75.8695 135.869 75.6007C135.418 75.2841 134.955 74.9827 134.482 74.6975C134.955 74.4122 135.418 74.1108 135.869 73.7942C136.252 73.5254 136.627 73.2455 136.993 72.955C137.043 72.9155 137.092 72.8758 137.142 72.8359ZM141.25 80.8106L140.05 81.7114L138.851 82.6122C139.915 84.0295 140.802 85.5861 141.478 87.2489L142.868 86.6837L144.257 86.1184C143.482 84.2134 142.467 82.4317 141.25 80.8106ZM145.806 92.0188L144.319 92.2095L142.831 92.4001C142.943 93.2729 143 94.1639 143 95.0698C143 95.9918 142.94 96.8984 142.825 97.786L144.312 97.98L145.799 98.174C145.932 97.1581 146 96.1219 146 95.0698C146 94.0361 145.934 93.0178 145.806 92.0188ZM144.197 104.168L142.811 103.593L141.426 103.019C140.726 104.705 139.81 106.281 138.711 107.711L139.901 108.625L141.09 109.539C142.347 107.904 143.396 106.1 144.197 104.168ZM136.702 113.927L135.788 112.737L134.874 111.548C133.444 112.647 131.868 113.563 130.182 114.263L130.756 115.648L131.331 117.034C133.263 116.232 135.067 115.184 136.702 113.927ZM125.337 118.636L125.143 117.149L124.949 115.662C124.061 115.777 123.155 115.837 122.233 115.837C121.9 115.837 121.569 115.829 121.24 115.814L121.169 117.312L121.099 118.811C121.475 118.828 121.853 118.837 122.233 118.837C123.285 118.837 124.321 118.769 125.337 118.636ZM120.96 118.804C120.844 118.365 120.718 117.93 120.581 117.5L119.152 117.955L118.922 118.028L119.053 117.112L119.265 115.627C118.937 115.58 118.611 115.526 118.288 115.464L113.333 114.512L114.864 119.32C115.025 119.826 115.167 120.34 115.289 120.862L116.75 120.519L117.344 120.38L117.156 121.356C117.573 121.436 117.993 121.506 118.417 121.567L118.451 121.33C118.38 120.942 118.3 120.557 118.21 120.176C118.197 120.122 118.184 120.067 118.171 120.012C118.04 119.471 117.89 118.936 117.722 118.41C118.092 118.481 118.465 118.543 118.841 118.597C119.016 118.622 119.191 118.645 119.367 118.666C119.893 118.729 120.424 118.775 120.96 118.804ZM118.769 123.796L117.273 123.91L115.777 124.024C115.818 124.553 115.838 125.088 115.838 125.628C115.838 126.55 115.778 127.456 115.663 128.344L117.15 128.538L118.637 128.732C118.77 127.716 118.838 126.68 118.838 125.628C118.838 125.012 118.815 124.401 118.769 123.796ZM117.035 134.726L115.649 134.151L114.264 133.577C113.564 135.263 112.648 136.839 111.549 138.269L112.738 139.183L113.928 140.097C115.185 138.462 116.233 136.658 117.035 134.726ZM109.54 144.485L108.626 143.296L107.712 142.106C106.282 143.205 104.706 144.121 103.019 144.821L103.594 146.206L104.169 147.592C106.101 146.791 107.905 145.742 109.54 144.485ZM98.175 149.194L97.981 147.707L97.787 146.22C96.8993 146.335 95.9928 146.395 95.0708 146.395C94.0216 146.395 92.9925 146.318 91.9883 146.169L91.7678 147.652L91.5474 149.136C92.697 149.307 93.8736 149.395 95.0708 149.395C96.1229 149.395 97.159 149.327 98.175 149.194ZM84.8114 147.073L85.4596 145.72L86.1079 144.368C84.2384 143.472 82.5222 142.303 81.0113 140.913L79.9955 142.016L78.9797 143.12C80.707 144.71 82.6704 146.047 84.8114 147.073ZM74.7189 137.91C74.8087 137.737 74.8967 137.562 74.9828 137.386L75.8496 136.878L77.1434 136.119C76.6248 135.235 76.1701 134.309 75.7852 133.349L73.0005 126.401L70.2158 133.349C69.8309 134.309 69.3761 135.235 68.8575 136.119L70.1514 136.878L71.0182 137.386C71.1043 137.562 71.1923 137.737 71.2821 137.91C71.337 137.819 71.3914 137.728 71.4452 137.637C71.6992 137.203 71.94 136.762 72.1668 136.312C72.47 135.71 72.7483 135.094 73.0005 134.465C73.2527 135.094 73.531 135.71 73.8341 136.312C74.061 136.762 74.3017 137.203 74.5558 137.637C74.6096 137.728 74.6639 137.819 74.7189 137.91ZM67.0212 143.12L66.0054 142.016L64.9896 140.913C63.4788 142.303 61.7626 143.472 59.893 144.368L60.5413 145.72L61.1896 147.073C63.3305 146.047 65.2939 144.71 67.0212 143.12ZM54.4536 149.136L54.2331 147.652L54.0126 146.169C53.0084 146.318 51.9793 146.395 50.9302 146.395C50.0082 146.395 49.1016 146.335 48.214 146.22L48.02 147.707L47.8259 149.194C48.8419 149.327 49.8781 149.395 50.9302 149.395C52.1274 149.395 53.3039 149.307 54.4536 149.136ZM41.8323 147.592L42.4069 146.206L42.9814 144.821C41.2947 144.121 39.7189 143.205 38.2889 142.106L37.3749 143.296L36.4609 144.485C38.0964 145.742 39.9001 146.791 41.8323 147.592ZM32.0731 140.097L33.2625 139.183L34.4519 138.269C33.353 136.839 32.4368 135.263 31.7374 133.577L30.3518 134.151L28.9662 134.726C29.7675 136.658 30.8163 138.462 32.0731 140.097ZM27.3636 128.732L28.851 128.538L30.3384 128.344C30.2226 127.456 30.1627 126.55 30.1627 125.628C30.1627 125.088 30.1833 124.553 30.2236 124.024L28.7279 123.91L27.2323 123.796C27.1862 124.401 27.1627 125.012 27.1627 125.628C27.1627 126.68 27.2311 127.716 27.3636 128.732ZM27.5503 121.33L27.5842 121.567C28.0075 121.506 28.4277 121.436 28.8446 121.356L28.657 120.38L29.2512 120.519L30.7115 120.862C30.834 120.34 30.9762 119.826 31.1372 119.32L32.668 114.512L27.7126 115.464C27.3896 115.526 27.0638 115.58 26.7355 115.627L26.9477 117.112L27.0785 118.028L26.8493 117.955L25.42 117.5C25.283 117.93 25.1567 118.365 25.0412 118.804C25.5771 118.775 26.1084 118.729 26.6343 118.666C26.8101 118.645 26.9853 118.622 27.1599 118.597C27.5357 118.543 27.9086 118.481 28.2786 118.41C28.111 118.936 27.9612 119.471 27.83 120.012C27.8168 120.067 27.8037 120.122 27.7909 120.176C27.7014 120.557 27.6212 120.942 27.5503 121.33ZM24.902 118.811L24.8316 117.312L24.7612 115.814C24.4323 115.829 24.1012 115.837 23.768 115.837C22.846 115.837 21.9395 115.777 21.0518 115.662L20.8578 117.149L20.6638 118.636C21.6798 118.769 22.7159 118.837 23.768 118.837C24.1482 118.837 24.5262 118.828 24.902 118.811ZM14.6701 117.034L15.2447 115.648L15.8193 114.263C14.1326 113.563 12.5567 112.647 11.1268 111.548L10.2128 112.737L9.29877 113.927C10.9343 115.184 12.7379 116.232 14.6701 117.034ZM4.91094 109.539L6.10032 108.625L7.2897 107.711C6.19081 106.281 5.27469 104.705 4.57523 103.019L3.18965 103.593L1.80406 104.168C2.60532 106.1 3.65414 107.904 4.91094 109.539ZM0.20146 98.174L1.68886 97.98L3.17626 97.786C3.06047 96.8983 3.00057 95.9918 3.00057 95.0698C3.00057 94.1639 3.05839 93.273 3.17023 92.4002L1.68239 92.2096L0.194559 92.0189C0.066561 93.0178 0.000570558 94.0361 0.000570468 95.0698C0.000570376 96.1219 0.0689334 97.1581 0.20146 98.174ZM1.7438 86.1186L3.13321 86.6839L4.52263 87.2491C5.19911 85.5863 6.0856 84.0297 7.14995 82.6125L5.95052 81.7117L4.7511 80.8109C3.53372 82.432 2.51878 84.2137 1.7438 86.1186ZM8.85839 76.5594C9.0262 76.6721 9.19535 76.783 9.36584 76.892L9.93969 77.6153L10.872 78.7904C11.569 78.2374 12.3022 77.7283 13.0671 77.2674L17.3316 74.6977L13.0671 72.1282C12.3021 71.6673 11.5689 71.1582 10.8718 70.6052L9.93955 71.7803L9.36556 72.5038C9.19515 72.6128 9.02607 72.7236 8.85834 72.8363C8.90782 72.8762 8.95747 72.9159 9.00728 72.9554C9.37338 73.2458 9.74824 73.5257 10.1314 73.7946C10.5826 74.1112 11.0453 74.4125 11.5188 74.6978C11.0453 74.9831 10.5826 75.2844 10.1314 75.6011C9.7483 75.8699 9.37347 76.1498 9.00739 76.4402C8.95756 76.4798 8.9079 76.5195 8.85839 76.5594ZM4.75077 68.5847L5.95019 67.6839L7.1496 66.7831C6.08519 65.3658 5.19866 63.8092 4.52214 62.1464L3.13273 62.7116L1.74332 63.2769C2.51834 65.1819 3.53334 66.9636 4.75077 68.5847ZM0.193999 57.3764L1.68183 57.1858L3.16967 56.9951C3.05783 56.1224 3 55.2314 3 54.3255C3 53.4035 3.0599 52.4969 3.17569 51.6093L1.68829 51.4153L0.20089 51.2212C0.0683632 52.2372 0 53.2734 0 54.3255C0 55.3592 0.065994 56.3775 0.193999 57.3764ZM1.80349 45.2276L3.18908 45.8022L4.57467 46.3768C5.27412 44.69 6.19024 43.1142 7.28913 41.6842L6.09975 40.7702L4.91037 39.8562C3.65357 41.4917 2.60475 43.2954 1.80349 45.2276ZM9.29821 35.4684L10.2122 36.6578L11.1262 37.8472C12.5562 36.7483 14.132 35.8322 15.8187 35.1327L15.2441 33.7471L14.6696 32.3615C12.7373 33.1628 10.9337 34.2116 9.29821 35.4684ZM70.2083 40.3751C64.3274 39.3493 59.3048 35.8821 56.4416 33.0196L59.7406 29.7197C62.1393 32.1177 66.3356 34.963 71.0101 35.7784C75.4929 36.5603 80.5971 35.5263 85.3506 29.8688L88.9231 32.8705C83.0686 39.8382 76.2809 41.4344 70.2083 40.3751Z" fill="#2AED15"/>
</svg>
