<svg width="519" height="150" viewBox="0 0 519 157" fill="none" xmlns="http://www.w3.org/2000/svg">
<path fill-rule="evenodd" clip-rule="evenodd" d="M261.82 2.9162L259 2L256.18 2.9162L256.644 4.34279L257.107 5.76937L259 5.15439L260.893 5.76937L261.356 4.34279L261.82 2.9162ZM250.541 4.74861L251.004 6.17519L251.468 7.60178L245.828 9.43418L245.365 8.0076L244.901 6.58101L250.541 4.74861ZM239.262 8.41342L239.725 9.84L240.189 11.2666L234.549 13.099L234.086 11.6724L233.622 10.2458L239.262 8.41342ZM227.982 12.0782L228.446 13.5048L228.909 14.9314L223.27 16.7638L222.806 15.3372L222.343 13.9106L227.982 12.0782ZM216.703 15.743L217.167 17.1696L217.63 18.5962L215.738 19.2112L214.568 20.8212L213.354 19.9396L212.141 19.0579L213.884 16.6592L216.703 15.743ZM208.655 23.8552L209.869 24.7369L211.082 25.6185L207.597 30.4158L206.383 29.5342L205.17 28.6525L208.655 23.8552ZM201.684 33.4498L202.898 34.3315L204.112 35.2131L200.626 40.0104L199.413 39.1287L198.199 38.2471L201.684 33.4498ZM194.714 43.0444L195.927 43.926L197.141 44.8077L193.655 49.605L192.442 48.7233L191.228 47.8417L194.714 43.0444ZM186 99.511H187.5H189V101.501L190.17 103.111L188.956 103.993L187.743 104.875L186 102.476V99.511ZM191.228 109.672L192.442 108.79L193.655 107.908L197.141 112.706L195.927 113.587L194.714 114.469L191.228 109.672ZM198.199 119.266L199.413 118.385L200.626 117.503L204.112 122.3L202.898 123.182L201.684 124.064L198.199 119.266ZM205.17 128.861L206.383 127.979L207.597 127.098L211.082 131.895L209.869 132.777L208.655 133.658L205.17 128.861ZM212.141 138.456L213.354 137.574L214.568 136.692L215.738 138.302L217.63 138.917L217.167 140.344L216.703 141.77L213.884 140.854L212.141 138.456ZM222.343 143.603L222.806 142.176L223.27 140.75L228.909 142.582L228.446 144.009L227.982 145.435L222.343 143.603ZM233.622 147.268L234.086 145.841L234.549 144.415L240.189 146.247L239.725 147.674L239.262 149.1L233.622 147.268ZM244.901 150.932L245.365 149.506L245.828 148.079L251.468 149.912L251.004 151.338L250.541 152.765L244.901 150.932ZM256.18 154.597L256.644 153.171L257.107 151.744L259 152.359L260.893 151.744L261.356 153.171L261.82 154.597L259 155.514L256.18 154.597ZM267.459 152.765L266.996 151.338L266.532 149.912L272.172 148.079L272.635 149.506L273.099 150.932L267.459 152.765ZM278.738 149.1L278.275 147.674L277.811 146.247L283.451 144.415L283.915 145.841L284.378 147.268L278.738 149.1ZM290.018 145.435L289.554 144.009L289.091 142.582L294.73 140.75L295.194 142.176L295.657 143.603L290.018 145.435ZM301.297 141.77L300.833 140.344L300.37 138.917L302.262 138.302L303.432 136.692L304.646 137.574L305.859 138.456L304.116 140.854L301.297 141.77ZM309.345 133.658L308.131 132.777L306.918 131.895L310.403 127.098L311.617 127.979L312.83 128.861L309.345 133.658ZM316.316 124.064L315.102 123.182L313.888 122.3L317.374 117.503L318.587 118.385L319.801 119.266L316.316 124.064ZM323.286 114.469L322.073 113.587L320.859 112.706L324.345 107.908L325.558 108.79L326.772 109.672L323.286 114.469ZM332 58.0025H330.5H329V56.0124L327.83 54.4023L329.044 53.5206L330.257 52.639L332 55.0376V58.0025ZM326.772 47.8417L325.558 48.7233L324.345 49.605L320.859 44.8077L322.073 43.926L323.286 43.0444L326.772 47.8417ZM319.801 38.2471L318.587 39.1288L317.374 40.0104L313.888 35.2131L315.102 34.3315L316.316 33.4498L319.801 38.2471ZM312.83 28.6525L311.617 29.5342L310.403 30.4158L306.918 25.6185L308.131 24.7369L309.345 23.8552L312.83 28.6525ZM305.859 19.0579L304.646 19.9396L303.432 20.8212L302.262 19.2112L300.37 18.5962L300.833 17.1696L301.297 15.743L304.116 16.6592L305.859 19.0579ZM295.657 13.9106L295.194 15.3372L294.73 16.7638L289.091 14.9314L289.554 13.5048L290.018 12.0782L295.657 13.9106ZM284.378 10.2458L283.915 11.6724L283.451 13.099L277.811 11.2666L278.275 9.84L278.738 8.41342L284.378 10.2458ZM273.099 6.58101L272.635 8.0076L272.172 9.43418L266.532 7.60178L266.996 6.17519L267.459 4.74861L273.099 6.58101ZM332 63.9323H330.5H329V69.8621H330.5H332V63.9323ZM332 75.7919H330.5H329V81.7216H330.5H332V75.7919ZM332 87.6514H330.5H329V93.5812H330.5H332V87.6514ZM332 99.511H330.5H329V101.501L327.83 103.111L329.044 103.993L330.257 104.875L332 102.476V99.511ZM186 93.5812H187.5H189V87.6514H187.5H186V93.5812ZM186 81.7216H187.5H189V75.7919H187.5H186V81.7216ZM186 69.8621H187.5H189V63.9323H187.5H186V69.8621ZM186 58.0025H187.5H189V56.0124L190.17 54.4023L188.956 53.5206L187.743 52.639L186 55.0376V58.0025ZM270.901 42.6758H246.506V38.6758H270.901V42.6758Z" fill="#9878FF"/>
<path fill-rule="evenodd" clip-rule="evenodd" d="M489.75 35.876L488.29 35.5333C488.167 36.0552 488.025 36.5694 487.864 37.0752L486.333 41.8831L491.289 40.9314C491.612 40.8694 491.937 40.8149 492.266 40.768L492.053 39.283L491.923 38.3673L492.152 38.4403L493.581 38.8954C493.718 38.4654 493.845 38.0306 493.96 37.5915C493.424 37.6198 492.893 37.6658 492.367 37.729C492.191 37.7501 492.016 37.7732 491.841 37.7981C491.466 37.8518 491.093 37.9143 490.723 37.9853C490.89 37.4589 491.04 36.9245 491.171 36.3829C491.185 36.3282 491.198 36.2735 491.211 36.2187C491.3 35.8378 491.38 35.4534 491.451 35.0657L491.417 34.8283C490.994 34.8887 490.574 34.9591 490.157 35.0391L490.344 36.0155L489.75 35.876ZM491.769 32.5989L490.273 32.4849L488.778 32.3709C488.818 31.8423 488.839 31.3075 488.839 30.7675C488.839 29.8454 488.779 28.9389 488.663 28.0512L490.15 27.8572L491.638 27.6632C491.77 28.6792 491.839 29.7153 491.839 30.7675C491.839 31.3837 491.815 31.9944 491.769 32.5989ZM490.035 21.6696C489.234 19.7373 488.185 17.9337 486.928 16.2982L485.739 17.2122L484.549 18.1262C485.648 19.5562 486.564 21.132 487.264 22.8187L488.65 22.2441L490.035 21.6696ZM482.54 11.9104L481.626 13.0997L480.712 14.2891C479.282 13.1902 477.707 12.2741 476.02 11.5747L476.594 10.1891L477.169 8.80349C479.101 9.60475 480.905 10.6536 482.54 11.9104ZM471.175 7.20089L470.981 8.68829L470.787 10.1757C469.9 10.0599 468.993 10 468.071 10C467.022 10 465.993 10.0776 464.989 10.2268L464.768 8.74307L464.548 7.25936C465.697 7.08852 466.874 7 468.071 7C469.123 7 470.159 7.06836 471.175 7.20089ZM457.812 9.32221L458.46 10.6749L459.108 12.0276C457.239 12.9236 455.523 14.0921 454.012 15.4827L452.996 14.379L451.98 13.2753C453.707 11.6855 455.671 10.3483 457.812 9.32221ZM440.022 13.2753C438.294 11.6855 436.331 10.3483 434.19 9.32221L433.542 10.6749L432.893 12.0276C434.763 12.9236 436.479 14.0921 437.99 15.4827L439.006 14.379L440.022 13.2753ZM427.454 7.25936L427.233 8.74307L427.013 10.2268C426.009 10.0776 424.98 10 423.931 10C423.009 10 422.102 10.0599 421.214 10.1757L421.02 8.68829L420.826 7.20089C421.842 7.06836 422.878 7 423.931 7C425.128 7 426.304 7.08852 427.454 7.25936ZM414.833 8.80349L415.407 10.1891L415.982 11.5747C414.295 12.2741 412.719 13.1902 411.289 14.2891L410.375 13.0997L409.461 11.9104C411.097 10.6536 412.9 9.60475 414.833 8.80349ZM405.073 16.2982L406.263 17.2122L407.452 18.1262C406.353 19.5562 405.437 21.132 404.738 22.8187L403.352 22.2441L401.967 21.6696C402.768 19.7373 403.817 17.9337 405.073 16.2982ZM400.364 27.6632L401.851 27.8572L403.339 28.0512C403.223 28.9389 403.163 29.8454 403.163 30.7675C403.163 31.3076 403.184 31.8423 403.224 32.371L401.728 32.485L400.233 32.599C400.187 31.9945 400.163 31.3837 400.163 30.7675C400.163 29.7153 400.231 28.6792 400.364 27.6632ZM397.902 37.5846L397.831 39.083L397.761 40.5813C397.432 40.5659 397.101 40.558 396.767 40.558C395.845 40.558 394.939 40.6179 394.051 40.7337L393.857 39.2463L393.663 37.7589C394.679 37.6264 395.715 37.558 396.767 37.558C397.148 37.558 397.526 37.567 397.902 37.5846ZM398.042 37.5916C398.157 38.0308 398.283 38.4657 398.42 38.8958L399.85 38.4408L400.079 38.3679L399.948 39.2833L399.736 40.7682C400.064 40.8151 400.39 40.8697 400.713 40.9318L405.669 41.884L404.138 37.0755C403.977 36.5697 403.834 36.0555 403.712 35.5336L402.252 35.8763L401.658 36.0157L401.845 35.0396C401.428 34.9595 401.008 34.889 400.585 34.8285L400.551 35.0652C400.622 35.4532 400.702 35.8378 400.791 36.219C400.804 36.2738 400.817 36.3285 400.83 36.3832C400.962 36.9249 401.111 37.4592 401.279 37.9857C400.909 37.9146 400.536 37.8521 400.16 37.7983C399.986 37.7734 399.81 37.7504 399.635 37.7292C399.109 37.666 398.578 37.6199 398.042 37.5916ZM444.282 18.4849C444.337 18.5758 444.392 18.6671 444.446 18.7587C444.7 19.1918 444.94 19.6337 445.167 20.0838C445.47 20.6851 445.749 21.3011 446.001 21.9303C446.253 21.3011 446.531 20.6851 446.834 20.0838C447.061 19.6337 447.302 19.1918 447.556 18.7587C447.61 18.6671 447.664 18.5758 447.719 18.4849C447.809 18.6586 447.897 18.8334 447.983 19.0092L448.85 19.5177L450.144 20.2767C449.625 21.1607 449.17 22.086 448.786 23.0464L446.001 29.9946L443.216 23.0464C442.831 22.086 442.377 21.1607 441.858 20.2767L443.152 19.5177L444.019 19.0092C444.105 18.8334 444.193 18.6586 444.282 18.4849ZM494.099 37.5846L494.169 39.083L494.239 40.5813C494.568 40.5659 494.899 40.558 495.232 40.558C496.154 40.558 497.061 40.6179 497.949 40.7337L498.143 39.2463L498.337 37.7589C497.321 37.6264 496.284 37.558 495.232 37.558C494.852 37.558 494.474 37.567 494.099 37.5846ZM504.33 39.3615L503.756 40.7471L503.181 42.1327C504.868 42.8322 506.444 43.7483 507.874 44.8472L508.788 43.6578L509.702 42.4684C508.066 41.2116 506.262 40.1628 504.33 39.3615ZM514.089 46.8562L512.9 47.7702L511.711 48.6842C512.81 50.1142 513.726 51.6901 514.425 53.3768L515.811 52.8022L517.196 52.2276C516.395 50.2954 515.346 48.4917 514.089 46.8562ZM518.799 58.2212L517.312 58.4153L515.824 58.6093C515.94 59.4969 516 60.4035 516 61.3255C516 62.2314 515.942 63.1223 515.83 63.9951L517.318 64.1857L518.806 64.3764C518.934 63.3775 519 62.3592 519 61.3255C519 60.2734 518.931 59.2372 518.799 58.2212ZM517.257 70.2767L515.867 69.7114L514.478 69.1461C513.801 70.8089 512.915 72.3655 511.85 73.7828L513.05 74.6836L514.249 75.5843C515.467 73.9633 516.482 72.1816 517.257 70.2767ZM510.142 79.8359C509.974 79.7231 509.805 79.6123 509.635 79.5033L509.061 78.78L508.128 77.6049C507.431 78.1579 506.698 78.667 505.933 79.1279L501.669 81.6975L505.933 84.2671C506.698 84.728 507.431 85.2371 508.129 85.7901L509.061 84.615L509.635 83.8915C509.805 83.7825 509.974 83.6717 510.142 83.559C510.093 83.5191 510.043 83.4794 509.993 83.4399C509.627 83.1494 509.252 82.8695 508.869 82.6007C508.418 82.2841 507.955 81.9827 507.482 81.6975C507.955 81.4122 508.418 81.1108 508.869 80.7942C509.252 80.5254 509.627 80.2455 509.993 79.955C510.043 79.9155 510.092 79.8758 510.142 79.8359ZM514.25 87.8106L513.05 88.7114L511.851 89.6122C512.915 91.0295 513.802 92.5861 514.478 94.2489L515.868 93.6837L517.257 93.1184C516.482 91.2134 515.467 89.4317 514.25 87.8106ZM518.806 99.0188L517.319 99.2095L515.831 99.4001C515.943 100.273 516 101.164 516 102.07C516 102.992 515.94 103.898 515.825 104.786L517.312 104.98L518.799 105.174C518.932 104.158 519 103.122 519 102.07C519 101.036 518.934 100.018 518.806 99.0188ZM517.197 111.168L515.811 110.593L514.426 110.019C513.726 111.705 512.81 113.281 511.711 114.711L512.901 115.625L514.09 116.539C515.347 114.904 516.396 113.1 517.197 111.168ZM509.702 120.927L508.788 119.737L507.874 118.548C506.444 119.647 504.868 120.563 503.182 121.263L503.756 122.648L504.331 124.034C506.263 123.232 508.067 122.184 509.702 120.927ZM498.337 125.636L498.143 124.149L497.949 122.662C497.061 122.777 496.155 122.837 495.233 122.837C494.9 122.837 494.569 122.829 494.24 122.814L494.169 124.312L494.099 125.811C494.475 125.828 494.853 125.837 495.233 125.837C496.285 125.837 497.321 125.769 498.337 125.636ZM493.96 125.804C493.844 125.365 493.718 124.93 493.581 124.5L492.152 124.955L491.922 125.028L492.053 124.112L492.265 122.627C491.937 122.58 491.611 122.526 491.288 122.464L486.333 121.512L487.864 126.32C488.025 126.826 488.167 127.34 488.289 127.862L489.75 127.519L490.344 127.38L490.156 128.356C490.573 128.436 490.993 128.506 491.417 128.567L491.451 128.33C491.38 127.942 491.3 127.557 491.21 127.176C491.197 127.122 491.184 127.067 491.171 127.012C491.04 126.471 490.89 125.936 490.722 125.41C491.092 125.481 491.465 125.543 491.841 125.597C492.016 125.622 492.191 125.645 492.367 125.666C492.893 125.729 493.424 125.775 493.96 125.804ZM491.769 130.796L490.273 130.91L488.777 131.024C488.818 131.553 488.838 132.088 488.838 132.628C488.838 133.55 488.778 134.456 488.663 135.344L490.15 135.538L491.637 135.732C491.77 134.716 491.838 133.68 491.838 132.628C491.838 132.012 491.815 131.401 491.769 130.796ZM490.035 141.726L488.649 141.151L487.264 140.577C486.564 142.263 485.648 143.839 484.549 145.269L485.738 146.183L486.928 147.097C488.185 145.462 489.233 143.658 490.035 141.726ZM482.54 151.485L481.626 150.296L480.712 149.106C479.282 150.205 477.706 151.121 476.019 151.821L476.594 153.206L477.169 154.592C479.101 153.791 480.905 152.742 482.54 151.485ZM471.175 156.194L470.981 154.707L470.787 153.22C469.899 153.335 468.993 153.395 468.071 153.395C467.022 153.395 465.992 153.318 464.988 153.169L464.768 154.652L464.547 156.136C465.697 156.307 466.874 156.395 468.071 156.395C469.123 156.395 470.159 156.327 471.175 156.194ZM457.811 154.073L458.46 152.72L459.108 151.368C457.238 150.472 455.522 149.303 454.011 147.913L452.996 149.016L451.98 150.12C453.707 151.71 455.67 153.047 457.811 154.073ZM447.719 144.91C447.809 144.737 447.897 144.562 447.983 144.386L448.85 143.878L450.143 143.119C449.625 142.235 449.17 141.309 448.785 140.349L446 133.401L443.216 140.349C442.831 141.309 442.376 142.235 441.858 143.119L443.151 143.878L444.018 144.386C444.104 144.562 444.192 144.737 444.282 144.91C444.337 144.819 444.391 144.728 444.445 144.637C444.699 144.203 444.94 143.762 445.167 143.312C445.47 142.71 445.748 142.094 446 141.465C446.253 142.094 446.531 142.71 446.834 143.312C447.061 143.762 447.302 144.203 447.556 144.637C447.61 144.728 447.664 144.819 447.719 144.91ZM440.021 150.12L439.005 149.016L437.99 147.913C436.479 149.303 434.763 150.472 432.893 151.368L433.541 152.72L434.19 154.073C436.33 153.047 438.294 151.71 440.021 150.12ZM427.454 156.136L427.233 154.652L427.013 153.169C426.008 153.318 424.979 153.395 423.93 153.395C423.008 153.395 422.102 153.335 421.214 153.22L421.02 154.707L420.826 156.194C421.842 156.327 422.878 156.395 423.93 156.395C425.127 156.395 426.304 156.307 427.454 156.136ZM414.832 154.592L415.407 153.206L415.981 151.821C414.295 151.121 412.719 150.205 411.289 149.106L410.375 150.296L409.461 151.485C411.096 152.742 412.9 153.791 414.832 154.592ZM405.073 147.097L406.262 146.183L407.452 145.269C406.353 143.839 405.437 142.263 404.737 140.577L403.352 141.151L401.966 141.726C402.767 143.658 403.816 145.462 405.073 147.097ZM400.364 135.732L401.851 135.538L403.338 135.344C403.223 134.456 403.163 133.55 403.163 132.628C403.163 132.088 403.183 131.553 403.224 131.024L401.728 130.91L400.232 130.796C400.186 131.401 400.163 132.012 400.163 132.628C400.163 133.68 400.231 134.716 400.364 135.732ZM400.55 128.33L400.584 128.567C401.008 128.506 401.428 128.436 401.845 128.356L401.657 127.38L402.251 127.519L403.712 127.862C403.834 127.34 403.976 126.826 404.137 126.32L405.668 121.512L400.713 122.464C400.39 122.526 400.064 122.58 399.736 122.627L399.948 124.112L400.079 125.028L399.849 124.955L398.42 124.5C398.283 124.93 398.157 125.365 398.041 125.804C398.577 125.775 399.108 125.729 399.634 125.666C399.81 125.645 399.985 125.622 400.16 125.597C400.536 125.543 400.909 125.481 401.279 125.41C401.111 125.936 400.961 126.471 400.83 127.012C400.817 127.067 400.804 127.122 400.791 127.176C400.701 127.557 400.621 127.942 400.55 128.33ZM397.902 125.811L397.832 124.312L397.761 122.814C397.432 122.829 397.101 122.837 396.768 122.837C395.846 122.837 394.939 122.777 394.052 122.662L393.858 124.149L393.664 125.636C394.68 125.769 395.716 125.837 396.768 125.837C397.148 125.837 397.526 125.828 397.902 125.811ZM387.67 124.034L388.245 122.648L388.819 121.263C387.133 120.563 385.557 119.647 384.127 118.548L383.213 119.737L382.299 120.927C383.934 122.184 385.738 123.232 387.67 124.034ZM377.911 116.539L379.1 115.625L380.29 114.711C379.191 113.281 378.275 111.705 377.575 110.019L376.19 110.593L374.804 111.168C375.605 113.1 376.654 114.904 377.911 116.539ZM373.201 105.174L374.689 104.98L376.176 104.786C376.06 103.898 376.001 102.992 376.001 102.07C376.001 101.164 376.058 100.273 376.17 99.4002L374.682 99.2096L373.195 99.0189C373.067 100.018 373.001 101.036 373.001 102.07C373.001 103.122 373.069 104.158 373.201 105.174ZM374.744 93.1186L376.133 93.6839L377.523 94.2491C378.199 92.5863 379.086 91.0297 380.15 89.6125L378.951 88.7117L377.751 87.8109C376.534 89.432 375.519 91.2137 374.744 93.1186ZM381.858 83.5594C382.026 83.6721 382.195 83.783 382.366 83.892L382.94 84.6153L383.872 85.7904C384.569 85.2374 385.302 84.7283 386.067 84.2674L390.332 81.6977L386.067 79.1282C385.302 78.6673 384.569 78.1582 383.872 77.6052L382.94 78.7803L382.366 79.5038C382.195 79.6128 382.026 79.7236 381.858 79.8363C381.908 79.8762 381.957 79.9159 382.007 79.9554C382.373 80.2458 382.748 80.5257 383.131 80.7946C383.583 81.1112 384.045 81.4125 384.519 81.6978C384.045 81.9831 383.583 82.2844 383.131 82.6011C382.748 82.8699 382.373 83.1498 382.007 83.4402C381.958 83.4798 381.908 83.5195 381.858 83.5594ZM377.751 75.5847L378.95 74.6839L380.15 73.7831C379.085 72.3658 378.199 70.8092 377.522 69.1464L376.133 69.7116L374.743 70.2769C375.518 72.1819 376.533 73.9636 377.751 75.5847ZM373.194 64.3764L374.682 64.1858L376.17 63.9951C376.058 63.1224 376 62.2314 376 61.3255C376 60.4035 376.06 59.4969 376.176 58.6093L374.688 58.4153L373.201 58.2212C373.068 59.2372 373 60.2734 373 61.3255C373 62.3592 373.066 63.3775 373.194 64.3764ZM374.803 52.2276L376.189 52.8022L377.575 53.3768C378.274 51.69 379.19 50.1142 380.289 48.6842L379.1 47.7702L377.91 46.8562C376.654 48.4917 375.605 50.2954 374.803 52.2276ZM382.298 42.4684L383.212 43.6578L384.126 44.8472C385.556 43.7483 387.132 42.8322 388.819 42.1327L388.244 40.7471L387.67 39.3615C385.737 40.1628 383.934 41.2116 382.298 42.4684ZM443.208 47.3751C437.327 46.3493 432.305 42.8821 429.442 40.0196L432.741 36.7197C435.139 39.1177 439.336 41.963 444.01 42.7784C448.493 43.5603 453.597 42.5263 458.351 36.8688L461.923 39.8705C456.069 46.8382 449.281 48.4344 443.208 47.3751Z" fill="#2AED15"/>
<path fill-rule="evenodd" clip-rule="evenodd" d="M125.477 83.7642L126.537 84.8248L126.525 84.8366L125.465 85.8972L124.404 86.9579L125.465 88.0186L126.18 88.7338L125.119 89.7945L124.059 90.8551L122.283 89.0792L120.161 86.9579L122.283 84.8366L124.416 82.7035L125.477 83.7642ZM129.732 92.2856L128.671 93.3463L127.611 94.407L131.162 97.9588L132.223 96.8981L133.284 95.8375L129.732 92.2856ZM136.836 99.3893L135.775 100.45L134.714 101.511L138.266 105.062L139.327 104.002L140.387 102.941L136.836 99.3893ZM143.594 106.148L141.565 108.177L141.91 108.522L141.818 108.614L143.594 110.39L143.686 110.298L144.654 109.33L145.715 108.269L144.654 107.208L143.939 106.493L143.594 106.148ZM139.627 114.356L138.567 113.296L137.506 112.235L133.448 116.294L134.508 117.354L135.569 118.415L139.627 114.356ZM131.511 122.473L130.45 121.413L129.389 120.352L125.331 124.41L126.392 125.471L127.452 126.532L131.511 122.473ZM123.394 130.59L122.333 129.529L121.273 128.469L117.214 132.527L118.275 133.588L119.335 134.649L123.394 130.59ZM115.277 138.707L114.216 137.646L113.156 136.586L109.097 140.644L110.158 141.705L111.219 142.765L115.277 138.707ZM107.252 146.732L105.476 144.956L105.384 145.048L105.039 144.702L103.01 146.732L103.355 147.077L104.07 147.792L105.131 148.853L106.192 147.792L107.16 146.824L107.252 146.732ZM99.8032 143.525L100.864 142.464L101.925 141.404L98.3726 137.852L97.312 138.913L96.2513 139.973L99.8032 143.525ZM92.6994 136.421L93.7601 135.361L94.8207 134.3L91.2689 130.748L90.2082 131.809L89.1475 132.869L92.6994 136.421ZM85.5956 129.318L86.6563 128.257L87.717 127.196L85.941 125.42L83.8197 123.299L81.6984 125.42L79.8268 127.292L80.8875 128.352L81.9482 129.413L82.759 128.602L83.8197 127.542L84.8804 128.602L85.5956 129.318ZM78.205 133.156L77.1444 132.096L76.0837 131.035L72.3406 134.778L73.4013 135.839L74.4619 136.899L78.205 133.156ZM70.7188 140.642L69.6582 139.582L68.5975 138.521L64.8544 142.264L65.9151 143.325L66.9757 144.386L70.7188 140.642ZM63.4824 147.879L61.2909 145.687L60.2303 146.748L59.1696 147.809L59.2398 147.879L60.3004 148.94L61.3611 150L62.4217 148.94L63.2326 148.129L63.4824 147.879ZM54.7867 143.426L55.8473 142.365L56.908 141.304L52.5251 136.922L51.4644 137.982L50.4037 139.043L54.7867 143.426ZM46.0208 134.66L47.0815 133.599L48.1421 132.539L43.7592 128.156L42.6985 129.216L41.6379 130.277L46.0208 134.66ZM37.2549 125.894L38.3156 124.833L39.3763 123.773L34.9933 119.39L33.9327 120.45L32.872 121.511L37.2549 125.894ZM28.4891 117.128L29.5497 116.068L30.6104 115.007L26.2275 110.624L25.1668 111.685L24.1061 112.745L28.4891 117.128ZM19.7232 108.362L20.7839 107.302L21.8445 106.241L17.4616 101.858L16.4009 102.919L15.3403 103.979L19.7232 108.362ZM10.9573 99.5965L12.018 98.5358L13.0787 97.4751L8.69573 93.0922L7.63507 94.1529L6.57441 95.2135L10.9573 99.5965ZM2.19147 90.8306L3.25213 89.7699L4.31279 88.7093L2.12132 86.5178L1.87155 86.7676L1.06066 87.5785L0 88.6391L1.06066 89.6998L2.12132 90.7604L2.19147 90.8306ZM5.61465 83.0245L6.67531 84.0851L7.73597 85.1458L11.4791 81.4027L10.4184 80.342L9.35775 79.2814L5.61465 83.0245ZM13.1009 75.5383L14.1615 76.5989L15.2222 77.6596L18.9653 73.9165L17.9046 72.8558L16.844 71.7952L13.1009 75.5383ZM20.5871 68.0521L21.6477 69.1127L22.7084 70.1734L24.5799 68.3018L26.7013 66.1805L24.5799 64.0592L22.2315 61.7107L21.1708 62.7714L20.1101 63.832L20.3373 64.0592L21.398 65.1199L22.4586 66.1805L21.398 67.2412L20.5871 68.0521ZM15.4132 59.1351L16.4739 58.0745L17.5345 57.0138L12.8376 52.3169L11.7769 53.3775L10.7163 54.4382L15.4132 59.1351ZM6.01936 49.7413L7.08002 48.6806L8.14068 47.6199L5.79222 45.2715L5.7001 45.3636L4.73156 46.3321L3.6709 47.3928L4.73156 48.4535L5.79222 49.5141L6.01936 49.7413ZM9.75851 41.3052L10.8192 42.3659L11.8798 43.4265L15.9382 39.3681L14.8776 38.3074L13.8169 37.2468L9.75851 41.3052ZM17.8753 33.1884L18.936 34.249L19.9966 35.3097L24.055 31.2513L22.9944 30.1906L21.9337 29.13L17.8753 33.1884ZM25.9921 25.0716L27.0528 26.1322L28.1134 27.1929L32.1719 23.1345L31.1112 22.0738L30.0505 21.0132L25.9921 25.0716ZM34.1089 16.9548L35.1696 18.0154L36.2303 19.0761L40.2887 15.0177L39.228 13.957L38.1673 12.8964L34.1089 16.9548ZM42.1336 8.93006L44.4821 11.2786L45.5428 10.2179L46.6035 9.15725L46.3763 8.93006L45.3156 7.8694L44.255 6.80874L43.1943 7.8694L42.2258 8.83794L42.1336 8.93006ZM51.3005 13.8543L50.2398 14.9149L49.1792 15.9756L53.8762 20.6726L54.9368 19.6119L55.9975 18.5513L51.3005 13.8543ZM60.6945 23.2483L59.6339 24.309L58.5732 25.3696L60.9217 27.7181L63.043 29.8395L65.1644 27.7181L67.2974 25.5851L66.2367 24.5244L65.1761 23.4638L65.1644 23.4755L64.1037 24.5362L63.043 25.5968L61.9824 24.5362L60.9217 23.4755L60.6945 23.2483ZM69.4422 19.1977L70.5029 20.2583L71.5635 21.319L75.8296 17.0529L74.769 15.9922L73.7083 14.9315L69.4422 19.1977ZM77.9744 10.6654L79.0351 11.7261L80.0957 12.7867L84.3619 8.52064L83.3012 7.45998L82.2405 6.39932L77.9744 10.6654ZM86.5066 2.13321L87.5673 3.19387L88.628 4.25453L88.6397 4.24279L88.7098 4.31294L89.7705 3.25228L90.8312 2.19162L90.761 2.12147L89.7004 1.06081L88.6397 0.000150584L87.579 1.06081L86.5184 2.12147L86.5066 2.13321ZM95.2141 6.57455L94.1534 7.63521L93.0928 8.69587L97.4757 13.0788L98.5364 12.0181L99.597 10.9575L95.2141 6.57455ZM103.98 15.3404L102.919 16.4011L101.859 17.4617L106.242 21.8447L107.302 20.784L108.363 19.7234L103.98 15.3404ZM112.746 24.1063L111.685 25.167L110.625 26.2276L115.007 30.6105L116.068 29.5499L117.129 28.4892L112.746 24.1063ZM121.512 32.8722L125.895 37.2551L124.834 38.3158L123.773 39.3764L119.39 34.9935L120.451 33.9328L121.512 32.8722ZM130.278 41.638L129.217 42.6987L128.156 43.7594L132.539 48.1423L133.6 47.0816L134.661 46.021L130.278 41.638ZM139.043 50.4039L137.983 51.4646L136.922 52.5252L141.305 56.9082L142.366 55.8475L143.426 54.7868L139.043 50.4039ZM147.809 59.1698L146.749 60.2304L145.688 61.2911L145.758 61.3612L145.746 61.373L146.807 62.4336L147.868 63.4943L147.879 63.4826L148.94 62.4219L150.001 61.3612L148.94 60.3006L147.879 59.2399L147.809 59.1698ZM143.602 67.7604L142.541 66.6997L141.48 65.6391L137.214 69.9052L138.275 70.9659L139.336 72.0265L143.602 67.7604ZM135.069 76.2926L134.009 75.232L132.948 74.1713L128.682 78.4374L129.743 79.4981L130.803 80.5587L135.069 76.2926ZM72.786 38.899C78.5353 39.9018 83.4103 43.2761 86.1884 46.0534L81.9463 50.2966C79.7656 48.1165 75.953 45.542 71.755 44.8097C67.8035 44.1205 63.2826 44.9984 58.992 50.1049L54.3982 46.2451C60.1045 39.4539 66.7902 37.8532 72.786 38.899Z" fill="#0099FF"/>
</svg>
