<svg width="264" height="239" viewBox="0 0 264 239" fill="none" xmlns="http://www.w3.org/2000/svg">
<circle cx="21" cy="88" r="5" fill="white"/>
<circle cx="50" cy="56" r="3" fill="white"/>
<circle opacity="0.4" cx="16" cy="140" r="5" fill="white"/>
<circle cx="182" cy="3" r="3" fill="white"/>
<circle cx="63.5" cy="45.5" r="4.5" fill="white"/>
<circle opacity="0.4" cx="192.5" cy="35.5" r="5.5" fill="white"/>
<circle cx="250.5" cy="62.5" r="2.5" fill="white"/>
<circle cx="247" cy="170" r="6" fill="white"/>
<circle opacity="0.4" cx="260" cy="155" r="4" fill="white"/>
<circle cx="250" cy="112" r="3" fill="white"/>
<circle cx="33" cy="196" r="3" fill="white"/>
<circle opacity="0.4" cx="3" cy="79" r="3" fill="white"/>
<path fill-rule="evenodd" clip-rule="evenodd" d="M125.667 184.361L110.685 184.872L98.8637 194.093L94.7198 208.5L99.8358 222.591L112.258 230.985L127.24 230.474L139.061 221.254L143.205 206.846L138.089 192.755L125.667 184.361ZM111.36 198.303L118.607 195.672L118.175 194.483L110.929 197.114L111.36 198.303Z" fill="#7850F8"/>
<path fill-rule="evenodd" clip-rule="evenodd" d="M163.411 154.136L150.838 145.971L135.867 146.755L124.217 156.19L120.337 170.671L125.709 184.666L138.282 192.831L153.253 192.047L164.903 182.612L168.784 168.132L163.411 154.136ZM143.697 157.365L151.144 159.361L151.471 158.14L144.025 156.144L143.697 157.365Z" fill="#7850F8"/>
<path fill-rule="evenodd" clip-rule="evenodd" d="M146.327 16.534L132.07 11.9014L117.812 16.534L109 28.6624V43.6539L117.812 55.7822L132.07 60.4149L146.327 55.7822L155.139 43.6539V28.6624L146.327 16.534ZM128.121 24.7558H135.831V23.4917H128.121V24.7558Z" fill="#7850F8"/>
<mask id="path-16-inside-1_5205_6699" fill="white">
<path fill-rule="evenodd" clip-rule="evenodd" d="M204.048 98.5566C224.399 115.026 227.546 144.875 211.077 165.226L169.652 216.415C160.116 228.199 146.093 234.215 132.026 233.994C117.96 234.215 103.939 228.199 94.4027 216.415L52.978 165.226C36.5087 144.875 39.6556 115.026 60.0069 98.5566C80.3582 82.0873 110.207 85.2343 126.677 105.586L132.027 112.198L137.378 105.586C153.848 85.2343 183.697 82.0873 204.048 98.5566Z"/>
</mask>
<path d="M211.077 165.226L209.911 164.283L209.911 164.283L211.077 165.226ZM204.048 98.5566L203.104 99.7226L203.104 99.7226L204.048 98.5566ZM169.652 216.415L170.818 217.359L170.818 217.359L169.652 216.415ZM132.026 233.994L132.05 232.495L132.026 232.494L132.003 232.495L132.026 233.994ZM94.4027 216.415L93.2367 217.359L93.2367 217.359L94.4027 216.415ZM52.978 165.226L51.812 166.17L51.812 166.17L52.978 165.226ZM60.0069 98.5566L59.0633 97.3906L59.0633 97.3906L60.0069 98.5566ZM126.677 105.586L127.843 104.642L126.677 105.586ZM132.027 112.198L130.861 113.141L132.027 114.582L133.193 113.141L132.027 112.198ZM137.378 105.586L138.544 106.529L138.544 106.529L137.378 105.586ZM209.911 164.283L207.84 166.842L210.172 168.729L212.243 166.17L209.911 164.283ZM203.697 171.961L199.555 177.08L201.887 178.967L206.029 173.848L203.697 171.961ZM195.412 182.199L191.27 187.318L193.602 189.205L197.744 184.086L195.412 182.199ZM187.127 192.437L182.985 197.555L185.317 199.443L189.459 194.324L187.127 192.437ZM178.842 202.674L174.7 207.793L177.032 209.68L181.174 204.562L178.842 202.674ZM170.557 212.912L168.486 215.472L170.818 217.359L172.889 214.799L170.557 212.912ZM168.486 215.472C167.937 216.151 167.372 216.81 166.793 217.449L169.016 219.463C169.632 218.783 170.233 218.081 170.818 217.359L168.486 215.472ZM163.088 221.101C161.775 222.256 160.408 223.325 158.995 224.308L160.707 226.771C162.214 225.724 163.671 224.584 165.07 223.353L163.088 221.101ZM154.563 227.027C153.029 227.852 151.455 228.585 149.85 229.225L150.961 232.012C152.672 231.33 154.349 230.549 155.984 229.67L154.563 227.027ZM144.917 230.875C143.241 231.332 141.543 231.693 139.83 231.958L140.288 234.923C142.112 234.641 143.922 234.256 145.707 233.769L144.917 230.875ZM134.652 232.462C133.785 232.497 132.918 232.508 132.05 232.495L132.003 235.494C132.927 235.509 133.851 235.497 134.774 235.46L134.652 232.462ZM132.003 232.495C131.135 232.508 130.267 232.497 129.401 232.462L129.279 235.459C130.202 235.497 131.126 235.509 132.05 235.494L132.003 232.495ZM124.224 231.958C122.511 231.693 120.812 231.332 119.136 230.875L118.347 233.769C120.132 234.256 121.941 234.64 123.765 234.923L124.224 231.958ZM114.204 229.225C112.599 228.584 111.025 227.852 109.491 227.027L108.07 229.669C109.705 230.548 111.382 231.329 113.092 232.011L114.204 229.225ZM105.059 224.307C103.646 223.325 102.279 222.256 100.966 221.1L98.9846 223.353C100.384 224.584 101.841 225.723 103.347 226.771L105.059 224.307ZM97.262 217.449C96.6829 216.81 96.1182 216.151 95.5687 215.472L93.2367 217.359C93.8213 218.081 94.4223 218.783 95.0389 219.463L97.262 217.449ZM95.5687 215.472L93.4975 212.912L91.1654 214.799L93.2367 217.359L95.5687 215.472ZM89.355 207.793L85.2125 202.674L82.8805 204.562L87.023 209.68L89.355 207.793ZM81.0701 197.555L76.9276 192.437L74.5955 194.324L78.738 199.443L81.0701 197.555ZM72.7851 187.318L68.6427 182.199L66.3106 184.086L70.4531 189.205L72.7851 187.318ZM64.5002 177.08L60.3577 171.961L58.0257 173.848L62.1681 178.967L64.5002 177.08ZM56.2152 166.842L54.144 164.283L51.812 166.17L53.8832 168.729L56.2152 166.842ZM54.144 164.283C53.5084 163.497 52.9031 162.697 52.3279 161.885L49.879 163.617C50.4915 164.483 51.1358 165.334 51.812 166.17L54.144 164.283ZM49.1866 156.768C48.2443 154.98 47.4302 153.147 46.7429 151.283L43.9281 152.321C44.6607 154.308 45.5284 156.261 46.5326 158.166L49.1866 156.768ZM45.042 145.526C44.6005 143.565 44.2902 141.583 44.1099 139.594L41.1222 139.865C41.3142 141.983 41.6447 144.095 42.1153 146.185L45.042 145.526ZM43.9588 133.59C44.0389 131.587 44.2493 129.592 44.5885 127.617L41.6318 127.109C41.2705 129.212 41.0465 131.337 40.9612 133.47L43.9588 133.59ZM45.9885 121.776C46.5795 119.868 47.2962 117.995 48.1371 116.169L45.4122 114.914C44.5161 116.86 43.7525 118.856 43.1229 120.888L45.9885 121.776ZM51.0012 110.893C52.0622 109.213 53.2405 107.591 54.5349 106.039L52.231 104.117C50.8515 105.771 49.5956 107.5 48.4647 109.291L51.0012 110.893ZM58.6743 101.689C59.4063 101.014 60.1651 100.358 60.9505 99.7226L59.0633 97.3906C58.2277 98.0668 57.4201 98.765 56.6406 99.4838L58.6743 101.689ZM60.9505 99.7226C61.7359 99.087 62.5358 98.4817 63.3486 97.9065L61.6157 95.4576C60.7502 96.0701 59.8989 96.7144 59.0633 97.3906L60.9505 99.7226ZM68.4655 94.7652C70.2533 93.8229 72.0857 93.0088 73.9501 92.3216L72.9125 89.5067C70.9252 90.2393 68.9721 91.107 67.0667 92.1112L68.4655 94.7652ZM79.7072 90.6207C81.6686 90.1791 83.6504 89.8688 85.6392 89.6885L85.3683 86.7008C83.2498 86.8928 81.1383 87.2234 79.0483 87.6939L79.7072 90.6207ZM91.6434 89.5374C93.6458 89.6175 95.6414 89.8279 97.6165 90.1671L98.1244 87.2104C96.021 86.8492 93.8958 86.6251 91.7633 86.5398L91.6434 89.5374ZM103.457 91.5671C105.365 92.1582 107.238 92.8749 109.064 93.7158L110.319 90.9908C108.373 90.0947 106.377 89.3311 104.345 88.7015L103.457 91.5671ZM114.34 96.5799C116.02 97.6408 117.643 98.8191 119.195 100.114L121.116 97.8096C119.462 96.4301 117.733 95.1742 115.942 94.0433L114.34 96.5799ZM123.544 104.253C124.219 104.985 124.875 105.744 125.51 106.529L127.843 104.642C127.166 103.806 126.468 102.999 125.749 102.219L123.544 104.253ZM125.51 106.529L126.848 108.182L129.18 106.295L127.843 104.642L125.51 106.529ZM129.524 111.488L130.861 113.141L133.193 111.254L131.856 109.601L129.524 111.488ZM133.193 113.141L134.531 111.488L132.199 109.601L130.861 111.254L133.193 113.141ZM137.207 108.182L138.544 106.529L136.212 104.642L134.874 106.295L137.207 108.182ZM138.544 106.529C139.18 105.744 139.836 104.985 140.511 104.253L138.305 102.219C137.587 102.999 136.888 103.806 136.212 104.642L138.544 106.529ZM144.86 100.114C146.412 98.8191 148.034 97.6408 149.715 96.5799L148.113 94.0433C146.322 95.1742 144.593 96.4301 142.939 97.8096L144.86 100.114ZM154.99 93.7158C156.817 92.8749 158.69 92.1582 160.598 91.5671L159.71 88.7015C157.678 89.3311 155.682 90.0947 153.736 90.9908L154.99 93.7158ZM166.438 90.1671C168.413 89.8279 170.409 89.6175 172.411 89.5374L172.291 86.5398C170.159 86.6251 168.034 86.8492 165.93 87.2104L166.438 90.1671ZM178.416 89.6885C180.404 89.8688 182.386 90.1791 184.348 90.6207L185.006 87.6939C182.916 87.2234 180.805 86.8928 178.686 86.7008L178.416 89.6885ZM190.105 92.3216C191.969 93.0088 193.801 93.8229 195.589 94.7652L196.988 92.1112C195.083 91.107 193.13 90.2393 191.142 89.5067L190.105 92.3216ZM200.706 97.9065C201.519 98.4817 202.319 99.087 203.104 99.7226L204.991 97.3906C204.156 96.7144 203.305 96.0701 202.439 95.4576L200.706 97.9065ZM203.104 99.7226C203.89 100.358 204.648 101.014 205.38 101.689L207.414 99.4838C206.635 98.765 205.827 98.0668 204.991 97.3906L203.104 99.7226ZM209.52 106.039C210.814 107.591 211.993 109.213 213.054 110.893L215.59 109.291C214.459 107.5 213.203 105.771 211.824 104.117L209.52 106.039ZM215.918 116.169C216.759 117.995 217.475 119.868 218.066 121.776L220.932 120.888C220.302 118.856 219.539 116.86 218.643 114.914L215.918 116.169ZM219.466 127.617C219.806 129.592 220.016 131.587 220.096 133.59L223.094 133.47C223.008 131.337 222.784 129.212 222.423 127.109L219.466 127.617ZM219.945 139.594C219.765 141.583 219.454 143.565 219.013 145.526L221.939 146.185C222.41 144.095 222.741 141.983 222.933 139.865L219.945 139.594ZM217.312 151.283C216.625 153.147 215.81 154.98 214.868 156.768L217.522 158.166C218.526 156.261 219.394 154.308 220.127 152.321L217.312 151.283ZM211.727 161.885C211.152 162.697 210.546 163.497 209.911 164.283L212.243 166.17C212.919 165.334 213.563 164.483 214.176 163.617L211.727 161.885ZM211.077 165.226L208.745 163.339L208.745 163.339L211.077 165.226ZM204.048 98.5566L202.161 100.889L202.161 100.889L204.048 98.5566ZM169.652 216.415L171.984 218.302L171.984 218.302L169.652 216.415ZM132.026 233.994L132.073 230.995L132.026 230.994L131.979 230.995L132.026 233.994ZM94.4027 216.415L92.0706 218.302L92.0706 218.302L94.4027 216.415ZM52.978 165.226L50.6459 167.113L50.6459 167.113L52.978 165.226ZM60.0069 98.5566L58.1197 96.2246L58.1197 96.2246L60.0069 98.5566ZM126.677 105.586L129.009 103.698L126.677 105.586ZM132.027 112.198L129.695 114.085L132.027 116.967L134.359 114.085L132.027 112.198ZM137.378 105.586L139.71 107.473L139.71 107.473L137.378 105.586ZM208.745 163.339L206.674 165.898L211.338 169.673L213.409 167.113L208.745 163.339ZM202.531 171.017L198.389 176.136L203.053 179.911L207.195 174.792L202.531 171.017ZM194.246 181.255L190.104 186.374L194.768 190.148L198.91 185.03L194.246 181.255ZM185.961 191.493L181.819 196.612L186.483 200.386L190.625 195.267L185.961 191.493ZM177.676 201.731L173.534 206.85L178.198 210.624L182.34 205.505L177.676 201.731ZM169.391 211.969L167.32 214.528L171.984 218.302L174.055 215.743L169.391 211.969ZM167.32 214.528C166.788 215.185 166.241 215.823 165.681 216.442L170.127 220.47C170.763 219.769 171.382 219.047 171.984 218.302L167.32 214.528ZM162.097 219.975C160.827 221.092 159.505 222.126 158.139 223.076L161.564 228.003C163.116 226.923 164.618 225.748 166.061 224.479L162.097 219.975ZM153.853 225.706C152.369 226.504 150.847 227.213 149.294 227.832L151.517 233.405C153.28 232.702 155.009 231.897 156.694 230.991L153.853 225.706ZM144.523 229.428C142.901 229.87 141.258 230.219 139.6 230.476L140.517 236.405C142.397 236.115 144.262 235.718 146.101 235.216L144.523 229.428ZM134.591 230.963C133.753 230.997 132.913 231.008 132.073 230.995L131.979 236.994C132.932 237.009 133.884 236.997 134.835 236.958L134.591 230.963ZM131.979 230.995C131.14 231.008 130.3 230.997 129.462 230.963L129.218 236.958C130.169 236.997 131.121 237.009 132.073 236.994L131.979 230.995ZM124.453 230.475C122.796 230.219 121.152 229.869 119.531 229.427L117.952 235.216C119.792 235.718 121.656 236.114 123.536 236.405L124.453 230.475ZM114.759 227.831C113.207 227.212 111.685 226.503 110.201 225.706L107.36 230.99C109.045 231.896 110.774 232.701 112.537 233.404L114.759 227.831ZM105.916 223.076C104.549 222.126 103.227 221.092 101.957 219.974L97.9937 224.479C99.4359 225.748 100.938 226.923 102.491 228.002L105.916 223.076ZM98.3736 216.442C97.8132 215.823 97.2666 215.185 96.7347 214.528L92.0706 218.302C92.6728 219.046 93.292 219.769 93.9273 220.47L98.3736 216.442ZM96.7347 214.528L94.6635 211.969L89.9994 215.743L92.0706 218.302L96.7347 214.528ZM90.521 206.85L86.3786 201.731L81.7145 205.505L85.8569 210.624L90.521 206.85ZM82.2361 196.612L78.0936 191.493L73.4295 195.267L77.572 200.386L82.2361 196.612ZM73.9511 186.374L69.8087 181.255L65.1446 185.03L69.2871 190.148L73.9511 186.374ZM65.6662 176.136L61.5237 171.017L56.8596 174.792L61.0021 179.911L65.6662 176.136ZM57.3813 165.898L55.31 163.339L50.6459 167.113L52.7172 169.673L57.3813 165.898ZM55.31 163.339C54.6948 162.579 54.109 161.805 53.5524 161.018L48.6546 164.484C49.2857 165.376 49.9494 166.253 50.6459 167.113L55.31 163.339ZM50.5135 156.068C49.6022 154.339 48.815 152.567 48.1504 150.764L42.5207 152.84C43.2759 154.888 44.1704 156.902 45.2056 158.866L50.5135 156.068ZM46.5054 145.196C46.0783 143.299 45.7782 141.382 45.6038 139.459L39.6283 140C39.8262 142.184 40.1669 144.36 40.6519 146.514L46.5054 145.196ZM45.4576 133.65C45.5351 131.712 45.7386 129.781 46.0669 127.871L40.1535 126.855C39.7812 129.022 39.5503 131.212 39.4624 133.41L45.4576 133.65ZM47.4212 122.22C47.993 120.375 48.6863 118.562 49.4996 116.796L44.0497 114.287C43.126 116.292 42.339 118.35 41.6901 120.444L47.4212 122.22ZM52.2695 111.694C53.2955 110.069 54.435 108.5 55.6869 106.999L51.079 103.156C49.657 104.861 48.3623 106.644 47.1964 108.49L52.2695 111.694ZM59.6911 102.792C60.3995 102.139 61.1338 101.504 61.8941 100.889L58.1197 96.2246C57.259 96.9211 56.4269 97.6404 55.6238 98.381L59.6911 102.792ZM61.8941 100.889C62.6544 100.273 63.4285 99.6876 64.2151 99.131L60.7493 94.2332C59.8575 94.8643 58.9804 95.528 58.1197 96.2246L61.8941 100.889ZM69.1649 96.0922C70.8939 95.1809 72.666 94.3936 74.4689 93.729L72.3936 88.0993C70.3449 88.8545 68.3315 89.7491 66.3674 90.7842L69.1649 96.0922ZM80.0367 92.084C81.9337 91.6569 83.8507 91.3568 85.7746 91.1824L85.2329 85.2069C83.0495 85.4048 80.8732 85.7455 78.7188 86.2306L80.0367 92.084ZM91.5834 91.0362C93.5208 91.1137 95.4516 91.3173 97.3626 91.6455L98.3783 85.7321C96.2108 85.3598 94.0208 85.1289 91.8233 85.041L91.5834 91.0362ZM103.013 92.9999C104.858 93.5717 106.671 94.265 108.437 95.0783L110.947 89.6283C108.941 88.7046 106.883 87.9176 104.789 87.2687L103.013 92.9999ZM113.539 97.8482C115.164 98.8742 116.733 100.014 118.234 101.265L122.077 96.6577C120.372 95.2356 118.589 93.9409 116.743 92.775L113.539 97.8482ZM122.441 105.27C123.094 105.978 123.729 106.712 124.344 107.473L129.009 103.698C128.312 102.838 127.593 102.006 126.852 101.202L122.441 105.27ZM124.344 107.473L125.682 109.126L130.346 105.351L129.009 103.698L124.344 107.473ZM128.358 112.432L129.695 114.085L134.359 110.31L133.022 108.657L128.358 112.432ZM134.359 114.085L135.697 112.432L131.033 108.657L129.695 110.31L134.359 114.085ZM138.373 109.126L139.71 107.473L135.046 103.698L133.708 105.351L138.373 109.126ZM139.71 107.473C140.326 106.712 140.96 105.978 141.614 105.27L137.203 101.202C136.462 102.006 135.743 102.838 135.046 103.698L139.71 107.473ZM145.821 101.265C147.322 100.014 148.891 98.8741 150.515 97.8482L147.312 92.775C145.466 93.9409 143.683 95.2356 141.978 96.6577L145.821 101.265ZM155.618 95.0783C157.384 94.2649 159.196 93.5717 161.042 92.9999L159.266 87.2687C157.172 87.9176 155.114 88.7046 153.108 89.6283L155.618 95.0783ZM166.692 91.6455C168.603 91.3173 170.534 91.1137 172.471 91.0362L172.231 85.041C170.034 85.1289 167.844 85.3598 165.676 85.7321L166.692 91.6455ZM178.28 91.1824C180.204 91.3568 182.121 91.6569 184.018 92.084L185.336 86.2306C183.182 85.7455 181.005 85.4048 178.822 85.2069L178.28 91.1824ZM189.586 93.729C191.389 94.3936 193.161 95.1809 194.89 96.0921L197.687 90.7842C195.723 89.749 193.71 88.8545 191.661 88.0993L189.586 93.729ZM199.84 99.131C200.626 99.6876 201.4 100.273 202.161 100.889L205.935 96.2245C205.074 95.528 204.197 94.8643 203.305 94.2332L199.84 99.131ZM202.161 100.889C202.921 101.504 203.655 102.139 204.364 102.792L208.431 98.381C207.628 97.6404 206.796 96.9211 205.935 96.2245L202.161 100.889ZM208.368 106.999C209.62 108.5 210.759 110.069 211.785 111.694L216.858 108.49C215.693 106.644 214.398 104.861 212.976 103.156L208.368 106.999ZM214.555 116.796C215.368 118.562 216.062 120.375 216.634 122.22L222.365 120.444C221.716 118.35 220.929 116.292 220.005 114.287L214.555 116.796ZM217.988 127.871C218.316 129.781 218.52 131.712 218.597 133.65L224.592 133.41C224.504 131.212 224.274 129.022 223.901 126.855L217.988 127.871ZM218.451 139.459C218.277 141.382 217.976 143.299 217.549 145.196L223.403 146.514C223.888 144.36 224.229 142.184 224.426 140L218.451 139.459ZM215.904 150.764C215.24 152.567 214.453 154.339 213.541 156.068L218.849 158.866C219.884 156.902 220.779 154.888 221.534 152.84L215.904 150.764ZM210.502 161.018C209.946 161.805 209.36 162.579 208.745 163.339L213.409 167.113C214.105 166.253 214.769 165.376 215.4 164.484L210.502 161.018Z" fill="#7850F8" mask="url(#path-16-inside-1_5205_6699)"/>
</svg>
