<svg width="290" height="226" viewBox="0 0 290 226" fill="none" xmlns="http://www.w3.org/2000/svg">
<path d="M39.9291 70.5939L42.4931 69.3316C43.0135 69.0754 43.6195 69.0578 44.154 69.2833L44.9651 69.6256C46.544 70.2918 46.6084 72.5056 45.0709 73.2626L42.5069 74.5248C41.9865 74.781 41.3805 74.7987 40.846 74.5731L40.0349 74.2309C38.456 73.5646 38.3916 71.3508 39.9291 70.5939Z" fill="#2AED15"/>
<path d="M234.929 47.5939L237.493 46.3316C238.014 46.0754 238.62 46.0578 239.154 46.2833L239.965 46.6256C241.544 47.2918 241.608 49.5056 240.071 50.2626L237.507 51.5248C236.986 51.781 236.38 51.7987 235.846 51.5731L235.035 51.2309C233.456 50.5646 233.392 48.3508 234.929 47.5939Z" fill="#2AED15"/>
<path d="M67.2624 15.3756L69.0215 13.1234C69.3786 12.6662 69.9165 12.3866 70.4959 12.357L71.375 12.3122C73.0866 12.2249 74.108 14.19 73.0531 15.5406L71.294 17.7929C70.937 18.2501 70.399 18.5297 69.8197 18.5592L68.9405 18.6041C67.229 18.6914 66.2075 16.7263 67.2624 15.3756Z" fill="#7850F8"/>
<path d="M267.262 151.376L269.021 149.123C269.379 148.666 269.917 148.387 270.496 148.357L271.375 148.312C273.087 148.225 274.108 150.19 273.053 151.541L271.294 153.793C270.937 154.25 270.399 154.53 269.82 154.559L268.941 154.604C267.229 154.691 266.208 152.726 267.262 151.376Z" fill="#FFCD22"/>
<path d="M280.437 70.452L281.239 67.709C281.402 67.1522 281.799 66.6936 282.326 66.4519L283.126 66.0853C284.684 65.3715 286.36 66.8198 285.879 68.4647L285.077 71.2077C284.914 71.7645 284.518 72.2232 283.99 72.4648L283.19 72.8315C281.632 73.5453 279.957 72.097 280.437 70.452Z" fill="#7850F8"/>
<path d="M5.41958 49.1409L8.27726 49.1155C8.85733 49.1104 9.41106 49.3573 9.79482 49.7923L10.3772 50.4524C11.511 51.7376 10.6089 53.7603 8.89521 53.7755L6.03753 53.8009C5.45746 53.8061 4.90374 53.5591 4.51997 53.1241L3.93759 52.464C2.80381 51.1788 3.70587 49.1562 5.41958 49.1409Z" fill="#0099FF"/>
<path d="M47.4196 168.141L50.2773 168.116C50.8573 168.111 51.4111 168.358 51.7948 168.793L52.3772 169.453C53.511 170.738 52.6089 172.761 50.8952 172.776L48.0375 172.801C47.4575 172.807 46.9037 172.56 46.52 172.125L45.9376 171.464C44.8038 170.179 45.7059 168.157 47.4196 168.141Z" fill="#0099FF"/>
<path d="M177.42 43.1331L180.277 43.1077C180.857 43.1025 181.411 43.3495 181.795 43.7845L182.377 44.4446C183.511 45.7298 182.609 47.7524 180.895 47.7677L178.038 47.7931C177.457 47.7982 176.904 47.5513 176.52 47.1163L175.938 46.4562C174.804 45.171 175.706 43.1483 177.42 43.1331Z" fill="#0099FF"/>
<path d="M79.0797 74.6629L81.9374 74.6375C82.5175 74.6323 83.0712 74.8793 83.455 75.3143L84.0374 75.9744C85.1711 77.2596 84.2691 79.2822 82.5554 79.2975L79.6977 79.3229C79.1176 79.328 78.5639 79.0811 78.1801 78.6461L77.5977 77.9859C76.464 76.7008 77.366 74.6781 79.0797 74.6629Z" fill="#FF3BAB"/>
<path d="M254.42 94.1331L257.277 94.1077C257.857 94.1025 258.411 94.3495 258.795 94.7845L259.377 95.4446C260.511 96.7298 259.609 98.7524 257.895 98.7677L255.038 98.7931C254.457 98.7982 253.904 98.5513 253.52 98.1163L252.938 97.4562C251.804 96.171 252.706 94.1483 254.42 94.1331Z" fill="#FF3BAB"/>
<path d="M198.325 7.0573L199.5 4.45199C199.738 3.92315 200.194 3.52387 200.75 3.35771L201.593 3.10556C203.235 2.61467 204.694 4.28131 203.99 5.84368L202.815 8.449C202.577 8.97784 202.121 9.37711 201.565 9.54327L200.721 9.79543C199.079 10.2863 197.621 8.61967 198.325 7.0573Z" fill="#FF3BAB"/>
<path d="M20.1693 132.736L22.9106 133.543C23.4671 133.707 23.9249 134.104 24.1654 134.632L24.5304 135.433C25.241 136.993 23.7892 138.665 22.1453 138.181L19.404 137.374C18.8475 137.21 18.3897 136.812 18.1491 136.284L17.7841 135.483C17.0736 133.924 18.5254 132.251 20.1693 132.736Z" fill="#FFCD22"/>
<path d="M247.826 203.815L250.567 204.623C251.123 204.787 251.581 205.184 251.822 205.712L252.187 206.513C252.897 208.073 251.445 209.745 249.802 209.261L247.06 208.453C246.504 208.289 246.046 207.892 245.805 207.364L245.44 206.563C244.73 205.003 246.182 203.331 247.826 203.815Z" fill="#7850F8"/>
<path d="M123.826 24.8146L126.567 25.6222C127.123 25.7861 127.581 26.1836 127.822 26.7114L128.187 27.5125C128.897 29.072 127.445 30.7445 125.802 30.2603L123.06 29.4527C122.504 29.2888 122.046 28.8913 121.805 28.3634L121.44 27.5624C120.73 26.0028 122.182 24.3304 123.826 24.8146Z" fill="#FFCD22"/>
<path d="M40.8255 214.815L43.5669 215.623C44.1233 215.787 44.5812 216.184 44.8217 216.712L45.1867 217.513C45.8973 219.073 44.4455 220.745 42.8015 220.261L40.0602 219.453C39.5038 219.289 39.0459 218.892 38.8054 218.364L38.4404 217.563C37.7298 216.003 39.1816 214.331 40.8255 214.815Z" fill="#FFCD22"/>
<path fill-rule="evenodd" clip-rule="evenodd" d="M191.116 86.5879L146 71.9287L100.884 86.5879L73 124.966V172.405L100.884 210.783L146 225.442L191.116 210.783L219 172.405V124.966L191.116 86.5879ZM133.506 112.604H157.901V108.604H133.506V112.604Z" fill="#7850F8"/>
</svg>
