<svg width="189" height="198" viewBox="0 0 189 198" fill="none" xmlns="http://www.w3.org/2000/svg">
<path d="M92.8511 44.6414C87.5178 26.4748 71.4994 -7.74897 53.3511 4.64142C44.9997 12.751 44.0511 29.8418 92.8511 44.6414Z" stroke="#FF3BAB" stroke-width="4"/>
<path d="M94.5005 44.6414C99.8338 26.4748 115.852 -7.74897 134 4.64142C142.352 12.751 143.3 29.8418 94.5005 44.6414Z" stroke="#FF3BAB" stroke-width="4"/>
<path fill-rule="evenodd" clip-rule="evenodd" d="M138.616 58.9102L93.5 44.251L48.3835 58.9102L20.5 97.2886V144.727L48.3835 183.105L93.5 197.764L138.616 183.105L166.5 144.727V97.2886L138.616 58.9102ZM81.0056 84.9267H105.401V80.9267H81.0056V84.9267Z" fill="#7850F8"/>
<path d="M49.6185 60.6115L93.4989 46.3539L137.379 60.6115L164.499 97.9384V144.077L137.379 181.404L93.4989 195.662L49.6185 181.404L22.4989 144.077V97.9384L49.6185 60.6115Z" stroke="#FF3BAB" stroke-width="4"/>
<path fill-rule="evenodd" clip-rule="evenodd" d="M108.818 107.492C113.139 110.989 113.807 117.327 110.311 121.648L101.515 132.517C99.49 135.019 96.5125 136.297 93.5256 136.25C90.5389 136.296 87.5618 135.019 85.537 132.517L76.7414 121.648C73.2445 117.327 73.9127 110.989 78.2338 107.492C82.555 103.995 88.8928 104.664 92.3897 108.985L93.5259 110.389L94.6622 108.985C98.1591 104.664 104.497 103.995 108.818 107.492Z" fill="#FF3BAB"/>
<path d="M93.5 44.751C83.1667 43.0843 69.5 40.2509 37.5 54.2511C19.5 61.251 8 51.7512 2 47.751" stroke="#FF3BAB" stroke-width="4"/>
<path d="M95.5 44.751C105.833 43.0843 119.5 40.2509 151.5 54.2511C169.5 61.251 181 51.7512 187 47.751" stroke="#FF3BAB" stroke-width="4"/>
</svg>
