<svg width="146" height="154" viewBox="0 0 146 154" fill="none" xmlns="http://www.w3.org/2000/svg">
<path fill-rule="evenodd" clip-rule="evenodd" d="M75.8198 0.916202L73 0L70.1802 0.916202L70.6438 2.34279L71.1073 3.76937L73 3.15439L74.8927 3.76937L75.3563 2.34279L75.8198 0.916202ZM64.5407 2.74861L65.0042 4.17519L65.4677 5.60178L59.8282 7.43418L59.3646 6.0076L58.9011 4.58101L64.5407 2.74861ZM53.2615 6.41342L53.7251 7.84L54.1886 9.26659L48.549 11.099L48.0855 9.67241L47.622 8.24582L53.2615 6.41342ZM41.9824 10.0782L42.4459 11.5048L42.9095 12.9314L37.2699 14.7638L36.8064 13.3372L36.3429 11.9106L41.9824 10.0782ZM30.7033 13.743L31.1668 15.1696L31.6304 16.5962L29.7376 17.2112L28.5679 18.8212L27.3543 17.9396L26.1408 17.0579L27.8835 14.6592L30.7033 13.743ZM22.6554 21.8552L23.8689 22.7369L25.0824 23.6185L21.597 28.4158L20.3834 27.5342L19.1699 26.6525L22.6554 21.8552ZM15.6845 31.4498L16.898 32.3315L18.1115 33.2131L14.6261 38.0104L13.4126 37.1287L12.199 36.2471L15.6845 31.4498ZM8.7136 41.0444L9.92713 41.926L11.1407 42.8077L7.65521 47.605L6.44168 46.7233L5.22816 45.8417L8.7136 41.0444ZM0 97.511H1.5H3V99.5011L4.16977 101.111L2.95625 101.993L1.74272 102.875L0 100.476V97.511ZM5.22816 107.672L6.44169 106.79L7.65521 105.908L11.1407 110.706L9.92713 111.587L8.7136 112.469L5.22816 107.672ZM12.199 117.266L13.4126 116.385L14.6261 115.503L18.1115 120.3L16.898 121.182L15.6845 122.064L12.199 117.266ZM19.1699 126.861L20.3834 125.979L21.597 125.098L25.0824 129.895L23.8689 130.777L22.6554 131.658L19.1699 126.861ZM26.1408 136.456L27.3543 135.574L28.5679 134.692L29.7376 136.302L31.6304 136.917L31.1668 138.344L30.7033 139.77L27.8835 138.854L26.1408 136.456ZM36.3429 141.603L36.8064 140.176L37.2699 138.75L42.9095 140.582L42.4459 142.009L41.9824 143.435L36.3429 141.603ZM47.622 145.268L48.0855 143.841L48.549 142.415L54.1886 144.247L53.7251 145.674L53.2615 147.1L47.622 145.268ZM58.9011 148.932L59.3646 147.506L59.8282 146.079L65.4677 147.912L65.0042 149.338L64.5407 150.765L58.9011 148.932ZM70.1802 152.597L70.6438 151.171L71.1073 149.744L73 150.359L74.8927 149.744L75.3563 151.171L75.8198 152.597L73 153.514L70.1802 152.597ZM81.4594 150.765L80.9958 149.338L80.5323 147.912L86.1719 146.079L86.6354 147.506L87.0989 148.932L81.4594 150.765ZM92.7385 147.1L92.2749 145.674L91.8114 144.247L97.451 142.415L97.9145 143.841L98.378 145.268L92.7385 147.1ZM104.018 143.435L103.554 142.009L103.091 140.582L108.73 138.75L109.194 140.176L109.657 141.603L104.018 143.435ZM115.297 139.77L114.833 138.344L114.37 136.917L116.262 136.302L117.432 134.692L118.646 135.574L119.859 136.456L118.116 138.854L115.297 139.77ZM123.345 131.658L122.131 130.777L120.918 129.895L124.403 125.098L125.617 125.979L126.83 126.861L123.345 131.658ZM130.316 122.064L129.102 121.182L127.888 120.3L131.374 115.503L132.587 116.385L133.801 117.266L130.316 122.064ZM137.286 112.469L136.073 111.587L134.859 110.706L138.345 105.908L139.558 106.79L140.772 107.672L137.286 112.469ZM146 56.0025H144.5H143V54.0124L141.83 52.4023L143.044 51.5206L144.257 50.639L146 53.0376V56.0025ZM140.772 45.8417L139.558 46.7233L138.345 47.605L134.859 42.8077L136.073 41.926L137.286 41.0444L140.772 45.8417ZM133.801 36.2471L132.587 37.1288L131.374 38.0104L127.888 33.2131L129.102 32.3315L130.316 31.4498L133.801 36.2471ZM126.83 26.6525L125.617 27.5342L124.403 28.4158L120.918 23.6185L122.131 22.7369L123.345 21.8552L126.83 26.6525ZM119.859 17.0579L118.646 17.9396L117.432 18.8212L116.262 17.2112L114.37 16.5962L114.833 15.1696L115.297 13.743L118.116 14.6592L119.859 17.0579ZM109.657 11.9106L109.194 13.3372L108.73 14.7638L103.091 12.9314L103.554 11.5048L104.018 10.0782L109.657 11.9106ZM98.378 8.24582L97.9145 9.67241L97.451 11.099L91.8114 9.26659L92.2749 7.84L92.7385 6.41342L98.378 8.24582ZM87.0989 4.58101L86.6354 6.0076L86.1719 7.43418L80.5323 5.60178L80.9958 4.17519L81.4593 2.74861L87.0989 4.58101ZM146 61.9323H144.5H143V67.8621H144.5H146V61.9323ZM146 73.7919H144.5H143V79.7216H144.5H146V73.7919ZM146 85.6514H144.5H143V91.5812H144.5H146V85.6514ZM146 97.511H144.5H143V99.5011L141.83 101.111L143.044 101.993L144.257 102.875L146 100.476V97.511ZM0 91.5812H1.5H3V85.6514H1.5H0V91.5812ZM0 79.7216H1.5H3V73.7919H1.5H0V79.7216ZM0 67.8621H1.5H3V61.9323H1.5H0V67.8621ZM0 56.0025H1.5H3V54.0124L4.16977 52.4023L2.95624 51.5206L1.74272 50.639L0 53.0376V56.0025ZM84.9011 40.6758H60.5055V36.6758H84.9011V40.6758Z" fill="#9878FF"/>
</svg>
