<svg width="290" height="225" viewBox="0 0 290 225" fill="none" xmlns="http://www.w3.org/2000/svg">
<path fill-rule="evenodd" clip-rule="evenodd" d="M191.839 98.7675C191.839 101.284 191.448 103.709 190.723 105.985C192.183 105.705 193.69 105.558 195.232 105.558C208.359 105.558 219 116.199 219 129.325C219 137.971 214.384 145.538 207.482 149.697C214.384 153.856 219 161.424 219 170.07C219 183.196 208.359 193.837 195.233 193.837C193.691 193.837 192.183 193.69 190.722 193.41C191.447 195.686 191.838 198.111 191.838 200.628C191.838 213.754 181.197 224.395 168.071 224.395C158.067 224.395 149.507 218.215 146 209.465C142.494 218.215 133.934 224.395 123.93 224.395C110.804 224.395 100.163 213.754 100.163 200.628C100.163 198.111 100.554 195.686 101.279 193.41C99.8182 193.69 98.3103 193.837 96.768 193.837C83.6416 193.837 73.0006 183.196 73.0006 170.07C73.0006 161.424 77.6167 153.857 84.5188 149.698C77.6164 145.539 73 137.971 73 129.325C73 116.199 83.6411 105.558 96.7675 105.558C98.3101 105.558 99.8183 105.705 101.279 105.986C100.554 103.709 100.163 101.284 100.163 98.7675C100.163 85.6411 110.804 75 123.931 75C133.934 75 142.494 81.18 146.001 89.9303C149.508 81.18 158.068 75 168.071 75C181.198 75 191.839 85.6411 191.839 98.7675ZM143.208 115.375C137.327 114.349 132.305 110.882 129.442 108.02L132.741 104.72C135.139 107.118 139.336 109.963 144.01 110.778C148.493 111.56 153.597 110.526 158.351 104.869L161.923 107.871C156.069 114.838 149.281 116.434 143.208 115.375Z" fill="#2AED15"/>
<path d="M39.9291 70.6657L42.4931 69.4034C43.0135 69.1472 43.6195 69.1296 44.154 69.3551L44.9651 69.6973C46.544 70.3636 46.6084 72.5774 45.0709 73.3343L42.5069 74.5966C41.9865 74.8528 41.3805 74.8704 40.846 74.6449L40.0349 74.3027C38.456 73.6364 38.3916 71.4226 39.9291 70.6657Z" fill="#2AED15"/>
<path d="M234.929 47.6657L237.493 46.4034C238.014 46.1472 238.62 46.1296 239.154 46.3551L239.965 46.6973C241.544 47.3636 241.608 49.5774 240.071 50.3343L237.507 51.5966C236.986 51.8528 236.38 51.8704 235.846 51.6449L235.035 51.3027C233.456 50.6364 233.392 48.4226 234.929 47.6657Z" fill="#2AED15"/>
<path d="M67.2624 15.4459L69.0215 13.1937C69.3786 12.7365 69.9165 12.4569 70.4959 12.4273L71.375 12.3825C73.0866 12.2952 74.108 14.2603 73.0531 15.611L71.294 17.8632C70.937 18.3204 70.399 18.6 69.8197 18.6296L68.9405 18.6744C67.229 18.7617 66.2075 16.7966 67.2624 15.4459Z" fill="#7850F8"/>
<path d="M267.262 151.446L269.021 149.194C269.379 148.736 269.917 148.457 270.496 148.427L271.375 148.382C273.087 148.295 274.108 150.26 273.053 151.611L271.294 153.863C270.937 154.32 270.399 154.6 269.82 154.63L268.941 154.674C267.229 154.762 266.208 152.797 267.262 151.446Z" fill="#FFCD22"/>
<path d="M280.437 70.5218L281.239 67.7789C281.402 67.2221 281.799 66.7634 282.326 66.5218L283.126 66.1551C284.684 65.4413 286.36 66.8896 285.879 68.5345L285.077 71.2775C284.914 71.8343 284.518 72.293 283.99 72.5346L283.19 72.9013C281.632 73.6151 279.957 72.1668 280.437 70.5218Z" fill="#7850F8"/>
<path d="M5.41958 49.2127L8.27726 49.1873C8.85733 49.1821 9.41106 49.4291 9.79482 49.8641L10.3772 50.5242C11.511 51.8094 10.6089 53.832 8.89521 53.8473L6.03753 53.8727C5.45746 53.8778 4.90374 53.6309 4.51997 53.1959L3.93759 52.5358C2.80381 51.2506 3.70587 49.2279 5.41958 49.2127Z" fill="#0099FF"/>
<path d="M47.4215 168.213L50.2792 168.187C50.8593 168.182 51.413 168.429 51.7968 168.864L52.3792 169.524C53.5129 170.809 52.6109 172.832 50.8972 172.847L48.0395 172.873C47.4594 172.878 46.9057 172.631 46.5219 172.196L45.9395 171.536C44.8058 170.251 45.7078 168.228 47.4215 168.213Z" fill="#0099FF"/>
<path d="M177.422 43.2049L180.279 43.1795C180.859 43.1743 181.413 43.4213 181.797 43.8563L182.379 44.5164C183.513 45.8015 182.611 47.8242 180.897 47.8395L178.039 47.8649C177.459 47.87 176.906 47.6231 176.522 47.1881L175.94 46.5279C174.806 45.2428 175.708 43.2201 177.422 43.2049Z" fill="#0099FF"/>
<path d="M79.0797 74.7322L81.9374 74.7068C82.5175 74.7017 83.0712 74.9486 83.455 75.3836L84.0374 76.0437C85.1711 77.3289 84.2691 79.3516 82.5554 79.3668L79.6977 79.3922C79.1176 79.3974 78.5639 79.1504 78.1801 78.7154L77.5977 78.0553C76.464 76.7701 77.366 74.7475 79.0797 74.7322Z" fill="#FF3BAB"/>
<path d="M254.422 94.2049L257.279 94.1795C257.859 94.1743 258.413 94.4213 258.797 94.8563L259.379 95.5164C260.513 96.8015 259.611 98.8242 257.897 98.8395L255.039 98.8649C254.459 98.87 253.906 98.6231 253.522 98.1881L252.94 97.5279C251.806 96.2428 252.708 94.2201 254.422 94.2049Z" fill="#FF3BAB"/>
<path d="M198.327 7.1281L199.502 4.52279C199.74 3.99395 200.196 3.59467 200.752 3.42851L201.595 3.17636C203.237 2.68547 204.696 4.35211 203.992 5.91448L202.817 8.5198C202.579 9.04864 202.123 9.44792 201.567 9.61407L200.723 9.86623C199.081 10.3571 197.623 8.69047 198.327 7.1281Z" fill="#FF3BAB"/>
<path d="M20.1693 132.804L22.9106 133.612C23.4671 133.776 23.9249 134.173 24.1654 134.701L24.5304 135.502C25.241 137.062 23.7892 138.734 22.1453 138.25L19.404 137.442C18.8475 137.279 18.3897 136.881 18.1491 136.353L17.7841 135.552C17.0736 133.993 18.5254 132.32 20.1693 132.804Z" fill="#FFCD22"/>
<path d="M247.827 203.886L250.569 204.694C251.125 204.858 251.583 205.255 251.824 205.783L252.189 206.584C252.899 208.144 251.447 209.816 249.803 209.332L247.062 208.524C246.506 208.361 246.048 207.963 245.807 207.435L245.442 206.634C244.732 205.075 246.184 203.402 247.827 203.886Z" fill="#7850F8"/>
<path d="M123.827 24.8864L126.569 25.694C127.125 25.8579 127.583 26.2553 127.824 26.7832L128.189 27.5843C128.899 29.1438 127.447 30.8163 125.803 30.332L123.062 29.5245C122.506 29.3605 122.048 28.9631 121.807 28.4352L121.442 27.6341C120.732 26.0746 122.184 24.4021 123.827 24.8864Z" fill="#FFCD22"/>
<path d="M40.8275 214.886L43.5688 215.694C44.1253 215.858 44.5831 216.255 44.8236 216.783L45.1886 217.584C45.8992 219.144 44.4474 220.816 42.8035 220.332L40.0622 219.524C39.5057 219.361 39.0479 218.963 38.8073 218.435L38.4423 217.634C37.7318 216.075 39.1836 214.402 40.8275 214.886Z" fill="#FFCD22"/>
</svg>
