<svg width="30" height="30" viewBox="0 0 30 30" fill="none" xmlns="http://www.w3.org/2000/svg">
<path d="M23.5938 5.46875H21.0156V4.60938C21.0156 4.38145 20.9251 4.16287 20.7639 4.00171C20.6028 3.84054 20.3842 3.75 20.1562 3.75C19.9283 3.75 19.7097 3.84054 19.5486 4.00171C19.3874 4.16287 19.2969 4.38145 19.2969 4.60938V5.46875H10.7031V4.60938C10.7031 4.38145 10.6126 4.16287 10.4514 4.00171C10.2903 3.84054 10.0717 3.75 9.84375 3.75C9.61583 3.75 9.39724 3.84054 9.23608 4.00171C9.07492 4.16287 8.98438 4.38145 8.98438 4.60938V5.46875H6.40625C5.95041 5.46875 5.51324 5.64983 5.19091 5.97216C4.86858 6.29449 4.6875 6.73166 4.6875 7.1875V24.375C4.6875 24.8308 4.86858 25.268 5.19091 25.5903C5.51324 25.9127 5.95041 26.0938 6.40625 26.0938H23.5938C24.0496 26.0938 24.4868 25.9127 24.8091 25.5903C25.1314 25.268 25.3125 24.8308 25.3125 24.375V7.1875C25.3125 6.73166 25.1314 6.29449 24.8091 5.97216C24.4868 5.64983 24.0496 5.46875 23.5938 5.46875ZM8.98438 7.1875V8.04688C8.98438 8.2748 9.07492 8.49338 9.23608 8.65454C9.39724 8.81571 9.61583 8.90625 9.84375 8.90625C10.0717 8.90625 10.2903 8.81571 10.4514 8.65454C10.6126 8.49338 10.7031 8.2748 10.7031 8.04688V7.1875H19.2969V8.04688C19.2969 8.2748 19.3874 8.49338 19.5486 8.65454C19.7097 8.81571 19.9283 8.90625 20.1562 8.90625C20.3842 8.90625 20.6028 8.81571 20.7639 8.65454C20.9251 8.49338 21.0156 8.2748 21.0156 8.04688V7.1875H23.5938V10.625H6.40625V7.1875H8.98438ZM23.5938 24.375H6.40625V12.3438H23.5938V24.375ZM16.2891 16.2109C16.2891 16.4659 16.2135 16.7151 16.0718 16.9271C15.9302 17.1391 15.7288 17.3043 15.4933 17.4019C15.2578 17.4994 14.9986 17.525 14.7485 17.4752C14.4985 17.4255 14.2688 17.3027 14.0885 17.1224C13.9082 16.9422 13.7854 16.7125 13.7357 16.4624C13.686 16.2124 13.7115 15.9532 13.8091 15.7176C13.9066 15.4821 14.0719 15.2808 14.2838 15.1391C14.4958 14.9975 14.745 14.9219 15 14.9219C15.3419 14.9219 15.6698 15.0577 15.9115 15.2994C16.1533 15.5412 16.2891 15.8691 16.2891 16.2109ZM21.0156 16.2109C21.0156 16.4659 20.94 16.7151 20.7984 16.9271C20.6567 17.1391 20.4554 17.3043 20.2199 17.4019C19.9843 17.4994 19.7251 17.525 19.4751 17.4752C19.225 17.4255 18.9953 17.3027 18.8151 17.1224C18.6348 16.9422 18.512 16.7125 18.4623 16.4624C18.4125 16.2124 18.4381 15.9532 18.5356 15.7176C18.6332 15.4821 18.7984 15.2808 19.0104 15.1391C19.2224 14.9975 19.4716 14.9219 19.7266 14.9219C20.0684 14.9219 20.3963 15.0577 20.6381 15.2994C20.8798 15.5412 21.0156 15.8691 21.0156 16.2109ZM11.5625 20.5078C11.5625 20.7628 11.4869 21.012 11.3453 21.224C11.2036 21.436 11.0023 21.6012 10.7667 21.6987C10.5312 21.7963 10.272 21.8218 10.022 21.7721C9.7719 21.7224 9.54221 21.5996 9.36193 21.4193C9.18165 21.239 9.05888 21.0093 9.00914 20.7593C8.9594 20.5092 8.98493 20.2501 9.0825 20.0145C9.18007 19.779 9.34529 19.5776 9.55727 19.436C9.76926 19.2944 10.0185 19.2188 10.2734 19.2188C10.6153 19.2188 10.9432 19.3546 11.1849 19.5963C11.4267 19.8381 11.5625 20.1659 11.5625 20.5078ZM16.2891 20.5078C16.2891 20.7628 16.2135 21.012 16.0718 21.224C15.9302 21.436 15.7288 21.6012 15.4933 21.6987C15.2578 21.7963 14.9986 21.8218 14.7485 21.7721C14.4985 21.7224 14.2688 21.5996 14.0885 21.4193C13.9082 21.239 13.7854 21.0093 13.7357 20.7593C13.686 20.5092 13.7115 20.2501 13.8091 20.0145C13.9066 19.779 14.0719 19.5776 14.2838 19.436C14.4958 19.2944 14.745 19.2188 15 19.2188C15.3419 19.2188 15.6698 19.3546 15.9115 19.5963C16.1533 19.8381 16.2891 20.1659 16.2891 20.5078ZM21.0156 20.5078C21.0156 20.7628 20.94 21.012 20.7984 21.224C20.6567 21.436 20.4554 21.6012 20.2199 21.6987C19.9843 21.7963 19.7251 21.8218 19.4751 21.7721C19.225 21.7224 18.9953 21.5996 18.8151 21.4193C18.6348 21.239 18.512 21.0093 18.4623 20.7593C18.4125 20.5092 18.4381 20.2501 18.5356 20.0145C18.6332 19.779 18.7984 19.5776 19.0104 19.436C19.2224 19.2944 19.4716 19.2188 19.7266 19.2188C20.0684 19.2188 20.3963 19.3546 20.6381 19.5963C20.8798 19.8381 21.0156 20.1659 21.0156 20.5078Z" fill-opacity="0.2"/>
</svg>
