<svg width="24" height="24" viewBox="0 0 24 24" fill="none" xmlns="http://www.w3.org/2000/svg">
<path d="M20 13.2492V18.5824C20 18.7592 19.9298 18.9287 19.8047 19.0538C19.6797 19.1788 19.5101 19.249 19.3333 19.249H4.66667C4.48986 19.249 4.32029 19.1788 4.19526 19.0538C4.07024 18.9287 4 18.7592 4 18.5824V13.2492C4 13.0724 4.07024 12.9029 4.19526 12.7778C4.32029 12.6528 4.48986 12.5826 4.66667 12.5826C4.84348 12.5826 5.01305 12.6528 5.13807 12.7778C5.2631 12.9029 5.33333 13.0724 5.33333 13.2492V17.9157H18.6667V13.2492C18.6667 13.0724 18.7369 12.9029 18.8619 12.7778C18.987 12.6528 19.1565 12.5826 19.3333 12.5826C19.5101 12.5826 19.6797 12.6528 19.8047 12.7778C19.9298 12.9029 20 13.0724 20 13.2492ZM9.13833 7.72107L11.3333 5.52531V13.2492C11.3333 13.426 11.4036 13.5956 11.5286 13.7206C11.6536 13.8456 11.8232 13.9159 12 13.9159C12.1768 13.9159 12.3464 13.8456 12.4714 13.7206C12.5964 13.5956 12.6667 13.426 12.6667 13.2492V5.52531L14.8617 7.72107C14.9868 7.84616 15.1564 7.91643 15.3333 7.91643C15.5102 7.91643 15.6799 7.84616 15.805 7.72107C15.9301 7.59598 16.0004 7.42632 16.0004 7.24942C16.0004 7.07251 15.9301 6.90285 15.805 6.77777L12.4717 3.44454C12.4098 3.38256 12.3362 3.33339 12.2553 3.29984C12.1744 3.26629 12.0876 3.24902 12 3.24902C11.9124 3.24902 11.8256 3.26629 11.7447 3.29984C11.6638 3.33339 11.5902 3.38256 11.5283 3.44454L8.195 6.77777C8.06991 6.90285 7.99963 7.07251 7.99963 7.24942C7.99963 7.42632 8.06991 7.59598 8.195 7.72107C8.32009 7.84616 8.48976 7.91643 8.66667 7.91643C8.84358 7.91643 9.01324 7.84616 9.13833 7.72107Z" />
</svg>
