<svg width="10" height="12" viewBox="0 0 10 12" fill="none" xmlns="http://www.w3.org/2000/svg">
<g clip-path="url(#clip0_3155_15534)">
<path d="M9.54313 1.01621C9.49821 0.981206 9.44591 0.956895 9.39019 0.945118C9.33447 0.933341 9.27681 0.934409 9.22157 0.948239L3.22157 2.44824C3.14044 2.46852 3.06842 2.51533 3.01695 2.58124C2.96548 2.64715 2.93752 2.72837 2.9375 2.81199V7.97199C2.62467 7.76297 2.25097 7.66449 1.87576 7.69219C1.50055 7.71989 1.14536 7.87218 0.866615 8.12488C0.587873 8.37757 0.401569 8.71616 0.337303 9.08686C0.273038 9.45756 0.334496 9.83911 0.511914 10.1709C0.689332 10.5027 0.972533 10.7656 1.31652 10.918C1.66051 11.0704 2.04556 11.1034 2.41049 11.0119C2.77542 10.9204 3.0993 10.7096 3.33067 10.4129C3.56205 10.1162 3.68764 9.75072 3.6875 9.37449V5.35496L8.9375 4.04246V6.47199C8.62467 6.26297 8.25097 6.16449 7.87576 6.19219C7.50055 6.21989 7.14536 6.37218 6.86662 6.62488C6.58787 6.87757 6.40157 7.21616 6.3373 7.58686C6.27304 7.95756 6.3345 8.33911 6.51191 8.67088C6.68933 9.00265 6.97253 9.26562 7.31652 9.418C7.66051 9.57038 8.04556 9.60344 8.41049 9.51192C8.77542 9.4204 9.0993 9.20956 9.33068 8.91288C9.56205 8.61621 9.68764 8.25072 9.6875 7.87449V1.31199C9.68752 1.25495 9.67452 1.19867 9.6495 1.14741C9.62448 1.09616 9.5881 1.05128 9.54313 1.01621ZM2 10.312C1.81458 10.312 1.63333 10.257 1.47916 10.154C1.32498 10.051 1.20482 9.90456 1.13387 9.73325C1.06291 9.56195 1.04434 9.37345 1.08052 9.19159C1.11669 9.00973 1.20598 8.84269 1.33709 8.71158C1.4682 8.58046 1.63525 8.49118 1.81711 8.455C1.99896 8.41883 2.18746 8.4374 2.35877 8.50835C2.53007 8.57931 2.67649 8.69947 2.77951 8.85364C2.88252 9.00781 2.9375 9.18907 2.9375 9.37449C2.9375 9.62313 2.83873 9.86159 2.66292 10.0374C2.4871 10.2132 2.24864 10.312 2 10.312ZM3.6875 4.58152V3.10496L8.9375 1.79246V3.26902L3.6875 4.58152ZM8 8.81199C7.81458 8.81199 7.63333 8.75701 7.47916 8.65399C7.32498 8.55098 7.20482 8.40456 7.13387 8.23325C7.06291 8.06195 7.04434 7.87345 7.08052 7.69159C7.11669 7.50973 7.20598 7.34269 7.33709 7.21158C7.4682 7.08046 7.63525 6.99118 7.81711 6.955C7.99896 6.91883 8.18746 6.9374 8.35877 7.00835C8.53007 7.07931 8.67649 7.19947 8.77951 7.35364C8.88252 7.50781 8.9375 7.68907 8.9375 7.87449C8.9375 8.12313 8.83873 8.36159 8.66292 8.5374C8.4871 8.71322 8.24864 8.81199 8 8.81199Z" fill="#9878FF"/>
</g>
<defs>
<clipPath id="clip0_3155_15534">
<rect width="9.375" height="10.1256" fill="white" transform="translate(0.3125 0.937012)"/>
</clipPath>
</defs>
</svg>
